<svg width="124" height="55" viewBox="0 0 124 55" fill="none" xmlns="http://www.w3.org/2000/svg">
<path d="M0 54.9412C0 36.9104 0 18.9565 0 0.941162C41.3383 0.941162 82.6321 0.941162 124 0.941162C124 18.9104 124 36.8951 124 54.9412C82.6913 54.9412 41.3827 54.9412 0 54.9412ZM121 51.9412C121 35.7534 121 20.0521 121 3.94116C81.4236 3.94116 42.5171 3.94116 3 3.94116C3 20.1135 3 35.7842 3 51.9412C42.5319 51.9412 81.4236 51.9412 121 51.9412Z" fill="black"/>
<path d="M23.576 41.5795C24.7614 41.8075 24.7762 41.8227 25.043 43.1905C23.5167 43.1905 22.0052 43.1905 20.4345 43.1905C20.4345 42.7194 20.4345 42.2482 20.4345 41.7923C21.4421 41.5795 21.4273 41.5795 21.368 40.5004C21.2495 38.3271 21.1457 36.1537 20.9235 33.95C20.8197 34.1475 20.7012 34.3451 20.6123 34.5427C19.8714 36.3361 19.1305 38.1295 18.3895 39.9229C17.7968 41.3667 17.7672 41.3971 16.0779 41.7011C15.1147 39.1478 14.1515 36.5641 13.1883 33.9803C13.1439 33.9955 13.0846 33.9955 13.0401 34.0107C12.9068 36.5185 12.7734 39.0262 12.64 41.5795C12.9512 41.6403 13.2328 41.6859 13.5439 41.7467C13.5439 42.2178 13.5439 42.689 13.5439 43.1905C12.0177 43.1905 10.521 43.1905 8.89099 43.1905C9.21699 42.5674 9.02436 41.6859 10.0765 41.6251C10.2395 41.6099 10.4766 41.1387 10.4914 40.8652C10.6544 39.0262 10.7581 37.1872 10.8766 35.333C10.9507 34.1931 11.01 33.0685 11.0841 31.883C10.7877 31.8222 10.5062 31.7614 10.1209 31.6702C10.2691 31.2599 10.3876 30.8647 10.5506 30.4999C10.6099 30.3784 10.7729 30.272 10.9211 30.2112C11.0248 30.1656 11.1582 30.196 11.2916 30.196C12.1214 30.2112 13.1587 29.9376 13.7366 30.3328C14.3145 30.7279 14.4627 31.8222 14.7739 32.6125C15.4259 34.2843 16.0482 35.9561 16.7003 37.6279C16.7743 37.8255 16.8781 38.0231 17.0263 38.3423C17.9154 35.8497 18.8045 33.5092 19.6046 31.1231C19.8417 30.4239 20.1233 30.0592 20.8938 30.1808C21.3532 30.2568 21.8274 30.196 22.3016 30.196C23.576 30.196 23.576 30.196 23.9464 31.5334C22.9832 31.9894 22.9684 31.9894 23.0425 33.19C23.25 36.0017 23.413 38.7678 23.576 41.5795Z" fill="black"/>
<path d="M63.9115 39.1933C63.9115 38.5246 63.9115 37.8559 63.9115 37.1871C63.9115 35.7433 63.8818 34.2995 63.9263 32.8556C63.9559 32.1109 63.867 31.5942 62.9335 31.731C62.9335 31.199 62.9335 30.7431 62.9335 30.2111C64.4005 30.2111 65.8675 30.2111 67.4382 30.2111C67.1271 30.7887 67.2604 31.5942 66.3861 31.8373C66.2231 31.8829 66.1046 32.3845 66.1046 32.6732C66.0898 35.7433 66.075 38.7982 66.1046 41.8682C66.1194 42.5217 65.9119 42.7801 65.3192 42.8713C64.8598 42.9473 64.4153 43.0841 63.8818 43.2209C62.0444 40.1356 60.2069 37.0504 58.3694 33.9651C58.325 33.9803 58.2657 33.9955 58.2212 34.0107C58.2212 35.5913 58.2212 37.1719 58.2212 38.7526C58.2212 39.3909 58.2657 40.0292 58.2064 40.6524C58.1471 41.3971 58.2953 41.853 59.1992 41.6554C59.1992 42.1874 59.1992 42.6433 59.1992 43.1753C57.7322 43.1753 56.2356 43.1753 54.6797 43.1753C55.0057 42.5977 54.8278 41.777 55.7169 41.5947C55.8355 41.5643 55.954 41.2299 55.954 41.0475C55.9689 38.0079 55.9689 34.9682 55.9689 31.8525C55.5688 31.7917 55.1983 31.7462 54.813 31.6854C54.813 31.579 54.7982 31.503 54.813 31.427C55.2279 30.1351 55.2428 30.2567 56.5764 30.1199C57.9101 29.9832 58.6362 30.4543 59.2882 31.6702C60.6514 34.2387 62.2074 36.716 63.6892 39.2237C63.7633 39.2237 63.8374 39.2085 63.9115 39.1933Z" fill="black"/>
<path d="M40.1132 43.2209C38.3795 43.2209 36.8532 43.2209 35.2825 43.2209C35.2825 42.7345 35.2825 42.2786 35.2825 42.0354C35.6825 41.6858 36.1716 41.4427 36.1716 41.1995C36.1864 40.1964 35.6233 39.5277 34.9416 39.5277C33.9488 39.5277 32.9708 39.5581 31.978 39.5125C31.4297 39.4821 31.1778 39.6797 31.0592 40.2268C30.9703 40.6676 30.7925 41.0931 30.6295 41.5947C30.9407 41.6555 31.2222 41.7162 31.5334 41.777C31.5334 42.2482 31.5334 42.7193 31.5334 43.2209C30.0071 43.2209 28.5105 43.2209 26.9101 43.2209C27.2509 42.5977 27.0879 41.7162 28.1252 41.6403C28.2734 41.6251 28.466 41.3515 28.5401 41.1539C29.5774 38.0991 30.5999 35.0442 31.6371 31.9437C31.326 31.8678 31.0592 31.7918 30.7925 31.7158C30.7777 31.6398 30.748 31.579 30.7629 31.5334C31.163 30.1655 31.163 30.1503 32.5262 30.1655C33.282 30.1807 34.2155 29.9528 34.749 30.3327C35.2528 30.6823 35.3269 31.6702 35.5788 32.3693C36.5716 35.1962 37.5348 38.0231 38.5277 40.8651C38.661 41.2603 38.8092 41.5491 39.2834 41.7466C39.6539 41.9138 39.802 42.6281 40.1132 43.2209ZM33.5487 32.5061C33.4894 32.5061 33.445 32.5213 33.3857 32.5213C32.8226 34.2843 32.2595 36.0473 31.6816 37.8559C32.8967 37.8559 34.0377 37.8559 35.238 37.8559C34.6749 36.0169 34.1118 34.2539 33.5487 32.5061Z" fill="black"/>
<path d="M81.486 43.2208C79.7523 43.2208 78.226 43.2208 76.6404 43.2208C76.6404 42.7497 76.6404 42.2785 76.6404 41.777C76.8034 41.7466 76.9812 41.7466 77.1294 41.701C77.2628 41.6706 77.5147 41.5642 77.4999 41.5338C77.411 41.0019 77.3072 40.47 77.1442 39.9684C77.085 39.786 76.8182 39.5581 76.6404 39.5581C75.4401 39.5277 74.225 39.5277 73.0099 39.5581C72.8469 39.5581 72.6246 39.7556 72.5506 39.9076C72.3283 40.4396 72.1801 40.9867 71.9875 41.5946C72.2986 41.6554 72.5506 41.701 72.8617 41.7618C72.8617 42.2178 72.8617 42.6889 72.8617 43.2056C71.4688 43.2056 70.0611 43.2056 68.5644 43.2056C68.8608 42.6281 68.7719 41.8834 69.5572 41.5946C69.7202 41.5338 69.8536 41.2603 69.9277 41.0627C70.9502 38.0382 71.9726 35.0138 73.0099 31.9437C72.6987 31.8677 72.432 31.7917 72.0764 31.7005C72.269 31.1686 72.4468 30.6823 72.6246 30.1807C73.7064 30.1807 74.7288 30.2111 75.7661 30.1655C76.3144 30.1503 76.3292 30.5607 76.4478 30.895C77.6036 34.2235 78.7594 37.5519 79.9004 40.8803C80.0338 41.2755 80.182 41.5642 80.6562 41.7618C81.0266 41.9138 81.16 42.6129 81.486 43.2208ZM76.6256 37.871C76.0477 36.0473 75.4846 34.269 74.9215 32.4908C74.877 32.4908 74.8178 32.4908 74.7733 32.4908C74.2102 34.269 73.6323 36.0473 73.0544 37.871C74.2843 37.871 75.4105 37.871 76.6256 37.871Z" fill="black"/>
<path d="M49.3895 33.1748C49.5229 32.1413 48.9598 32.0045 48.2485 31.9133C45.7146 31.579 44.0994 32.7645 43.6696 35.3634C43.4474 36.7312 43.5215 38.0991 43.9808 39.4061C44.6476 41.3667 46.9741 42.2634 48.7523 41.2603C48.8857 41.1843 49.0191 40.9563 49.0339 40.8044C49.0635 39.8925 49.0487 38.9806 49.0487 37.9927C47.8484 38.1902 47.8929 37.2024 47.552 36.3968C48.4263 36.3968 49.2265 36.3968 50.0267 36.3968C50.8417 36.3968 51.6419 36.3968 52.5162 36.3968C52.3828 37.096 52.6495 37.9319 51.5826 38.0231C51.4641 38.0383 51.3159 38.479 51.3011 38.7222C51.2714 39.7405 51.3159 40.7436 51.2714 41.7618C51.2566 42.0506 51.0343 42.4458 50.7973 42.5674C48.7671 43.616 46.6333 43.7832 44.4846 43.0537C42.8694 42.5066 41.9655 41.2299 41.5358 39.6037C41.0764 37.9167 41.032 36.2145 41.4321 34.4971C42.0248 31.9133 43.6104 30.3935 46.1591 30.0592C47.6558 29.8616 49.1672 29.968 50.6194 30.4695C51.0492 30.6215 51.3752 30.7887 51.2863 31.3662C51.2122 31.8982 51.5234 32.5669 50.6787 32.7493C50.2638 32.81 49.8933 32.9772 49.3895 33.1748Z" fill="black"/>
<path d="M98.0084 35.6217C99.5051 35.6217 100.972 35.6217 102.498 35.6217C102.498 36.26 102.498 36.8224 102.498 37.4759C101.002 37.4759 99.5347 37.4759 98.0233 37.4759C98.0233 38.8286 98.0233 40.1204 98.0233 41.5187C99.0902 41.5187 100.172 41.5187 101.239 41.5187C101.343 41.5187 101.535 41.4275 101.55 41.3515C101.802 40.318 102.765 40.6827 103.447 40.2268C103.447 41.3211 103.447 42.2482 103.447 43.2209C100.439 43.2209 97.4453 43.2209 94.3335 43.2209C94.704 42.6433 94.5113 41.853 95.3708 41.625C95.519 41.5794 95.6671 41.2299 95.6671 41.0171C95.682 38.0078 95.682 34.9986 95.682 31.9133C94.615 31.8677 94.7188 30.9254 94.3631 30.2111C97.3713 30.2111 100.29 30.2111 103.313 30.2111C103.313 30.895 103.328 31.579 103.299 32.2477C103.299 32.3997 103.136 32.6276 103.002 32.6732C102.543 32.8556 102.069 32.962 101.535 33.1292C101.506 32.7188 101.476 32.3693 101.446 31.9893C100.29 31.9893 99.1791 31.9893 98.0233 31.9893C98.0084 33.19 98.0084 34.3755 98.0084 35.6217Z" fill="black"/>
<path d="M107.818 40.2876C107.922 41.3819 108.026 41.5035 109.093 41.5339C109.67 41.5491 110.278 41.5187 110.856 41.3971C111.582 41.2451 111.967 40.698 112.071 39.938C112.175 39.1933 111.953 38.555 111.286 38.2054C110.723 37.9167 110.1 37.7191 109.507 37.4911C109.063 37.3239 108.604 37.2176 108.189 37.02C106.633 36.3209 106.025 35.2722 106.084 33.4788C106.144 32.0197 107.003 30.7887 108.441 30.3023C110.352 29.664 112.219 29.9224 114.057 30.6063C114.264 32.5365 114.116 32.7493 112.323 33.0684C112.471 32.0349 111.79 31.883 111.049 31.8678C110.604 31.8526 110.159 31.8982 109.73 31.9741C109.018 32.1109 108.589 32.5669 108.5 33.2964C108.396 34.0411 108.722 34.6034 109.33 34.9378C109.819 35.2114 110.367 35.3786 110.9 35.5913C111.226 35.7129 111.552 35.8041 111.878 35.9257C113.953 36.716 114.694 37.8407 114.546 39.9077C114.412 41.7314 113.257 42.9929 111.241 43.3273C109.7 43.5856 108.144 43.4641 106.633 43.0233C106.218 42.9017 106.055 42.6889 106.055 42.2178C106.025 40.7436 106.01 40.7436 107.818 40.2876Z" fill="black"/>
<path d="M84.3607 43.2057C84.7016 42.5521 84.5386 41.625 85.6351 41.6706C85.7685 41.6706 86.0204 41.3667 86.0204 41.1995C86.05 38.1446 86.0352 35.0898 86.0352 31.9285C85.6203 31.9285 85.2795 31.9285 84.9387 31.9285C83.8421 31.9285 83.8421 31.9285 83.7384 33.0228C82.1084 33.0684 81.6935 32.3845 82.0046 30.2111C85.4277 30.2111 88.8507 30.2111 92.333 30.2111C92.333 30.9862 92.333 31.7613 92.333 32.5821C91.7699 32.7796 91.192 32.9772 90.6141 33.1748C90.4066 31.8525 90.0658 31.6702 88.3913 32.0501C88.3765 32.2325 88.3469 32.4301 88.3469 32.6277C88.3469 35.4089 88.3617 38.2054 88.3321 40.9867C88.3321 41.4883 88.4506 41.7162 88.9841 41.7314C89.1915 41.7314 89.4731 41.9746 89.5916 42.1874C89.7694 42.4761 89.8287 42.8409 89.9621 43.2209C88.0801 43.2057 86.2723 43.2057 84.3607 43.2057Z" fill="black"/>
<path d="M35.0305 11.0765C35.3565 11.3045 35.7714 11.4565 35.9937 11.7605C38.4684 15.0129 40.9134 18.2957 43.3732 21.5634C43.5214 21.7609 43.6844 21.9433 43.9511 22.2929C43.9511 18.5237 43.9511 14.9217 43.9511 11.2741C44.292 11.2741 44.5439 11.2741 44.8402 11.2741C44.8402 15.4992 44.8402 19.694 44.8402 23.8887C44.3216 24.1015 44.0104 23.8735 43.7141 23.4631C41.2987 20.2259 38.8685 17.0039 36.4531 13.7666C36.2604 13.5083 36.0678 13.2651 35.7418 12.8547C35.7418 16.6543 35.7418 20.2563 35.7418 23.9039C35.401 23.9039 35.1491 23.9039 34.8527 23.9039C34.8527 19.7092 34.8527 15.5144 34.8527 11.3197C34.8971 11.2437 34.9564 11.1525 35.0305 11.0765Z" fill="black"/>
<path d="M70.476 11.3044C71.0836 11.0461 71.3503 11.3956 71.6318 11.7756C74.0769 15.0584 76.5367 18.3261 78.9965 21.5937C79.1447 21.7913 79.2929 21.9737 79.5893 22.3232C79.5893 18.5236 79.5893 14.9216 79.5893 11.2589C79.9153 11.2437 80.1376 11.2285 80.4339 11.2133C80.4339 15.4688 80.4339 19.6635 80.4339 23.8582C79.9301 24.1014 79.6189 23.843 79.3226 23.4479C76.8627 20.1499 74.388 16.867 71.9134 13.569C71.7504 13.3562 71.6022 13.1586 71.291 13.0219C71.291 16.6239 71.291 20.241 71.291 23.9038C70.9947 23.919 70.7576 23.9342 70.476 23.9342C70.476 19.7091 70.476 15.5144 70.476 11.3044Z" fill="black"/>
<path d="M106.055 17.5357C106.055 19.4355 106.055 21.2441 106.055 23.1287C108.604 23.1287 111.137 23.1287 113.731 23.1287C113.731 23.4327 113.731 23.6607 113.731 23.9342C110.9 23.9342 108.1 23.9342 105.225 23.9342C105.225 19.7395 105.225 15.5296 105.225 11.274C107.966 11.274 110.693 11.274 113.464 11.274C113.479 11.5324 113.479 11.7452 113.494 12.0644C111.004 12.0644 108.559 12.0644 106.07 12.0644C106.07 13.6298 106.07 15.104 106.07 16.6846C108.1 16.6846 110.115 16.6846 112.145 16.6846C112.145 17.0038 112.145 17.2318 112.145 17.5357C110.115 17.5357 108.115 17.5357 106.055 17.5357Z" fill="black"/>
<path d="M63.6299 23.8887C62.9779 24.1014 62.6815 23.8887 62.4741 23.3263C62.1481 22.4752 61.748 21.6697 61.4072 20.8186C61.2442 20.4234 61.0367 20.2563 60.5922 20.2563C58.6361 20.2867 56.6949 20.2867 54.7389 20.2563C54.324 20.2563 54.1166 20.3779 53.9684 20.773C53.6127 21.6393 53.2275 22.4904 52.857 23.3415C52.5754 23.9798 52.5754 23.9798 51.7456 23.9039C51.8049 23.7215 51.8493 23.5239 51.9234 23.3567C53.6275 19.4812 55.3317 15.6056 57.0209 11.73C57.1691 11.4109 57.2729 10.9853 57.7174 11.1525C57.9693 11.2437 58.236 11.4869 58.3546 11.73C60.0291 15.4992 61.6739 19.2836 63.3336 23.0831C63.4225 23.3415 63.5114 23.5999 63.6299 23.8887ZM57.673 12.3228C56.5912 14.7545 55.5836 17.0494 54.5315 19.4052C56.6505 19.4052 58.6806 19.4052 60.7996 19.4052C59.7475 17.0494 58.7547 14.7849 57.673 12.3228Z" fill="black"/>
<path d="M10.4617 11.2589C13.218 11.2589 15.9001 11.2589 18.6266 11.2589C18.6415 11.5172 18.6563 11.7452 18.6563 12.0492C16.1964 12.0492 13.7662 12.0492 11.3064 12.0492C11.3064 13.6754 11.3064 15.2104 11.3064 16.8214C13.3069 16.8214 15.2777 16.8214 17.293 16.8214C17.3078 17.1406 17.3226 17.3838 17.3226 17.6877C15.3073 17.6877 13.3365 17.6877 11.2768 17.6877C11.2768 19.7851 11.2768 21.8217 11.2768 23.9038C10.9508 23.9038 10.7285 23.9038 10.4469 23.9038C10.4617 19.7091 10.4617 15.5144 10.4617 11.2589Z" fill="black"/>
<path d="M97.7269 12.8395C94.1705 11.3045 91.6217 11.7148 89.9472 14.1009C88.4061 16.2895 88.5395 19.4355 90.2584 21.4873C92.0663 23.6455 94.7484 23.8734 98.0232 22.1256C98.1714 22.6728 98.0973 23.0527 97.5639 23.3567C95.267 24.6942 91.9181 24.3598 90.0213 22.5664C87.9023 20.545 87.3392 17.1254 88.6877 14.4049C89.9176 11.9124 92.6145 10.5749 95.3856 11.1069C95.9635 11.2133 96.5266 11.426 97.0749 11.6084C97.6528 11.7756 97.964 12.1404 97.7269 12.8395Z" fill="black"/>
<path d="M26.6137 23.919C26.3766 23.919 26.1544 23.919 25.8728 23.919C25.8728 19.7091 25.8728 15.5296 25.8728 11.2741C26.0803 11.2589 26.3174 11.2437 26.6137 11.2133C26.6137 15.4536 26.6137 19.6483 26.6137 23.919Z" fill="black"/>
<path d="M33.5487 32.506C34.1118 34.2688 34.6601 36.0315 35.238 37.8551C34.0229 37.8551 32.8967 37.8551 31.6816 37.8551C32.2595 36.0467 32.8226 34.284 33.3857 32.5212C33.445 32.5212 33.5042 32.506 33.5487 32.506Z" fill="white"/>
<path d="M76.6256 37.8704C75.4105 37.8704 74.2843 37.8704 73.0544 37.8704C73.6323 36.0469 74.2102 34.2689 74.7733 32.4909C74.8178 32.4909 74.877 32.4909 74.9215 32.4909C75.4846 34.2689 76.0477 36.0317 76.6256 37.8704Z" fill="white"/>
<path d="M57.6729 12.3227C58.7547 14.7693 59.7475 17.0488 60.7996 19.4042C58.6806 19.4042 56.6653 19.4042 54.5314 19.4042C55.5835 17.0488 56.5912 14.7693 57.6729 12.3227Z" fill="white"/>
</svg>
