<svg width="180" height="54" viewBox="0 0 180 54" fill="none" xmlns="http://www.w3.org/2000/svg">
<g clip-path="url(#clip0_1446_2342)">
<path fill-rule="evenodd" clip-rule="evenodd" d="M103.589 13.8002L106.801 16.3909L95.3928 30.3651L88.6866 22.2742H84.5572L93.2551 32.9998L83.3913 44.9942H87.4238L95.3438 35.4925L103.168 44.9942H107.297L97.4335 32.9048L113.397 13.3103L113.677 12.9673L103.589 13.8002Z" fill="#009ACF"/>
<path fill-rule="evenodd" clip-rule="evenodd" d="M8.16396 44.9942H4.6644V23.641H0V20.4374H4.6644V16.3199C4.6644 11.8465 7.0461 8.99884 11.3705 8.99884C13.3143 8.99884 14.9671 9.3038 16.3259 9.96572V13.3203C14.8201 12.6584 13.4603 12.3034 12.2454 12.3034C9.52478 12.3034 8.16396 13.8802 8.16396 17.0308V20.4374H16.3259V23.641H8.16396V44.9942Z" fill="#0C0C3D"/>
<path fill-rule="evenodd" clip-rule="evenodd" d="M35.8134 26.7426C34.1116 25.0498 31.9259 24.2029 29.3023 24.2029C26.6786 24.2029 24.4929 25.0498 22.7901 26.7426C21.0903 28.4363 20.2154 30.5531 20.2154 33.0938C20.2154 35.5864 21.0903 37.7032 22.7901 39.3969C24.4919 41.0897 26.6796 41.9366 29.3023 41.9366C31.9259 41.9366 34.1116 41.0897 35.8134 39.3969C37.5142 37.7032 38.3891 35.5864 38.3891 33.0938C38.3891 30.5541 37.5142 28.4363 35.8134 26.7426ZM29.3023 21.1453C33.0438 21.1453 36.0574 22.3211 38.4381 24.6728C40.8178 26.9775 41.9836 29.8002 41.9836 33.0938C41.9836 36.3863 40.8188 39.208 38.4381 41.5137C36.0574 43.8184 33.0438 44.9942 29.3023 44.9942C25.5607 44.9942 22.5481 43.8184 20.1664 41.5147C17.7867 39.208 16.6209 36.3853 16.6209 33.0938C16.6209 29.8002 17.7857 26.9775 20.1664 24.6728C22.5481 22.3211 25.5607 21.1453 29.3023 21.1453M45.8251 44.9942V22.2741H49.3247V26.6026C51.0725 23.638 54.814 21.7092 58.6535 21.7092V25.1438C57.5836 25.1438 56.6128 25.2848 55.7379 25.5667C52.6283 26.3196 50.2966 28.4363 49.3247 30.6471V44.9942H45.8251ZM78.7219 31.118C78.6249 29.3762 77.946 27.7774 76.6822 26.3666C75.4673 24.9088 73.6206 24.2029 71.1429 24.2029C68.7632 24.2029 66.8664 24.9088 65.4086 26.2726C63.9998 27.6364 63.1739 29.2362 63.0289 31.118H78.7219V31.118ZM63.0759 41.6547C60.5982 39.4429 59.3844 36.5733 59.3844 33.0928C59.3844 29.6592 60.5013 26.8366 62.688 24.5778C64.9227 22.2731 67.7903 21.1443 71.2889 21.1443C79.1599 21.1443 82.2695 27.8254 82.2695 32.9528V33.8926H62.9799C63.3689 38.786 67.3524 41.9356 72.9887 41.9356C75.7103 41.9356 78.238 41.2317 80.5217 39.8199V42.8295C78.5769 44.2883 75.8563 44.9942 72.3087 44.9942C68.6642 44.9942 65.5546 43.8654 63.0759 41.6547V41.6547ZM110.59 39.3969V22.0342L114.1 17.7247L114.088 38.597C114.088 40.8078 115.108 41.9366 117.149 41.9366C117.927 41.9366 118.705 41.7486 119.433 41.3257V44.3353C118.606 44.7583 117.49 44.9942 115.983 44.9942C112.923 44.9942 110.59 43.3944 110.59 39.3969M124.678 44.9942H128.176V22.2741H124.678V44.9942ZM124.678 12.7724C125.649 11.8325 127.204 11.8325 128.176 12.7724C129.148 13.7122 129.148 15.218 128.176 16.1589C127.204 17.0528 125.649 17.0528 124.678 16.1589C123.754 15.218 123.754 13.7122 124.678 12.7724V12.7724ZM142.414 44.9942L131.628 22.1332H135.563L144.115 40.4318L152.618 22.1332H156.408L145.621 44.9942H142.414ZM176.43 31.118C176.333 29.3762 175.653 27.7774 174.389 26.3666C173.175 24.9088 171.328 24.2029 168.849 24.2029C166.47 24.2029 164.574 24.9088 163.115 26.2726C161.707 27.6364 160.881 29.2362 160.735 31.118H176.43ZM160.782 41.6547C158.305 39.4429 157.092 36.5733 157.092 33.0928C157.092 29.6592 158.209 26.8366 160.395 24.5778C162.629 22.2731 165.498 21.1443 168.994 21.1443C176.866 21.1443 179.977 27.8254 179.977 32.9528V33.8926H160.686C161.075 38.786 165.059 41.9356 170.695 41.9356C173.418 41.9356 175.944 41.2317 178.228 39.8199V42.8295C176.284 44.2883 173.563 44.9942 170.016 44.9942C166.372 44.9942 163.261 43.8654 160.783 41.6547H160.782Z" fill="#0C0C3D"/>
</g>
<defs>
<clipPath id="clip0_1446_2342">
<rect width="179.977" height="35.9954" fill="white" transform="translate(0 8.99884)"/>
</clipPath>
</defs>
</svg>
