<svg width="74" height="54" viewBox="0 0 74 54" fill="none" xmlns="http://www.w3.org/2000/svg">
<g clip-path="url(#clip0_1446_2467)">
<path d="M0.0607343 8.88092C1.77303 8.88092 3.37925 8.88092 5.00063 8.88092C6.92507 8.88092 8.84951 8.94153 10.7588 8.85061C11.7437 8.80515 12.3347 9.10822 12.8651 9.94163C13.9258 11.6388 15.0926 13.2753 16.229 14.927C17.608 16.912 19.0021 18.8819 20.381 20.8821C20.8659 21.5792 21.3053 22.3065 21.7448 23.0187C22.0327 23.5036 22.3206 23.3218 22.5327 23.0036C23.8207 21.0791 25.0936 19.1244 26.3816 17.1848C27.3514 15.7453 28.3666 14.3512 29.3213 12.9116C30.1092 11.7297 30.8063 10.4871 31.6245 9.32036C31.8064 9.06276 32.2913 8.86577 32.6247 8.86577C43.4591 8.83546 54.3087 8.83546 65.1431 8.83546C65.4007 8.83546 65.6432 8.83546 65.9462 8.83546C66.1129 8.3051 66.2644 7.7899 66.4614 7.18378C68.8708 9.66888 71.2043 12.0631 73.7046 14.6391C72.1287 16.1544 70.6134 17.5788 69.1132 19.0335C68.3253 19.7911 67.5828 20.6094 66.8099 21.3822C66.719 21.4731 66.5523 21.6095 66.4917 21.5792C66.3857 21.5337 66.2644 21.367 66.2493 21.2458C66.219 20.4275 65.7795 20.2609 65.0219 20.2609C56.6877 20.2912 48.3384 20.3063 40.0042 20.2457C38.9738 20.2457 38.4737 20.7306 38.004 21.4125C36.5796 23.4885 35.1704 25.5796 33.7763 27.6707C32.458 29.6406 31.17 31.6408 29.8668 33.6107C28.9122 35.0654 27.8969 36.4746 26.9574 37.9445C25.8967 39.5962 24.8966 41.2782 23.8662 42.945C23.3207 43.8239 22.7146 44.6876 22.1842 45.5816C21.8963 46.0665 21.6084 46.0514 21.3508 45.6271C20.4719 44.233 19.6233 42.8238 18.7445 41.4297C18.1535 40.475 17.5171 39.5507 16.9261 38.6112C16.123 37.3535 15.335 36.0958 14.5471 34.823C13.9561 33.8683 13.3803 32.9137 12.759 31.9742C12.6681 31.8378 12.365 31.8226 12.0316 31.7166C12.0316 36.7777 12.0316 41.6873 12.0316 46.6726C11.7286 46.6878 11.5164 46.7181 11.2891 46.7181C7.77364 46.7181 4.25813 46.7029 0.757775 46.7333C0.121347 46.7333 0.00012207 46.506 0.00012207 45.9301C0.0152751 33.8835 0.0152751 21.8065 0.0152751 9.72949C0.0152751 9.47189 0.0455812 9.22944 0.0607343 8.88092Z" fill="#0C0C3D"/>
<path d="M33.6549 46.7334C33.6549 44.8696 33.6549 43.127 33.6549 41.3995C33.6549 39.0205 33.6398 36.6566 33.6701 34.2776C33.6701 33.9594 33.8064 33.6109 33.9731 33.3533C35.1399 31.4894 36.337 29.6256 37.5341 27.7769C38.5493 26.2162 39.5646 24.6554 40.6253 23.1401C40.8223 22.8522 41.3224 22.6249 41.686 22.6249C49.5202 22.5946 57.3543 22.6097 65.1733 22.6097C66.3704 22.6097 66.4461 22.6855 66.4461 23.8068C66.4613 26.7617 66.4461 29.7165 66.4764 32.6714C66.4916 33.3533 66.3097 33.5957 65.5976 33.5957C58.6271 33.5654 51.6567 33.5806 44.6863 33.5806C43.4286 33.5806 43.4286 33.5654 43.4135 34.8231C43.4135 35.2171 43.4135 35.6262 43.4135 36.0657C43.7772 36.0808 44.0499 36.1111 44.3227 36.1111C51.3991 36.1111 58.4756 36.1263 65.5369 36.096C66.2491 36.096 66.4613 36.3233 66.4613 36.99C66.4461 39.9903 66.431 43.0058 66.4764 46.0061C66.4764 46.6576 66.234 46.8243 65.643 46.8243C61.2032 46.8092 56.7482 46.8243 52.3083 46.8243C46.4289 46.8092 40.5344 46.794 34.655 46.7637C34.3671 46.7334 34.064 46.7334 33.6549 46.7334Z" fill="#0C0C3D"/>
</g>
<defs>
<clipPath id="clip0_1446_2467">
<rect width="73.7045" height="39.5949" fill="white" transform="translate(0 7.1991)"/>
</clipPath>
</defs>
</svg>
