<svg width="154" height="60" viewBox="0 0 154 60" fill="none" xmlns="http://www.w3.org/2000/svg">
<path d="M61.8692 20.0898L69.2141 40.0124H64.7301L63.2445 35.9624H55.8996L54.3592 40.0124H50.0127L57.4403 20.0898H61.8692ZM62.1167 32.3113L59.6409 25.0008H59.586L57.0275 32.3113H62.1167Z" fill="#013338"/>
<path d="M77.7612 20.0898L82.3552 31.4705H82.4101L86.7566 20.0898H92.8361V40.0124H88.7923V25.8937H88.7372L83.9232 37.6928H80.5946L75.7804 26.0332H75.7255V40.0124H71.6816V20.0898H77.7612Z" fill="#013338"/>
<path d="M112.084 20.0898V23.773H101.713V28.0421H111.232V31.4463H101.713V36.3292H112.304V40.0124H97.3945V20.0898H112.084Z" fill="#013338"/>
<path d="M133.37 29.2421C133.37 29.2421 134.044 33.2191 132.441 36.373C132.025 37.2053 131.442 37.9396 130.728 38.5283C130.034 39.1165 129.238 39.5676 128.381 39.8585C127.222 40.2524 126.008 40.4547 124.786 40.4578C123.393 40.4811 122.011 40.2099 120.727 39.6613C119.569 39.1646 118.533 38.4179 117.689 37.4731C116.848 36.5189 116.203 35.4044 115.791 34.1946C115.342 32.8901 115.119 31.5168 115.131 30.1352C115.118 28.7257 115.341 27.3242 115.791 25.9907C116.202 24.7645 116.847 23.6322 117.689 22.6581C118.528 21.6969 119.565 20.9341 120.727 20.4234C122.009 19.8691 123.392 19.5939 124.786 19.6154C125.781 19.6138 126.77 19.769 127.717 20.0755C128.641 20.3719 129.507 20.8298 130.275 21.4287C131.074 22.0524 131.735 22.8392 132.216 23.7382C132.696 24.6372 132.985 25.6285 133.065 26.6479H128.941C128.758 25.6567 128.231 24.765 127.454 24.135C126.68 23.565 125.742 23.2713 124.786 23.2998C123.926 23.2725 123.073 23.4695 122.309 23.872C121.644 24.2387 121.078 24.7642 120.658 25.403C120.226 26.0725 119.915 26.8148 119.74 27.5951C119.544 28.4272 119.447 29.2799 119.45 30.1352C119.448 30.9573 119.545 31.7766 119.74 32.5747C119.918 33.3359 120.229 34.0587 120.658 34.7088C121.081 35.3426 121.647 35.8648 122.309 36.2321C123.073 36.6328 123.926 36.8297 124.786 36.8043C126.216 36.8043 127.355 36.4785 128.137 35.7439C129.075 34.9111 129.683 33.7595 129.844 32.5051H125.118V29.2421H133.37Z" fill="#013338"/>
<path d="M146.655 20.0898L154 40.0124H149.516L148.031 35.9624H140.686L139.145 40.0124H134.799L142.226 20.0898H146.655ZM146.903 32.3113L144.427 25.0008H144.372L141.814 32.3113H146.903Z" fill="#013338"/>
<path d="M43.7059 40.8537C43.6895 40.7931 43.6786 40.7431 43.6623 40.6875C43.5028 40.1376 43.2719 39.6116 42.9756 39.1234L40.4797 34.8229L35.6895 26.5761L34.2562 24.144C34.2563 24.1433 34.2561 24.1425 34.2559 24.1418C34.2556 24.1412 34.2552 24.1405 34.2547 24.14C34.2542 24.1395 34.2536 24.1391 34.2529 24.1388C34.2522 24.1385 34.2515 24.1384 34.2508 24.1384L34.2453 24.1272C33.4762 23.1578 32.3857 22.5055 31.1772 22.2919H31.1445C30.9156 22.2537 30.6977 22.22 30.4742 22.1981C29.7878 22.1339 29.0956 22.2148 28.4415 22.4356C27.3132 22.8003 26.2604 23.3717 25.3353 24.1216C24.7674 24.5524 24.2515 25.0497 23.7985 25.6032C23.7717 25.6418 23.7426 25.6788 23.7113 25.7138L26.3325 30.1631L26.8973 31.1276L22.2033 33.2346L22.1433 33.2627L17.0753 35.5454L17.0698 35.5505L16.127 36.894C16.1106 36.9159 16.0943 36.9383 16.078 36.9602L15.9635 37.1371C15.9442 37.1588 15.9277 37.183 15.9145 37.2089C15.9138 37.2089 15.913 37.2091 15.9124 37.2094C15.9117 37.2096 15.9111 37.21 15.9106 37.2106C15.9101 37.2111 15.9097 37.2117 15.9094 37.2124C15.9091 37.2131 15.909 37.2138 15.909 37.2146C15.9036 37.2146 15.9036 37.2202 15.8982 37.2258C15.8982 37.2314 15.8872 37.237 15.8872 37.2421C15.8752 37.2579 15.8642 37.2746 15.8545 37.292C15.8436 37.3083 15.8273 37.3252 15.8164 37.3415C15.7019 37.502 15.4894 37.8007 15.2224 38.1707C15.0643 38.3919 14.8845 38.6406 14.6937 38.9062C14.6774 38.928 14.6611 38.9449 14.6447 38.9668C14.6338 38.9831 14.6229 39.0055 14.6065 39.0274C14.563 39.0886 14.5139 39.1549 14.4703 39.2211C14.4238 39.2744 14.3818 39.3317 14.3449 39.3923C14.1815 39.6192 14.0126 39.8566 13.8491 40.0835C13.8 40.1497 13.7564 40.2103 13.7074 40.2772C13.6964 40.2934 13.6801 40.3153 13.6638 40.3378C13.1678 41.0452 10.8518 44.5721 10.5303 45.705V45.7101C10.5248 45.7269 10.5194 45.7437 10.5139 45.76C10.5085 45.7875 10.4975 45.8156 10.4921 45.8487V45.8543C10.4859 45.8664 10.4822 45.8796 10.4812 45.8931C10.4202 46.1836 10.4468 46.486 10.5575 46.761C10.5797 46.8195 10.6052 46.8767 10.6338 46.9323C10.6651 46.9859 10.6997 47.0374 10.7374 47.0867C10.7705 47.1352 10.8069 47.1813 10.8463 47.2248C10.9842 47.3778 11.1516 47.5005 11.3382 47.5851C11.5248 47.6698 11.7265 47.7148 11.9308 47.7171C11.9836 47.718 12.0363 47.7161 12.0889 47.7115C12.1706 47.7003 12.2524 47.6947 12.3178 47.684H12.3232L13.0426 47.4016C13.0577 47.3957 13.0723 47.3883 13.0862 47.3797H13.0916C13.1015 47.3735 13.1127 47.3697 13.1243 47.3685L13.1625 47.3522L13.9744 47.0204L21.266 44.0522C21.2824 44.0465 21.2932 44.0465 21.3096 44.0415L21.5984 43.9196L26.9935 41.725L29.2932 40.7852L31.9556 39.7045L32.2944 40.2625L33.199 41.7492L34.6922 44.22C34.6977 44.22 34.6977 44.2313 34.6977 44.2369L34.8503 44.4744C35.0611 44.7881 35.3383 45.0502 35.6616 45.2414C35.985 45.4327 36.3464 45.5483 36.7194 45.5798C36.8062 45.591 36.8936 45.5966 36.981 45.5966C37.0573 45.5966 37.1336 45.591 37.2099 45.5854C37.2644 45.5798 37.3134 45.5686 37.3679 45.563C37.5269 45.5345 37.6836 45.4939 37.8366 45.4417C37.8747 45.4248 37.9183 45.408 37.9565 45.3917C38.0001 45.3754 38.0492 45.3586 38.0927 45.3423C38.0927 45.3367 38.1036 45.3367 38.1036 45.3311C38.2072 45.2924 38.3216 45.248 38.4361 45.2042L41.8966 43.9657L42.2344 43.8439C42.693 43.6417 43.0834 43.308 43.3574 42.8838C43.6314 42.4596 43.7772 41.9633 43.7767 41.4561C43.7783 41.2531 43.7545 41.0507 43.7059 40.8537Z" fill="url(#paint0_linear_1481_2513)"/>
<path d="M34.0055 23.5205C33.2363 22.5512 32.1458 21.8989 30.9373 21.6854H30.9046C30.6758 21.6468 30.4578 21.6136 30.2343 21.5915C29.5478 21.5273 28.8557 21.6082 28.2017 21.8292C27.0733 22.1937 26.0204 22.7651 25.0954 23.5151C24.5275 23.9458 24.0117 24.443 23.5586 24.9963C23.5319 25.0351 23.5028 25.072 23.4714 25.1069L23.0572 25.7372C22.9101 25.9361 22.7738 26.1407 22.6431 26.3563L16.3379 35.8361L16.3324 35.8415L15.3897 37.1848L15.3406 37.2512C15.2975 37.3067 15.2592 37.3658 15.2262 37.428C15.2068 37.4496 15.1903 37.4738 15.1771 37.4998C15.1764 37.4998 15.1757 37.4999 15.175 37.5002C15.1743 37.5005 15.1737 37.5009 15.1732 37.5014C15.1727 37.5019 15.1723 37.5026 15.172 37.5033C15.1717 37.5039 15.1716 37.5047 15.1717 37.5054C15.1662 37.5054 15.1662 37.5108 15.1608 37.5165C15.1608 37.5219 15.1499 37.5276 15.1499 37.533C15.1377 37.5487 15.1268 37.5654 15.1172 37.5829C15.1063 37.5994 15.0899 37.6158 15.079 37.6325C14.9646 37.7929 14.7521 38.0914 14.485 38.4617C14.3215 38.6827 14.1417 38.9316 13.9509 39.1969C13.9396 39.2193 13.9249 39.2398 13.9073 39.2576C13.8965 39.2741 13.8856 39.2962 13.8692 39.3184C13.8256 39.3794 13.7766 39.4455 13.733 39.5119C13.6865 39.5653 13.6445 39.6226 13.6076 39.6833C13.4442 39.91 13.2752 40.1475 13.1117 40.3742C13.0627 40.4406 13.0191 40.5013 12.97 40.5677C12.9591 40.5842 12.9428 40.6063 12.9264 40.6285C12.4305 41.3359 10.1144 44.8627 9.7929 45.9957V46.0011L9.77657 46.0511C9.77112 46.0786 9.76021 46.1064 9.75475 46.1393V46.145C9.74865 46.157 9.74495 46.1701 9.74387 46.1836C9.68287 46.4741 9.70945 46.7766 9.82014 47.0516C9.84231 47.1101 9.86778 47.1674 9.89645 47.223C9.92914 47.278 9.96184 47.3334 9.99454 47.383C10.0295 47.43 10.0678 47.4743 10.109 47.5158C10.247 47.6687 10.4144 47.7913 10.6009 47.8759C10.7875 47.9605 10.9891 48.0054 11.1935 48.0079C11.2462 48.0087 11.299 48.0068 11.3515 48.0022C11.4332 47.9968 11.515 47.9857 11.5804 47.9747L11.0627 48.1792L9.4278 48.8203L6.88285 49.8208C6.55147 49.9518 6.19701 50.0121 5.84162 49.9978C5.48623 49.9836 5.13757 49.8951 4.81743 49.7379C4.76841 49.7104 4.71934 49.6826 4.67031 49.6551C4.6158 49.6219 4.56132 49.5887 4.5068 49.5501C4.40029 49.4822 4.30159 49.4024 4.21254 49.3123C4.19128 49.2974 4.17124 49.2808 4.1526 49.2626C4.13081 49.2348 4.09808 49.2073 4.07629 49.1795L4.0545 49.1576L3.88011 48.9474L0.599446 44.9731C0.492012 44.8405 0.397141 44.698 0.316091 44.5474C0.237206 44.3931 0.171558 44.2322 0.119879 44.0665C0.104692 44.025 0.091951 43.9826 0.0817253 43.9396C0.0763035 43.8954 0.0599395 43.8565 0.0544856 43.8122C0.0463929 43.7796 0.0409324 43.7464 0.038154 43.7129C0.0327001 43.6908 0.0326998 43.6687 0.0272459 43.6519C0.0217919 43.6244 0.0217895 43.6022 0.0163316 43.5747V43.5137C0.00549473 43.4462 3.19969e-05 43.3778 0 43.3094V43.2927C0 43.2373 0.00545407 43.1823 0.00545407 43.1324C0.00634877 43.1212 0.00816393 43.11 0.0108775 43.0992C0.0170011 42.9877 0.0315806 42.8769 0.0544856 42.7677C0.0552139 42.7677 0.0559342 42.7676 0.0566059 42.7673C0.0572777 42.767 0.0578866 42.7666 0.0583954 42.7661C0.0589041 42.7655 0.0593007 42.7649 0.0595658 42.7642C0.059831 42.7635 0.0599601 42.7628 0.0599397 42.762C0.0694908 42.7024 0.0822279 42.6434 0.0980937 42.5852C0.132336 42.4745 0.172353 42.3657 0.217973 42.2592C0.239793 42.2039 0.267029 42.1486 0.294275 42.0932C0.321517 42.0436 0.348795 41.9993 0.376037 41.9496C0.376037 41.9386 0.386915 41.9329 0.392369 41.9275L0.485033 41.7782L0.501364 41.7615L0.512272 41.7394L0.544972 41.6954V41.6897L17.4986 16.2296L17.5423 16.1635L19.2098 13.6647L19.2153 13.6593L19.7166 12.9076L19.7221 12.902L20.6213 11.5533C20.9378 11.0742 21.3661 10.6818 21.868 10.4109C22.37 10.1399 22.9301 9.99879 23.4987 10C23.9759 10.0054 24.4471 10.1092 24.8837 10.3049C25.3202 10.5007 25.713 10.7843 26.0382 11.1387C26.1594 11.2705 26.2688 11.4129 26.3652 11.5644C26.4523 11.6972 26.5504 11.8407 26.5504 11.8407L27.4387 13.1673C27.4442 13.173 27.4442 13.184 27.4551 13.1894L27.5368 13.3222L29.4333 16.1635L29.624 16.4728L32.7848 21.5472L33.0191 21.9232L33.7984 23.1723H33.8038L34.0055 23.5205Z" fill="url(#paint1_linear_1481_2513)"/>
<defs>
<linearGradient id="paint0_linear_1481_2513" x1="31.439" y1="50.5336" x2="17.9124" y2="28.6117" gradientUnits="userSpaceOnUse">
<stop stop-color="#1CA549"/>
<stop offset="0.90878" stop-color="#1CA549"/>
<stop offset="1" stop-color="#1CA549"/>
</linearGradient>
<linearGradient id="paint1_linear_1481_2513" x1="9552.93" y1="9921.65" x2="7017.66" y2="13143.9" gradientUnits="userSpaceOnUse">
<stop stop-color="#1CA549"/>
<stop offset="0.90878" stop-color="#1CA549"/>
<stop offset="1" stop-color="#1CA549"/>
</linearGradient>
</defs>
</svg>
