<svg width="129" height="60" viewBox="0 0 129 60" fill="none" xmlns="http://www.w3.org/2000/svg">
<g clip-path="url(#clip0_1474_2336)">
<path fill-rule="evenodd" clip-rule="evenodd" d="M20.8044 9.18945L9.28711 37.8381H17.1712L24.36 19.3419L31.5101 37.8381H39.5491L28.0318 9.18945H20.8044Z" fill="black"/>
<path fill-rule="evenodd" clip-rule="evenodd" d="M55.5021 19.7576L49.0473 9.18945H41.25V37.8381H49.2857V21.3922L55.3473 32.4327H55.5021L62.6786 21.3143V37.8381H69.6429V9.18945H61.9559L55.5021 19.7576Z" fill="black"/>
<path fill-rule="evenodd" clip-rule="evenodd" d="M109.197 19.9879C105.448 19.13 104.521 18.5841 104.521 17.3365C104.521 16.2835 105.41 15.5035 107.226 15.5035C109.623 15.5035 112.328 16.4392 114.801 18.1943L118.55 12.8516C115.613 10.4727 112.019 9.22461 107.419 9.22461C100.927 9.22461 96.9461 12.8906 96.9461 17.9603C96.9461 23.6538 101.39 25.2916 107.149 26.6176C110.821 27.4754 111.71 28.0992 111.71 29.23C111.71 30.4781 110.628 31.1797 108.618 31.1797C105.487 31.1797 102.511 30.0489 99.8443 27.9046L95.6705 32.9349C98.9941 35.9376 103.555 37.4587 108.347 37.4587C114.918 37.4587 119.285 34.1441 119.285 28.5673C119.285 23.3808 115.42 21.3527 109.197 19.9879Z" fill="black"/>
<path fill-rule="evenodd" clip-rule="evenodd" d="M94.8214 9.18945H72.3214V16.2165H80.3571V37.8381H86.7857V16.2165H94.8214V9.18945Z" fill="black"/>
<path fill-rule="evenodd" clip-rule="evenodd" d="M0 0.356445H128.571V46.331H0V0.356445ZM3.80143 42.4948H124.77V4.19158H3.80143V42.4948Z" fill="black"/>
<path fill-rule="evenodd" clip-rule="evenodd" d="M114.767 59.6198C116.507 59.6198 117.726 58.6884 117.726 57.1241C117.726 55.7144 116.815 55.0819 115.063 54.6517C113.477 54.2695 113.098 53.983 113.098 53.3382C113.098 52.7646 113.596 52.323 114.447 52.323C115.205 52.323 115.951 52.6214 116.696 53.183L117.478 52.0717C116.637 51.3911 115.679 51.0209 114.471 51.0209C112.826 51.0209 111.642 52.0122 111.642 53.4457C111.642 55.01 112.637 55.5355 114.4 55.9533C115.939 56.3236 116.27 56.6463 116.27 57.243C116.27 57.9003 115.702 58.3182 114.802 58.3182C113.773 58.3182 112.98 57.9241 112.187 57.2311L111.311 58.2825C112.306 59.1782 113.501 59.6198 114.767 59.6198ZM97.77 59.5009H99.2019V53.5533L103.771 59.5009H104.99V51.1409H103.558V56.9209L99.1194 51.1409H97.77V59.5009ZM86.9244 58.2944C85.2793 58.2944 84.1076 56.9446 84.1076 55.3203C84.1076 53.6722 85.2557 52.3468 86.9009 52.3468C88.546 52.3468 89.7182 53.696 89.7182 55.3203C89.7182 56.9684 88.5701 58.2944 86.9244 58.2944ZM86.9009 59.6436C89.446 59.6436 91.245 57.6733 91.245 55.3203C91.245 52.9436 89.4696 50.9971 86.9244 50.9971C84.3798 50.9971 82.5809 52.9679 82.5809 55.3203C82.5809 57.6971 84.3562 59.6436 86.9009 59.6436ZM74.5891 59.5009H76.0451V51.1409H74.5891V59.5009ZM64.3103 59.5009H65.7782V52.5019H68.4059V51.1409H61.6826V52.5019H64.3103V59.5009ZM52.0409 59.6317C54.2067 59.6317 55.6039 58.3776 55.6039 55.8819V51.1409H54.1478V55.9533C54.1478 57.4944 53.355 58.2825 52.0644 58.2825C50.7626 58.2825 49.9698 57.4468 49.9698 55.8938V51.1409H48.5137V55.9533C48.5137 58.3776 49.8867 59.6317 52.0409 59.6317ZM36.8523 59.5009H42.6642V58.163H38.3084V51.1409H36.8523V59.5009ZM26.0073 58.2944C24.3621 58.2944 23.19 56.9446 23.19 55.3203C23.19 53.6722 24.3385 52.3468 25.9837 52.3468C27.6289 52.3468 28.8005 53.696 28.8005 55.3203C28.8005 56.9684 27.6525 58.2944 26.0073 58.2944ZM25.9837 59.6436C28.5284 59.6436 30.3273 57.6733 30.3273 55.3203C30.3273 52.9436 28.5519 50.9971 26.0073 50.9971C23.4621 50.9971 21.6632 52.9679 21.6632 55.3203C21.6632 57.6971 23.4385 59.6436 25.9837 59.6436ZM12.7435 59.6198C14.483 59.6198 15.7023 58.6884 15.7023 57.1241C15.7023 55.7144 14.791 55.0819 13.0393 54.6517C11.453 54.2695 11.0743 53.983 11.0743 53.3382C11.0743 52.7646 11.5714 52.323 12.4237 52.323C13.1812 52.323 13.9269 52.6214 14.6726 53.183L15.4543 52.0717C14.6137 51.3911 13.6548 51.0209 12.4473 51.0209C10.8021 51.0209 9.61872 52.0122 9.61872 53.4457C9.61872 55.01 10.6125 55.5355 12.3766 55.9533C13.9151 56.3236 14.2468 56.6463 14.2468 57.243C14.2468 57.9003 13.6784 58.3182 12.7789 58.3182C11.7493 58.3182 10.9559 57.9241 10.163 57.2311L9.28711 58.2825C10.2814 59.1782 11.4771 59.6198 12.7435 59.6198Z" fill="black"/>
</g>
<defs>
<clipPath id="clip0_1474_2336">
<rect width="128.571" height="60" fill="white"/>
</clipPath>
</defs>
</svg>
