<svg width="175" height="60" viewBox="0 0 175 60" fill="none" xmlns="http://www.w3.org/2000/svg">
<path d="M24.8941 54.9374C38.6427 54.9374 49.7881 43.7585 49.7881 29.9687C49.7881 16.1789 38.6427 5 24.8941 5C11.1454 5 0 16.1789 0 29.9687C0 43.7585 11.1454 54.9374 24.8941 54.9374Z" fill="#E71E2E"/>
<path fill-rule="evenodd" clip-rule="evenodd" d="M6.6134 42.3596L24.7692 10.1318L41.9892 40.8577H33.3792L24.582 25.3383L17.0951 38.2295L6.6134 42.3596Z" fill="white"/>
<path fill-rule="evenodd" clip-rule="evenodd" d="M73.7806 4.96289L61.949 30.0049H64.7408L68.6421 21.7653H79.4302L83.3689 30.0049H86.0723L74.3933 4.96289H73.7806ZM78.3477 19.348H69.7864L74.0776 10.2834L78.3477 19.348ZM94.6224 30.0051H97.1249V18.378H98.5393L107.546 30.0051H110.642L101.636 18.378C103.736 18.3669 105.382 18.097 106.573 17.5683C107.765 17.0397 108.682 16.2585 109.322 15.2246C109.964 14.1907 110.284 12.9918 110.284 11.6281C110.284 9.99168 109.819 8.61381 108.888 7.49449C107.957 6.37518 106.749 5.6451 105.262 5.30425C104.275 5.0771 102.391 4.96343 99.6106 4.96327H94.6224V30.0049V30.0051ZM101.541 7.41433C103.257 7.41433 104.485 7.56187 105.225 7.85695C105.959 8.14907 106.585 8.66384 107.015 9.32954C107.466 10.0066 107.704 10.8046 107.696 11.6193C107.706 12.449 107.472 13.2632 107.023 13.9603C106.577 14.6564 105.919 15.1905 105.147 15.4839C104.346 15.8017 103.11 15.9606 101.439 15.9606L97.1249 15.9263V7.41433H101.541ZM120.265 20.0802C120.265 22.6225 120.418 24.3816 120.724 25.3575C121.212 26.9466 122.177 28.2234 123.618 29.1879C125.059 30.1524 126.79 30.6347 128.811 30.6349C130.672 30.6349 132.258 30.1242 133.569 29.1028C134.88 28.0814 135.754 26.8812 136.19 25.5022C136.627 24.1233 136.846 22.316 136.846 20.0802V4.96289H134.344V20.08C134.344 22.0548 134.258 23.3599 134.088 23.9955C133.85 24.8807 133.475 25.6354 132.964 26.2596C132.449 26.8878 131.797 27.3888 131.058 27.724C130.311 28.0727 129.498 28.2528 128.674 28.2517C127.721 28.2517 126.773 28.0275 125.832 27.5792C124.889 27.131 124.191 26.5749 123.737 25.9109C123.284 25.2468 122.994 24.4212 122.869 23.4339C122.801 22.9913 122.767 21.8734 122.767 20.0803V4.96289H120.265V20.08V20.0802ZM148.818 30.0051L151.278 11.9598L160.238 30.0051H160.877L169.732 12.0961L172.206 30.0051H174.66L171.056 4.96289H170.655L160.573 25.5106L150.393 4.96289H149.986L146.401 30.0049H148.818V30.0051Z" fill="#E71E2E"/>
<path fill-rule="evenodd" clip-rule="evenodd" d="M71.6549 41.6122C71.1595 41.2481 70.6074 40.9688 70.0209 40.7857C69.3757 40.5738 68.7008 40.4667 68.0219 40.4686C66.9226 40.4686 65.9289 40.712 65.0409 41.199C64.1691 41.6698 63.4442 42.3733 62.9464 43.2317C62.4424 44.0854 62.1789 45.0603 62.1843 46.0525C62.1843 47.5582 62.7274 48.8365 63.8136 49.8873C64.9005 50.9381 66.2681 51.4635 67.9165 51.4634C68.9902 51.4634 69.9473 51.2559 70.7877 50.841C71.602 50.4489 72.2958 49.8438 72.7961 49.0895L71.7317 48.388C70.7615 49.6118 69.5104 50.2237 67.9782 50.2236C67.1422 50.2236 66.3875 50.038 65.7141 49.6667C65.0492 49.3041 64.4988 48.7622 64.125 48.1022C63.744 47.4501 63.5439 46.7076 63.5453 45.9518C63.5453 44.7806 63.965 43.7854 64.8044 42.9662C65.6438 42.1471 66.6986 41.7375 67.9689 41.7374C69.5586 41.7374 70.8129 42.3493 71.7317 43.5731L72.7961 42.9097C72.5029 42.4073 72.1154 41.9666 71.6549 41.6122ZM92.2958 40.7376V42.6596C91.7717 41.9291 91.163 41.3813 90.4696 41.0161C89.7762 40.6509 89.0013 40.4683 88.1449 40.4683C86.6619 40.4683 85.3933 41.0033 84.3391 42.0733C83.2849 43.1433 82.7577 44.4312 82.7574 45.9369C82.7574 47.4746 83.2799 48.7801 84.3247 49.8533C85.3696 50.9266 86.6301 51.4632 88.1062 51.4632C88.9014 51.4713 89.6874 51.2936 90.4022 50.9441C91.1023 50.5982 91.7334 50.0824 92.2958 49.3968V51.1941H93.6185V40.7373H92.2958V40.7376ZM91.1896 42.985C91.9845 43.7979 92.3819 44.8091 92.3819 46.0186C92.3819 46.8122 92.2047 47.5258 91.8503 48.1594C91.4948 48.7941 90.9692 49.3162 90.333 49.6666C89.6976 50.0319 88.9778 50.224 88.2454 50.2235C87.5257 50.2257 86.8189 50.0316 86.2008 49.6619C85.5636 49.2849 85.0395 48.7427 84.6835 48.0923C84.3144 47.4501 84.1196 46.7221 84.1188 45.9809C84.1179 45.2397 84.3109 44.5112 84.6785 43.8682C85.0304 43.227 85.5486 42.693 86.1782 42.3229C86.8079 41.9527 87.5256 41.7602 88.2554 41.7656C89.4165 41.7659 90.3945 42.1724 91.1896 42.985ZM104.51 55.0192H105.852V49.3971C106.414 50.0827 107.042 50.5985 107.738 50.9444C108.45 51.2942 109.234 51.472 110.027 51.4634C111.502 51.4634 112.761 50.9268 113.805 49.8536C114.849 48.7804 115.371 47.4749 115.371 45.9371C115.371 44.4316 114.844 43.1437 113.79 42.0736C112.737 41.0034 111.469 40.4684 109.989 40.4686C109.186 40.4574 108.393 40.6456 107.681 41.0164C106.991 41.3816 106.382 41.9294 105.852 42.6599V40.7376H104.51V55.0194V55.0192ZM111.943 42.3178C112.577 42.6878 113.098 43.2238 113.45 43.8683C113.817 44.5114 114.01 45.2399 114.009 45.981C114.008 46.7221 113.814 47.4501 113.445 48.0923C113.09 48.7428 112.566 49.2851 111.929 49.6619C111.315 50.0308 110.613 50.2249 109.897 50.2236C109.164 50.2235 108.444 50.0316 107.807 49.6666C107.17 49.3174 106.643 48.7951 106.287 48.1595C105.933 47.5259 105.756 46.8123 105.756 46.0187C105.756 44.8092 106.153 43.798 106.946 42.9851C107.74 42.1722 108.717 41.7658 109.878 41.7659C110.603 41.7604 111.317 41.9512 111.943 42.3181V42.3178ZM125.427 36.7585C125.322 36.8607 125.239 36.9834 125.183 37.1189C125.128 37.2544 125.1 37.4 125.102 37.5466C125.102 37.8399 125.218 38.1211 125.425 38.3285C125.632 38.5358 125.912 38.6523 126.205 38.6523C126.497 38.6523 126.778 38.5358 126.984 38.3285C127.191 38.1211 127.307 37.8399 127.307 37.5466C127.307 37.2516 127.191 36.9686 126.983 36.7596C126.776 36.5506 126.494 36.4327 126.2 36.4317C126.055 36.4302 125.912 36.4585 125.779 36.5147C125.646 36.5709 125.526 36.6539 125.427 36.7585ZM125.533 51.1941H126.875V40.7373H125.533V51.1941ZM138.687 40.7373H136.856V41.9002H138.687V51.1943H140.029V41.9006H142.158V40.7376H140.029V36.8548H138.687V40.7376V40.7373ZM161.091 40.7373V42.6596C160.567 41.9291 159.959 41.3813 159.265 41.0161C158.572 40.6509 157.797 40.4683 156.94 40.4683C155.458 40.4683 154.19 41.0033 153.135 42.0733C152.081 43.1433 151.554 44.4312 151.554 45.9369C151.554 47.4746 152.076 48.7801 153.121 49.8533C154.166 50.9266 155.426 51.4632 156.902 51.4632C157.698 51.4712 158.484 51.2935 159.198 50.9441C159.898 50.5982 160.529 50.0824 161.091 49.3968V51.1941H162.414V40.7373H161.091ZM159.986 42.985C160.781 43.7979 161.178 44.8091 161.177 46.0186C161.189 46.7664 161.006 47.5042 160.647 48.1594C160.291 48.7942 159.765 49.3164 159.129 49.6666C158.493 50.0318 157.774 50.2239 157.042 50.2235C156.322 50.2258 155.615 50.0317 154.997 49.6619C154.36 49.2852 153.835 48.7429 153.48 48.0923C153.111 47.4501 152.916 46.7221 152.915 45.9809C152.914 45.2397 153.107 44.5112 153.475 43.8682C153.826 43.2269 154.344 42.6929 154.974 42.3227C155.604 41.9526 156.321 41.7601 157.051 41.7656C158.213 41.7659 159.191 42.1724 159.986 42.985ZM173.085 51.1943H174.427V36.7012H173.085V51.1943Z" fill="#2F2E2E"/>
</svg>
