<svg width="224" height="60" viewBox="0 0 224 60" fill="none" xmlns="http://www.w3.org/2000/svg">
<path d="M6.80282 23.1996C10.5599 23.1996 13.6056 20.1551 13.6056 16.3996C13.6056 12.6441 10.5599 9.59961 6.80282 9.59961C3.04573 9.59961 0 12.6441 0 16.3996C0 20.1551 3.04573 23.1996 6.80282 23.1996Z" fill="#0ABE98"/>
<path d="M6.80282 36.8002C10.5599 36.8002 13.6056 33.7557 13.6056 30.0002C13.6056 26.2447 10.5599 23.2002 6.80282 23.2002C3.04573 23.2002 0 26.2447 0 30.0002C0 33.7557 3.04573 36.8002 6.80282 36.8002Z" fill="#079270"/>
<path d="M6.80282 50.3998C10.5599 50.3998 13.6056 47.3553 13.6056 43.5998C13.6056 39.8443 10.5599 36.7998 6.80282 36.7998C3.04573 36.7998 0 39.8443 0 43.5998C0 47.3553 3.04573 50.3998 6.80282 50.3998Z" fill="#046A51"/>
<path d="M20.3511 23.1996C24.1082 23.1996 27.1539 20.1551 27.1539 16.3996C27.1539 12.6441 24.1082 9.59961 20.3511 9.59961C16.594 9.59961 13.5483 12.6441 13.5483 16.3996C13.5483 20.1551 16.594 23.1996 20.3511 23.1996Z" fill="#28F3C8"/>
<path d="M20.3519 36.8002C24.109 36.8002 27.1547 33.7557 27.1547 30.0002C27.1547 26.2447 24.109 23.2002 20.3519 23.2002C16.5948 23.2002 13.5491 26.2447 13.5491 30.0002C13.5491 33.7557 16.5948 36.8002 20.3519 36.8002Z" fill="#0ABE98"/>
<path d="M20.3511 50.3998C24.1082 50.3998 27.1539 47.3553 27.1539 43.5998C27.1539 39.8443 24.1082 36.7998 20.3511 36.7998C16.594 36.7998 13.5483 39.8443 13.5483 43.5998C13.5483 47.3553 16.594 50.3998 20.3511 50.3998Z" fill="#079270"/>
<path d="M33.9002 23.1996C37.6573 23.1996 40.703 20.1551 40.703 16.3996C40.703 12.6441 37.6573 9.59961 33.9002 9.59961C30.1431 9.59961 27.0974 12.6441 27.0974 16.3996C27.0974 20.1551 30.1431 23.1996 33.9002 23.1996Z" fill="#7DFFE0"/>
<path d="M33.9002 36.8002C37.6573 36.8002 40.703 33.7557 40.703 30.0002C40.703 26.2447 37.6573 23.2002 33.9002 23.2002C30.1431 23.2002 27.0974 26.2447 27.0974 30.0002C27.0974 33.7557 30.1431 36.8002 33.9002 36.8002Z" fill="#28F3C8"/>
<path d="M33.9002 50.3998C37.6573 50.3998 40.703 47.3553 40.703 43.5998C40.703 39.8443 37.6573 36.7998 33.9002 36.7998C30.1431 36.7998 27.0974 39.8443 27.0974 43.5998C27.0974 47.3553 30.1431 50.3998 33.9002 50.3998Z" fill="#0ABE98"/>
<path d="M61.0335 46.0086C67.3119 46.0086 71.6443 42.9622 71.6443 38.0015C71.6443 34.3299 68.4128 31.5957 64.4583 31.2442V30.8926C67.414 30.4434 70.1968 27.8264 70.1968 24.8579C70.1968 20.5223 66.3335 17.8271 60.7482 17.8271H48.7064V46.0086H61.0335ZM54.2156 21.7526H59.464C62.6438 21.7526 64.7488 23.2174 64.7488 25.7367C64.7488 28.3147 62.5218 29.7013 58.7913 29.7013H54.2156V21.7526ZM54.2156 42.0834V33.2753H59.6269C63.6427 33.2753 66.0126 34.7791 66.0126 37.65C66.0126 40.5402 63.7039 42.0834 59.831 42.0834H54.2156Z" fill="#0C0C3D"/>
<path d="M74.3667 26.4059H79.5498C79.5498 23.4373 81.3382 21.1667 84.5385 21.1667C87.6167 21.1667 89.4511 23.1392 89.4511 25.6976C89.4511 27.8459 88.5543 29.1935 84.8442 32.787L74.652 42.6106V46.0086H95.3273V41.8294H81.7864V41.4974L88.3558 35.5407C93.4109 30.7949 94.8992 28.5099 94.8992 25.2289C94.8992 20.5417 90.674 17.124 84.8238 17.124C78.6883 17.124 74.3667 21.0742 74.3667 26.4059Z" fill="#0C0C3D"/>
<path d="M112.406 46.0086C118.684 46.0086 123.016 42.9622 123.016 38.0015C123.016 34.3299 119.785 31.5957 115.83 31.2442V30.8926C118.786 30.4434 121.569 27.8264 121.569 24.8579C121.569 20.5223 117.705 17.8271 112.12 17.8271H100.078V46.0086H112.406ZM105.588 21.7526H110.836C114.016 21.7526 116.121 23.2174 116.121 25.7367C116.121 28.3147 113.894 29.7013 110.163 29.7013H105.588V21.7526ZM105.588 42.0834V33.2753H110.999C115.015 33.2753 117.385 34.7791 117.385 37.65C117.385 40.5402 115.076 42.0834 111.203 42.0834H105.588Z" fill="#0C0C3D"/>
<path d="M126.294 46.0081H131.35V33.6068C131.35 30.5991 133.383 28.8857 136.665 28.8857C137.521 28.8857 138.866 29.0224 139.254 29.1591L140.254 24.5058C139.785 24.3887 137.888 24.3105 137.154 24.3105C134.28 24.3105 131.875 25.8729 131.263 27.9821H131.166V24.4226H126.294V46.0081Z" fill="#0C0C3D"/>
<path d="M150.793 46.4381C157.458 46.4381 161.765 42.2585 161.765 35.3254C161.765 28.4314 157.438 24.252 150.793 24.252C144.168 24.252 139.821 28.4509 139.821 35.3254C139.821 42.2585 144.107 46.4381 150.793 46.4381ZM150.793 42.2337C147.266 42.2337 144.998 39.8564 144.998 35.345C144.998 30.8335 147.266 28.456 150.793 28.456C154.299 28.456 156.567 30.8335 156.567 35.345C156.567 39.8564 154.319 42.2337 150.793 42.2337Z" fill="#0C0C3D"/>
<path d="M170.547 33.4121H170.45V16.1621H165.395V46.0088H170.45V38.5095L171.994 37.0303L178.899 46.0088H185.515L176.015 33.8223L184.903 24.6627H179.032L170.547 33.4121Z" fill="#0C0C3D"/>
<path d="M200.799 39.6898C200.065 41.2913 198.333 42.6685 195.825 42.6685C192.503 42.6685 190.612 40.4033 190.49 36.7902L190.24 36.5363H206.064V34.9934C206.064 28.2946 202.002 24.252 195.642 24.252C189.18 24.252 184.914 28.5681 184.914 35.4231C184.914 42.2585 189.119 46.4381 195.683 46.4381C200.942 46.4381 204.922 43.7765 205.84 39.9293L200.799 39.6898ZM195.622 28.0212C198.659 28.0212 200.656 30.0719 200.758 33.3138H190.51C190.735 30.1109 192.605 28.0212 195.622 28.0212Z" fill="#0C0C3D"/>
<path d="M209.47 46.0081H214.525V33.6068C214.525 30.5991 216.558 28.8857 219.84 28.8857C220.696 28.8857 222.041 29.0224 222.429 29.1591L223.429 24.5058C222.96 24.3887 221.063 24.3105 220.329 24.3105C217.455 24.3105 215.05 25.8729 214.438 27.9821H214.341V24.4226H209.47V46.0081Z" fill="#0C0C3D"/>
</svg>
