<svg width="178" height="60" viewBox="0 0 178 60" fill="none" xmlns="http://www.w3.org/2000/svg">
<path d="M29.0648 34.9825L29.1177 31.9693H31.3236V29.0311H26.1707V32.0928L23.5236 29.4458L20.7971 26.7237C20.4703 26.3415 20.2918 25.8545 20.2942 25.3516C20.2942 24.1334 21.2818 23.1458 22.5001 23.1458C23.7183 23.1458 24.7059 24.1334 24.7059 25.3516H27.6486C27.6486 22.5082 25.3435 20.2031 22.5001 20.2031C19.6566 20.2031 17.3515 22.5082 17.3515 25.3516C17.3416 26.5363 17.7599 27.6847 18.5295 28.5855L18.6354 28.6913L18.7015 28.7708C16.6876 30.2147 15.6491 32.663 16.0107 35.1146C16.3724 37.5662 18.0734 39.6103 20.4186 40.4113C22.7637 41.2123 25.3598 40.636 27.1457 38.9178C27.4261 38.6346 27.6815 38.3275 27.9089 38.0002L30.7677 40.8546C25.2062 45.2955 17.1284 44.5432 12.4826 39.1516C7.83682 33.7601 8.28653 25.6598 13.5006 20.8156C18.7147 15.9715 26.8261 16.118 31.8618 21.1472L33.9442 19.0649C27.625 12.7507 17.384 12.7535 11.0682 19.071C4.75234 25.3885 4.75234 35.6295 11.0682 41.947C17.384 48.2645 27.625 48.2673 33.9442 41.9531L34.9854 40.9119L29.0648 34.9825ZM25.0942 36.8046C24.0391 37.8409 22.465 38.1428 21.1014 37.5703C19.7377 36.9979 18.8508 35.6629 18.8515 34.184C18.8597 32.8219 19.6179 31.5751 20.8236 30.9413C21.0309 31.1399 21.2383 31.3428 21.4589 31.5634L25.7736 35.8737C25.5894 36.2185 25.3528 36.5325 25.0721 36.8046H25.0942Z" fill="#171C8F"/>
<path d="M35.7354 29.0308V31.969H41.5721C40.8796 40.9301 34.0422 48.2006 25.1405 49.4414C16.2388 50.6822 7.67376 45.5587 4.55711 37.1286C1.44046 28.6985 4.61281 19.2356 12.1808 14.3874C19.7489 9.5393 29.6714 10.6135 36.0265 16.969L38.1045 14.8911C30.6589 7.43075 18.9798 6.2699 10.2114 12.1187C1.44303 17.9674 -1.97178 29.1963 2.05588 38.9365C6.08354 48.6766 16.4316 54.2144 26.7699 52.1624C37.1083 50.1103 44.5567 41.04 44.5589 30.4999V29.0308H35.7354Z" fill="#171C8F"/>
<path d="M70.5883 29.0933V36.3815C69.6971 37.4655 68.5617 38.3228 67.2751 38.883C65.9096 39.4801 64.433 39.7808 62.9427 39.7653C61.2101 39.7974 59.5002 39.3681 57.9883 38.5212C56.5627 37.7091 55.3899 36.518 54.6001 35.08C53.7788 33.5784 53.3593 31.89 53.3824 30.1786C53.3576 28.4856 53.7677 26.8147 54.5736 25.3256C55.357 23.8922 56.5242 22.7052 57.9442 21.8977C59.4866 21.0376 61.2301 20.6037 62.9956 20.6403C65.6802 20.5773 68.267 21.6489 70.1206 23.5918L68.3559 25.705C67.6628 25.0087 66.8459 24.4476 65.9471 24.0506C65.0404 23.6802 64.0676 23.4985 63.0883 23.5168C61.8942 23.4887 60.7147 23.7829 59.6736 24.3683C58.7093 24.9254 57.9253 25.7477 57.4148 26.7374C56.867 27.8098 56.5927 29.001 56.6162 30.205C56.5871 31.4325 56.8711 32.6471 57.4412 33.7344C57.9753 34.7272 58.784 35.5451 59.7706 36.0903C60.8199 36.6616 61.9997 36.9504 63.1942 36.9286C64.8817 36.9891 66.5194 36.3506 67.7206 35.1639V31.7491H62.8059V29.1021L70.5883 29.0933Z" fill="#171C8F"/>
<path d="M82.3765 28.608C83.3589 29.6698 83.85 31.1139 83.85 32.9404C83.85 33.2271 83.8147 33.6992 83.7442 34.3477H75.075C75.2136 35.2268 75.6881 36.0177 76.3986 36.5536C77.1365 37.0786 78.0257 37.3481 78.9309 37.3213C79.5312 37.3319 80.1286 37.2363 80.6956 37.0389C81.2188 36.8449 81.7019 36.5563 82.1206 36.1874L83.3824 38.0845C82.7188 38.6196 81.9742 39.0455 81.1765 39.3463C80.3695 39.641 79.5166 39.7904 78.6574 39.7874C77.4728 39.8122 76.3017 39.5327 75.2559 38.9757C74.2841 38.4441 73.4838 37.6469 72.9486 36.6771C72.389 35.6573 72.1046 34.5094 72.1236 33.3463C72.1118 32.2265 72.3867 31.1224 72.9221 30.1389C73.4365 29.19 74.1989 28.3986 75.128 27.8492C76.1003 27.2812 77.2094 26.9898 78.3353 27.0066C79.8516 26.9249 81.3278 27.5099 82.3765 28.608ZM76.2 30.1918C75.5906 30.762 75.1898 31.5201 75.0618 32.3448H81.0486C81.0688 31.5448 80.7778 30.7682 80.2368 30.1786C79.7186 29.6686 79.0134 29.3942 78.2868 29.4198C77.523 29.4062 76.7822 29.682 76.2133 30.1918H76.2Z" fill="#171C8F"/>
<path d="M93.8207 27.5758L93.0618 30.0596C92.5578 29.8798 92.0264 29.7887 91.4913 29.7905C90.7123 29.7549 89.9546 30.0497 89.4045 30.6023C88.8604 31.2042 88.5779 31.9978 88.6192 32.8082V39.4126H85.6677V27.3332H87.6707L88.2398 29.0979C88.553 28.4636 89.0414 27.9323 89.6471 27.567C90.2828 27.2074 91.0037 27.0261 91.7339 27.042C92.4644 27.0328 93.1843 27.217 93.8207 27.5758Z" fill="#171C8F"/>
<path d="M96.8119 39.0192C95.8514 38.5113 95.0498 37.7479 94.4957 36.8134C93.8831 35.7676 93.5773 34.5704 93.6133 33.3589C93.5869 32.1791 93.8812 31.0141 94.4648 29.9884C95.0143 29.0501 95.8171 28.2856 96.781 27.7825C97.7661 27.2666 98.8631 27.0014 99.9751 27.0104C101.624 26.9738 103.227 27.5544 104.471 28.6384L103.037 30.6148C102.256 29.919 101.237 29.5509 100.191 29.5869C99.2267 29.5625 98.2952 29.9395 97.6192 30.6281C96.9179 31.3669 96.5469 32.3589 96.5913 33.3766C96.5407 34.3967 96.907 35.3936 97.606 36.1384C98.2723 36.8209 99.1937 37.1936 100.147 37.1663C100.722 37.1759 101.292 37.074 101.828 36.8663C102.353 36.6417 102.83 36.3199 103.235 35.9178L104.727 37.8942C104.088 38.5016 103.343 38.9862 102.53 39.3237C101.666 39.6377 100.752 39.7874 99.8339 39.7648C98.7805 39.7689 97.7425 39.5128 96.8119 39.0192Z" fill="#171C8F"/>
<path d="M115.853 28.2945C116.585 29.1415 116.952 30.318 116.952 31.8239V39.4121H113.996V32.0753C114.029 31.4462 113.849 30.8242 113.484 30.3106C113.088 29.865 112.507 29.63 111.913 29.6753C111.075 29.6366 110.271 30.0107 109.76 30.6768C109.223 31.3996 108.945 32.2824 108.971 33.1827V39.4121H106.019V19.9121H108.971V27.1165C108.971 27.8577 108.962 28.4709 108.944 28.9562C109.733 27.678 111.155 26.9307 112.654 27.0062C114.062 27.0062 115.121 27.4342 115.853 28.2945Z" fill="#171C8F"/>
<path d="M119.616 24.3235C118.951 23.6154 118.951 22.5124 119.616 21.8043C119.971 21.4638 120.449 21.2822 120.94 21.3014C121.434 21.2804 121.914 21.4677 122.263 21.8176C122.595 22.1564 122.776 22.6143 122.766 23.0882C122.776 23.5543 122.588 24.0028 122.25 24.3235C121.485 24.9889 120.346 24.9889 119.581 24.3235H119.616ZM119.466 27.3411H122.422V39.4117H119.466V27.3411Z" fill="#171C8F"/>
<path d="M135.772 39.2489V39.4121H132.353L128.016 34.268V39.4121H125.074V19.9121H128.025V32.1283L132.035 27.3327H135.366V27.4695L130.588 33.1827L135.772 39.2489Z" fill="#171C8F"/>
<path d="M138.499 39.2622C138.102 39.0859 137.762 38.8015 137.519 38.4416C137.299 38.0948 137.185 37.6918 137.188 37.2813C137.183 36.7458 137.337 36.2208 137.63 35.7724C137.986 35.2543 138.453 34.8218 138.997 34.5063C138.705 34.1836 138.457 33.823 138.26 33.4342C138.097 33.1113 138.011 32.7549 138.009 32.393C138.004 31.9802 138.117 31.5745 138.335 31.2239C138.559 30.8586 138.88 30.5623 139.262 30.368C139.691 30.15 140.166 30.0409 140.647 30.0504C141.071 30.0414 141.491 30.1369 141.869 30.3283C142.554 30.6764 142.983 31.3821 142.977 32.1504C142.979 32.6663 142.787 33.1642 142.438 33.5445C141.995 34.015 141.483 34.4165 140.921 34.7357L142.685 36.5489C142.848 36.2343 142.975 35.9029 143.065 35.5607C143.15 35.2467 143.201 34.9241 143.215 34.5989H144.582C144.569 35.1146 144.481 35.6257 144.322 36.1166C144.173 36.627 143.95 37.1129 143.66 37.5592L145.257 39.2622L143.877 39.5754L142.835 38.4636C142.465 38.8047 142.038 39.078 141.574 39.271C141.089 39.4754 140.568 39.579 140.043 39.5754C139.511 39.5876 138.983 39.4806 138.499 39.2622ZM141.913 37.4974L139.91 35.468C139.558 35.6498 139.255 35.9148 139.028 36.2401C138.839 36.5045 138.735 36.8197 138.728 37.1445C138.726 37.4571 138.866 37.7537 139.107 37.9519C139.395 38.1839 139.758 38.3017 140.127 38.2827C140.806 38.2645 141.45 37.9735 141.913 37.4754V37.4974ZM141.23 33.0504C141.469 32.8397 141.604 32.5352 141.6 32.2166C141.6 31.9828 141.499 31.7606 141.322 31.6077C141.119 31.4294 140.855 31.3375 140.585 31.3519C140.277 31.3348 139.976 31.4448 139.752 31.6563C139.551 31.8538 139.441 32.1251 139.447 32.4063C139.448 32.6381 139.504 32.8664 139.61 33.0724C139.751 33.3357 139.925 33.5802 140.127 33.8004C140.523 33.5868 140.893 33.3277 141.23 33.0283V33.0504Z" fill="#171C8F"/>
<path d="M150.816 38.4946C149.405 37.6671 148.248 36.4675 147.472 35.0269C146.671 33.5361 146.261 31.8664 146.281 30.174C146.252 28.4603 146.677 26.7694 147.512 25.2725C148.31 23.8482 149.486 22.6714 150.909 21.871C152.416 21.0347 154.117 20.6102 155.841 20.6402C157.116 20.6196 158.384 20.8396 159.578 21.2887C160.769 21.7719 161.859 22.472 162.794 23.3534L161.144 25.5196C159.735 24.207 157.868 23.4976 155.943 23.5431C154.784 23.5198 153.641 23.8143 152.638 24.3946C151.686 24.9572 150.909 25.7727 150.393 26.7504C149.829 27.8041 149.542 28.9836 149.559 30.1784C149.544 31.3579 149.815 32.5233 150.349 33.5754C150.845 34.5692 151.609 35.4049 152.554 35.9887C153.537 36.5861 154.669 36.8921 155.819 36.871C156.877 36.8891 157.924 36.6579 158.876 36.196C159.782 35.7412 160.571 35.0829 161.179 34.2725L163.182 36.3284C162.321 37.4187 161.219 38.2946 159.962 38.8872C158.645 39.49 157.21 39.7915 155.762 39.7696C154.028 39.802 152.318 39.3612 150.816 38.4946Z" fill="#171C8F"/>
<path d="M167.065 38.9534C166.098 38.4283 165.301 37.6387 164.766 36.677C163.652 34.6117 163.652 32.1246 164.766 30.0593C165.303 29.1035 166.1 28.3201 167.065 27.8005C168.093 27.2461 169.246 26.965 170.413 26.9843C171.584 26.9667 172.739 27.2476 173.771 27.8005C174.742 28.3182 175.545 29.1017 176.087 30.0593C177.195 32.126 177.195 34.6103 176.087 36.677C175.547 37.6405 174.743 38.4302 173.771 38.9534C172.739 39.5048 171.583 39.7842 170.413 39.7652C169.246 39.7859 168.093 39.5063 167.065 38.9534ZM172.941 36.0946C173.602 35.346 173.947 34.3702 173.903 33.3726C173.946 32.375 173.601 31.3996 172.941 30.6505C172.272 29.9799 171.363 29.6031 170.416 29.6031C169.468 29.6031 168.559 29.9799 167.89 30.6505C167.225 31.3925 166.876 32.364 166.915 33.3593C166.875 34.3548 167.224 35.3266 167.89 36.0682C168.558 36.742 169.467 37.121 170.416 37.121C171.364 37.121 172.274 36.742 172.941 36.0682V36.0946Z" fill="#171C8F"/>
<path d="M57.2251 48.8577C57.2251 49.7047 56.5677 50.2474 55.6236 50.2474H53.3824V45.165H55.4824C56.4089 45.165 57.0398 45.6945 57.0398 46.4886C57.0515 46.9416 56.8168 47.3655 56.4266 47.5959C56.9272 47.8119 57.2442 48.3128 57.2251 48.8577ZM54.4722 47.2297H55.2663C55.4398 47.2537 55.615 47.1989 55.744 47.0802C55.8729 46.9615 55.942 46.7915 55.9324 46.6165C55.9324 46.2547 55.6722 46.0297 55.2574 46.0297H54.4722V47.2297ZM56.1177 48.7297C56.1237 48.5481 56.0511 48.3727 55.9184 48.2485C55.7857 48.1243 55.6059 48.0633 55.4251 48.0812H54.4722V49.4047H55.4074C55.5956 49.4276 55.7842 49.3652 55.9216 49.2346C56.0591 49.104 56.131 48.9189 56.1177 48.7297Z" fill="#171C8F"/>
<path d="M64.6854 50.2253V50.2474H63.4369L62.378 48.4297H61.8001V50.2474H60.6927V45.165H62.7354C63.8119 45.165 64.531 45.8577 64.531 46.793C64.5313 47.4729 64.0928 48.0754 63.4457 48.2842L64.6854 50.2253ZM62.6075 47.543C62.8132 47.5699 63.0206 47.506 63.1755 47.368C63.3305 47.23 63.4178 47.0314 63.4148 46.8239C63.4163 46.623 63.3347 46.4304 63.1894 46.2917C63.044 46.153 62.8478 46.0805 62.6472 46.0915H61.8222V47.543H62.6075Z" fill="#171C8F"/>
<path d="M67.7162 47.7061C67.6983 46.6138 68.3425 45.619 69.3466 45.1885C70.3507 44.758 71.5154 44.9773 72.2942 45.7433C73.0731 46.5094 73.3115 47.6703 72.8977 48.6814C72.4839 49.6924 71.4999 50.353 70.4074 50.3531C69.6906 50.3907 68.9909 50.1255 68.4791 49.6221C67.9673 49.1187 67.6905 48.4235 67.7162 47.7061ZM71.9604 47.7061C71.991 47.1307 71.7015 46.5854 71.2077 46.2885C70.7139 45.9916 70.0965 45.9916 69.6027 46.2885C69.1089 46.5854 68.8194 47.1307 68.8501 47.7061C68.8194 48.2814 69.1089 48.8267 69.6027 49.1236C70.0965 49.4205 70.7139 49.4205 71.2077 49.1236C71.7015 48.8267 71.991 48.2814 71.9604 47.7061Z" fill="#171C8F"/>
<path d="M80.6472 50.2165V50.2474H79.4119L77.7266 48.0415V50.2474H76.6237V45.165H77.7266V47.3709L79.284 45.165H80.4972V45.1959L78.7325 47.6709L80.6472 50.2165Z" fill="#171C8F"/>
<path d="M87.2383 49.29V50.2474H83.8854V45.165H87.1677V46.1224H84.9927V47.2121H86.9118V48.1474H85.0104V49.2989L87.2383 49.29Z" fill="#171C8F"/>
<path d="M94.7339 50.2253V50.2474H93.4853L92.4221 48.4297H91.8486V50.2474H90.7412V45.165H92.7839C93.8603 45.165 94.5794 45.8577 94.5794 46.793C94.5783 47.4725 94.1404 48.0742 93.4942 48.2842L94.7339 50.2253ZM92.6471 47.543C92.8543 47.5727 93.0641 47.5102 93.2211 47.3718C93.3782 47.2334 93.4667 47.0331 93.4633 46.8239C93.464 46.6184 93.3784 46.4222 93.2274 46.2829C93.0764 46.1436 92.8738 46.0742 92.6692 46.0915H91.8486V47.543H92.6471Z" fill="#171C8F"/>
<path d="M102.732 50.2253V50.2474H101.581L101.232 49.4709H99.0927L98.7397 50.2695H97.5839V50.2474L99.9971 45.165H100.328L102.732 50.2253ZM99.803 47.7812L99.4236 48.6327H100.902L100.522 47.7812C100.403 47.4989 100.284 47.2342 100.16 46.8592C100.057 47.1724 99.9377 47.4801 99.803 47.7812Z" fill="#171C8F"/>
<path d="M110.294 47.3267V49.4709C109.742 50.0628 108.959 50.3849 108.15 50.3532C106.688 50.3435 105.511 49.1504 105.521 47.6885C105.53 46.2266 106.723 45.0494 108.185 45.0591C108.927 45.0449 109.643 45.3277 110.175 45.8444L109.606 46.5856C109.244 46.2234 108.75 46.0256 108.238 46.0385C107.504 46.049 106.863 46.5374 106.657 47.2424C106.452 47.9474 106.73 48.704 107.344 49.1075C107.957 49.5109 108.762 49.4669 109.328 48.9988V48.2091H108.088V47.3267H110.294Z" fill="#171C8F"/>
<path d="M117.185 49.29V50.2474H113.824V45.165H117.106V46.1224H114.931V47.2121H116.828V48.1474H114.931V49.2989L117.185 49.29Z" fill="#171C8F"/>
<path d="M124.791 49.7264L125.294 48.8793C125.684 49.2024 126.173 49.3815 126.679 49.3866C127.121 49.3866 127.496 49.2014 127.496 48.8484C127.496 48.4955 127.032 48.2837 126.477 48.1028C125.563 47.8161 124.972 47.3087 124.972 46.5322C124.972 45.5881 125.788 45.0587 126.768 45.0587C127.376 45.0534 127.972 45.2335 128.475 45.5749L128.003 46.3822C127.65 46.1451 127.237 46.0149 126.812 46.0072C126.402 46.0072 126.088 46.1705 126.088 46.4484C126.088 46.8234 126.565 46.9955 127.037 47.1499C127.954 47.4411 128.599 47.8999 128.599 48.7602C128.599 49.7308 127.782 50.3219 126.724 50.3219C126.033 50.3338 125.356 50.1252 124.791 49.7264Z" fill="#171C8F"/>
<path d="M135.38 49.29V50.2474H132.031V45.165H135.313V46.1224H133.138V47.2121H135.035V48.1474H133.138V49.2989L135.38 49.29Z" fill="#171C8F"/>
<path d="M142.88 50.2253V50.2474H141.618L140.555 48.4297H139.981V50.2474H138.874V45.165H140.916C141.993 45.165 142.707 45.8577 142.707 46.793C142.708 47.4717 142.272 48.0738 141.627 48.2842L142.88 50.2253ZM140.802 47.543C141.009 47.5727 141.219 47.5102 141.376 47.3718C141.533 47.2334 141.621 47.0331 141.618 46.8239C141.619 46.6184 141.533 46.4222 141.382 46.2829C141.231 46.1436 141.028 46.0742 140.824 46.0915H140.003V47.543H140.802Z" fill="#171C8F"/>
<path d="M150.684 45.1646L148.262 50.2558H147.931L145.509 45.1734V45.1514H146.731L147.821 47.5514C147.927 47.7874 148.022 48.0289 148.103 48.2749C148.196 48.0146 148.302 47.7587 148.394 47.5425L149.479 45.1514L150.684 45.1646Z" fill="#171C8F"/>
<path d="M153.913 45.165H155.021V50.2474H153.913V45.165Z" fill="#171C8F"/>
<path d="M158.528 47.7059C158.505 46.9925 158.781 46.3019 159.288 45.7997C159.795 45.2975 160.488 45.0291 161.202 45.0589C161.909 45.0376 162.598 45.2887 163.125 45.7604L162.578 46.5412C162.216 46.2151 161.742 46.0398 161.255 46.0515C160.386 46.1023 159.704 46.8155 159.693 47.6854C159.681 48.5554 160.344 49.2864 161.21 49.3604C161.746 49.3775 162.258 49.1403 162.591 48.7206L163.235 49.4706C162.705 50.0541 161.946 50.3765 161.158 50.353C160.451 50.3742 159.767 50.1016 159.269 49.5999C158.77 49.0983 158.502 48.4125 158.528 47.7059Z" fill="#171C8F"/>
<path d="M169.928 49.29V50.2474H166.579V45.165H169.853V46.1224H167.678V47.2121H169.575V48.1474H167.678V49.2989L169.928 49.29Z" fill="#171C8F"/>
<path d="M173.104 49.7264L173.599 48.8793C173.988 49.2024 174.478 49.3816 174.984 49.3867C175.425 49.3867 175.796 49.2014 175.796 48.8484C175.796 48.4955 175.332 48.2837 174.781 48.1028C173.868 47.8161 173.277 47.3087 173.277 46.5323C173.277 45.5881 174.093 45.0587 175.072 45.0587C175.679 45.0529 176.273 45.2331 176.775 45.5749L176.312 46.3823C175.961 46.1446 175.549 46.0142 175.125 46.0073C174.715 46.0073 174.397 46.1705 174.397 46.4484C174.397 46.8234 174.878 46.9955 175.35 47.1499C176.268 47.4411 176.912 47.8999 176.912 48.7602C176.912 49.7308 176.096 50.322 175.037 50.322C174.346 50.3339 173.669 50.1252 173.104 49.7264Z" fill="#171C8F"/>
</svg>
