<svg width="204" height="60" viewBox="0 0 204 60" fill="none" xmlns="http://www.w3.org/2000/svg">
<g clip-path="url(#clip0_1446_2558)">
<path fill-rule="evenodd" clip-rule="evenodd" d="M44.1596 28.5673C44.1596 40.8304 34.2747 50.7718 22.0799 50.7718C9.8854 50.7718 -0.000167847 40.8304 -0.000167847 28.5673C-0.000167847 16.3041 9.8854 6.3623 22.0799 6.3623C34.2747 6.3623 44.1596 16.3041 44.1596 28.5673Z" fill="#FF7803"/>
<path fill-rule="evenodd" clip-rule="evenodd" d="M15.1797 37.9581C15.1797 39.5744 13.9437 40.8839 12.4194 40.8839C10.8956 40.8839 9.65976 39.5744 9.65976 37.9581V27.1571C9.65976 25.5402 10.8956 24.2305 12.4194 24.2305C13.9437 24.2305 15.1797 25.5402 15.1797 27.1571V37.9581Z" fill="white"/>
<path fill-rule="evenodd" clip-rule="evenodd" d="M34.4995 37.9313C34.4995 39.5627 33.2639 40.8845 31.7394 40.8845C30.2151 40.8845 28.9795 39.5627 28.9795 37.9313V18.8578C28.9795 17.2264 30.2151 15.9043 31.7394 15.9043C33.2639 15.9043 34.4995 17.2264 34.4995 18.8578V37.9313Z" fill="white"/>
<path fill-rule="evenodd" clip-rule="evenodd" d="M24.8396 38.1553C24.8396 39.662 23.6039 40.8842 22.0795 40.8842C20.5551 40.8842 19.3196 39.662 19.3196 38.1553V22.7963C19.3196 21.2894 20.5551 20.0674 22.0795 20.0674C23.6039 20.0674 24.8396 21.2894 24.8396 22.7963V38.1553Z" fill="white"/>
<path fill-rule="evenodd" clip-rule="evenodd" d="M61.6306 13H67.4429V17.782H61.6306V13ZM69.9435 37.5196C68.2203 38.0968 65.2128 38.4357 63.2192 38.4357H61.6306V24.2593C60.6845 24.3953 59.8059 24.5987 59.1303 24.8018V20.8004C60.8875 20.2239 63.8947 19.8844 65.8546 19.8844H67.4429V34.0605C68.3893 33.9251 69.2678 33.7562 69.9435 33.5178V37.5196Z" fill="black"/>
<path fill-rule="evenodd" clip-rule="evenodd" d="M82.8178 31.6872V24.6664H80.6889C77.7832 24.6664 76.2284 25.9892 76.2284 28.9059V31.5515C76.2284 33.0095 76.8709 33.6539 78.3239 33.6539C79.3715 33.6539 80.6889 33.0095 81.7709 32.3314L82.8178 31.6872ZM82.8178 35.9264L81.5001 36.8423C79.811 37.9949 78.3239 38.7071 76.33 38.7071C72.512 38.7071 70.4165 36.4344 70.4165 32.6026V28.9059C70.4165 23.3442 74.6405 19.8848 80.1824 19.8848H88.6304V44.8119H82.8178V35.9264Z" fill="black"/>
<path fill-rule="evenodd" clip-rule="evenodd" d="M109.582 29.1769C109.582 25.8536 108.5 24.6664 105.864 24.6664C103.228 24.6664 102.181 25.8536 102.181 29.1769C102.181 32.4672 103.228 33.6539 105.864 33.6539C108.5 33.6539 109.582 32.4672 109.582 29.1769ZM96.3691 29.1769C96.3691 22.5301 99.8154 19.6133 105.864 19.6133C112.217 19.6133 115.394 22.5301 115.394 29.1769C115.394 36.2994 112.217 38.7071 105.864 38.7071C99.8154 38.7071 96.3691 36.2994 96.3691 29.1769Z" fill="black"/>
<path fill-rule="evenodd" clip-rule="evenodd" d="M123.605 26.6331V33.6536H125.768C128.64 33.6536 130.229 32.3314 130.229 29.4146V26.7692C130.229 25.3109 129.552 24.6665 128.099 24.6665C127.052 24.6665 125.768 25.3109 124.652 25.989L123.605 26.6331ZM115.292 20.8004C117.05 20.2239 120.057 19.8844 122.017 19.8844H123.605V22.3947L124.923 21.4781C126.613 20.2916 128.099 19.6133 130.094 19.6133C133.911 19.6133 136.007 21.8856 136.007 25.7178V29.4146C136.007 34.9761 131.783 38.4356 126.241 38.4356H123.605V44.8116H117.793V24.2592C116.847 24.3953 115.968 24.5988 115.292 24.8019V20.8004Z" fill="black"/>
<path fill-rule="evenodd" clip-rule="evenodd" d="M149.524 38.0275C148.273 38.4692 146.989 38.7066 145.772 38.7066C141.481 38.7066 138.44 36.4 138.44 31.551V24.6659H135.534V19.8839H138.44V15.1357H144.251V19.8839H148.983V24.6659H144.251V30.2281C144.251 32.9077 145.266 33.9245 147.158 33.9245C147.868 33.9245 148.646 33.6869 149.524 33.2804V38.0275Z" fill="black"/>
<path fill-rule="evenodd" clip-rule="evenodd" d="M150.605 13H156.418V17.782H150.605V13ZM158.918 37.5196C157.195 38.0968 154.186 38.4357 152.193 38.4357H150.605V24.6398C149.524 24.7076 148.983 24.6664 148.104 24.6664V19.8844C150.69 19.8683 152.869 19.8844 154.829 19.8844H156.418V34.0605C157.363 33.9251 158.242 33.7562 158.918 33.5178V37.5196Z" fill="black"/>
<path fill-rule="evenodd" clip-rule="evenodd" d="M172.062 29.1769C172.062 25.8536 170.981 24.6664 168.345 24.6664C165.711 24.6664 164.661 25.8536 164.661 29.1769C164.661 32.4672 165.711 33.6539 168.345 33.6539C170.981 33.6539 172.062 32.4672 172.062 29.1769ZM158.85 29.1769C158.85 22.5301 162.297 19.6133 168.345 19.6133C174.699 19.6133 177.875 22.5301 177.875 29.1769C177.875 36.2994 174.699 38.7071 168.345 38.7071C162.297 38.7071 158.85 36.2994 158.85 29.1769Z" fill="black"/>
<path fill-rule="evenodd" clip-rule="evenodd" d="M200.752 37.5199C198.995 38.0971 195.988 38.4356 194.029 38.4356H192.44V27.041C192.44 25.5821 192.169 24.6664 190.717 24.6664C189.668 24.6664 188.351 25.4805 187.134 26.2608L186.087 26.9052V38.4356H180.274V24.2595C179.328 24.3956 175.417 25.3599 174.743 25.563V21.5609C176.5 20.9845 182.538 19.8847 184.498 19.8847H186.087V22.6997L186.898 22.1568C188.992 20.6308 190.581 19.6133 192.947 19.6133C196.528 19.6133 198.251 21.8856 198.251 25.447V34.0605C199.163 33.9255 200.043 33.7562 200.752 33.5179V37.5199Z" fill="black"/>
</g>
<defs>
<clipPath id="clip0_1446_2558">
<rect width="202.105" height="48" fill="white" transform="translate(0 6)"/>
</clipPath>
</defs>
</svg>
