<svg width="240" height="60" viewBox="0 0 240 60" fill="none" xmlns="http://www.w3.org/2000/svg">
<path d="M70.5601 18.501H76.7393L81.7779 26.6866L86.8105 18.5161H92.9897V39.621H87.1725V27.486L81.7929 35.738H81.6693L76.3319 27.5464V39.615H70.5601V18.501Z" fill="#D7569F"/>
<path d="M101.856 23.6301H95.52V18.501H114.033V23.6301H107.697V39.621H101.856V23.6301Z" fill="#522D6D"/>
<path d="M117.12 18.5047H127.1C128.501 18.4704 129.898 18.6744 131.231 19.1081C132.262 19.4521 133.201 20.0292 133.973 20.7946C135.222 22.0014 135.841 23.6397 135.841 25.7095V25.7849C135.841 27.4111 135.452 28.7597 134.667 29.8217C133.856 30.9111 132.761 31.7565 131.502 32.2655L136.538 39.6209H129.783L125.535 33.2309H122.967V39.6209H117.12V18.5047ZM126.823 28.6359C127.825 28.6359 128.603 28.4097 129.146 27.9571C129.411 27.7373 129.622 27.4599 129.763 27.1463C129.904 26.8325 129.972 26.4907 129.961 26.1469V26.0865C129.986 25.7267 129.921 25.3663 129.774 25.0373C129.626 24.7082 129.399 24.4209 129.113 24.2009C128.422 23.7602 127.61 23.549 126.793 23.5974H122.961V28.6359H126.823Z" fill="#522D6D"/>
<path d="M147.006 18.501H152.609L161.537 39.6209H155.304L153.775 35.8767H145.681L144.182 39.6209H138.079L147.006 18.501ZM152.103 31.3919L149.764 25.4261L147.402 31.3859L152.103 31.3919Z" fill="#522D6D"/>
<path d="M164.252 18.5029H172.401C174.118 18.476 175.826 18.7351 177.457 19.2695C178.837 19.7284 180.109 20.4626 181.197 21.4276C182.209 22.3481 183.003 23.4822 183.521 24.7478C184.064 26.0833 184.336 27.5137 184.321 28.9553V29.0157C184.335 30.4649 184.056 31.9021 183.503 33.2415C182.974 34.5207 182.172 35.6685 181.152 36.6039C180.053 37.5933 178.764 38.3483 177.364 38.8223C175.728 39.3759 174.01 39.6453 172.284 39.6193H164.252V18.5029ZM172.495 34.4307C174.25 34.4307 175.658 33.9679 176.721 33.0423C177.783 32.1165 178.322 30.8047 178.339 29.1063V29.0429C178.339 27.3567 177.803 26.0487 176.733 25.1191C175.662 24.1894 174.254 23.7216 172.507 23.7156H170.114V34.4549L172.495 34.4307Z" fill="#522D6D"/>
<path d="M187.151 18.501H193.036V39.6209H187.151V18.501Z" fill="#522D6D"/>
<path d="M195.36 18.4561H200.834L209.542 29.6275V18.4561H215.306V39.5761H210.172L201.126 27.9909V39.5761H195.36V18.4561Z" fill="#522D6D"/>
<path d="M228.862 39.6185C227.364 39.6337 225.874 39.3739 224.468 38.8523C223.176 38.3685 221.992 37.6337 220.986 36.6899C219.992 35.7537 219.202 34.6237 218.664 33.3697C218.092 32.0269 217.806 30.5799 217.826 29.1207V29.0627C217.814 27.6705 218.08 26.2901 218.608 25.0021C219.138 23.714 219.916 22.544 220.902 21.5602C221.89 20.5886 223.064 19.8257 224.352 19.3167C225.738 18.768 227.216 18.4921 228.706 18.504C230.29 18.469 231.866 18.7349 233.35 19.2877C234.656 19.8103 235.866 20.5458 236.932 21.4644L233.64 25.4347C232.964 24.8539 232.208 24.3756 231.394 24.0156C230.552 23.6708 229.648 23.5029 228.738 23.5222C228.036 23.5174 227.344 23.666 226.706 23.9575C226.086 24.2405 225.528 24.6451 225.066 25.1475C224.592 25.6633 224.216 26.2639 223.964 26.9179C223.688 27.6093 223.55 28.3475 223.558 29.0917V29.1497C223.55 29.9235 223.688 30.6917 223.966 31.4135C224.222 32.0825 224.618 32.6889 225.128 33.1927C225.626 33.6903 226.218 34.0849 226.868 34.3537C227.574 34.6407 228.33 34.7837 229.092 34.7745C230.238 34.8203 231.372 34.5275 232.354 33.9327V31.4657H228.348V27.3649H237.692V36.5013C236.534 37.4339 235.242 38.1873 233.86 38.7361C232.268 39.3521 230.57 39.6517 228.862 39.6185Z" fill="#522D6D"/>
<path d="M0 21.2646V36.8587L13.44 44.6589V29.0647L0 21.2646Z" fill="#692C7A"/>
<path d="M13.4399 44.6585V29.0615L26.88 36.8615L13.4399 44.6585Z" fill="#EFC19B"/>
<path d="M40.3168 29.0638V44.6578L53.757 36.8578V21.2637L40.3168 29.0638Z" fill="#B2469A"/>
<path d="M26.8798 36.8645L40.3198 29.0615V44.6555L26.8798 36.8645Z" fill="#FFE5C7"/>
<path d="M26.874 36.8638V21.2637L13.4399 29.0608L26.874 36.8638ZM26.874 21.2637V36.8638L40.32 29.0608L26.874 21.2637Z" fill="#9E489B"/>
<g style="mix-blend-mode:multiply" opacity="0.2">
<path d="M53.757 21.2637L40.3168 29.0638L40.32 36.8608L53.757 21.2637Z" fill="#081F2D"/>
</g>
<g style="mix-blend-mode:multiply" opacity="0.2">
<path d="M0 21.2646L13.44 29.0647L13.437 36.8617L0 21.2646Z" fill="#081F2D"/>
</g>
<path d="M0 21.264L13.44 29.0611L26.874 21.261L13.44 13.4699L2.00574 6.83393C1.80605 6.72058 1.58058 6.66105 1.35124 6.66113C1.17458 6.66113 0.999658 6.6961 0.83645 6.76405C0.673242 6.832 0.524948 6.93159 0.400034 7.05714C0.27512 7.1827 0.176033 7.33174 0.10843 7.49578C0.040827 7.65982 0.00603246 7.83564 0.00603246 8.0132L0 21.264Z" fill="#85439A"/>
<path d="M53.7598 21.2642L40.3198 29.0613L26.8828 21.2642L40.3198 13.4701L51.751 6.8341C51.9556 6.71861 52.1866 6.659 52.421 6.66119C52.6556 6.66339 52.8854 6.72732 53.0878 6.84662C53.29 6.96592 53.4578 7.13642 53.574 7.34114C53.6904 7.54584 53.7514 7.77762 53.7508 8.01336L53.7598 21.2642Z" fill="#D7569F"/>
<path d="M0 36.8584L13.44 44.6584L2.00574 51.2884C1.80605 51.4018 1.58058 51.4614 1.35124 51.4612C1.17458 51.4612 0.999658 51.4262 0.83645 51.3584C0.673242 51.2904 0.524948 51.1908 0.400034 51.0652C0.27512 50.9396 0.176033 50.7906 0.10843 50.6266C0.040827 50.4626 0.00603246 50.2868 0.00603246 50.1092L0 36.8584Z" fill="#522D6D"/>
<path d="M53.7508 50.1063C53.7514 50.3419 53.6904 50.5737 53.574 50.7785C53.4578 50.9831 53.2902 51.1537 53.0878 51.2729C52.8856 51.3923 52.6556 51.4561 52.4212 51.4583C52.1866 51.4605 51.9556 51.4009 51.751 51.2855L40.3198 44.6555L53.7598 36.8555L53.7508 50.1063Z" fill="#D07CAB"/>
</svg>
