<svg width="210" height="60" viewBox="0 0 210 60" fill="none" xmlns="http://www.w3.org/2000/svg">
<path fill-rule="evenodd" clip-rule="evenodd" d="M18.764 16.3945C23.7097 18.4892 27.0949 22.9482 27.0949 28.096C27.0949 33.246 23.7085 37.705 18.7628 39.7975C13.8182 37.705 10.4307 33.246 10.4307 28.096C10.4307 22.9472 13.8182 18.4881 18.764 16.3945Z" fill="#002ED9"/>
<path fill-rule="evenodd" clip-rule="evenodd" d="M18.7699 16.3964C20.4838 15.4861 22.4389 15 24.5067 15C31.6944 15 37.5293 20.8691 37.5293 28.099C37.5293 35.3278 31.6944 41.1969 24.5067 41.1969C22.4389 41.1969 20.4838 40.7118 18.7688 39.8005C23.0912 37.7069 26.0525 33.2478 26.0525 28.099C26.0525 22.9501 23.0923 18.491 18.7699 16.3964Z" fill="#0099FA"/>
<path fill-rule="evenodd" clip-rule="evenodd" d="M18.7605 39.7994C17.0455 40.7108 15.0894 41.1969 13.0226 41.1969H5.33701L1.87782 44.6764C1.56363 44.9924 1.09079 45.0869 0.679524 44.9158C0.268261 44.7446 0 44.3415 0 43.8931V16.6904C0 15.757 0.75259 15 1.68054 15H13.0644C15.1175 15.0063 17.059 15.4924 18.7615 16.3964C14.438 18.49 11.4767 22.9491 11.4767 28.0979C11.4767 33.2479 14.438 37.7069 18.7605 39.7994Z" fill="#1A4DDE"/>
<path fill-rule="evenodd" clip-rule="evenodd" d="M110.169 36.9951C106.412 36.9215 103.388 33.8753 103.388 30.1092C103.388 26.342 106.423 23.2838 110.169 23.2838C113.914 23.2838 116.961 26.342 116.961 30.1092C116.961 30.4902 116.928 30.8637 116.873 31.2285H106.74C107.177 32.8122 108.607 33.9662 110.223 34.0063C111.741 34.003 113.008 33.6371 114.012 32.7505L116.033 34.8539C115.923 34.974 115.803 35.0888 115.683 35.197C114.318 36.4474 112.429 36.9973 110.169 36.9951ZM128.143 35.8076L127.684 36.0555C124.43 37.8655 120.084 37.138 119.909 32.7505L119.876 31.8964V26.25H117.736V23.5588H119.964L120.215 18.9775H123.098V23.5588H126.439V26.25H123.098V32.1357H123.109C123.098 34.423 124.91 34.1676 125.893 33.5397L128.143 35.8076ZM86.8877 35.9776C85.8722 36.5848 84.6928 36.9345 83.4261 36.9345C79.6806 36.9345 76.634 33.8753 76.634 30.1092C76.634 26.342 79.6806 23.2838 83.4261 23.2838C84.6819 23.2838 85.8612 23.6292 86.8768 24.2321C87.2917 24.4789 88.1107 25.1176 88.613 25.9793L86.3636 28.1898C85.7739 27.0326 84.7037 26.2521 83.4261 26.2521C81.5151 26.2521 80.1173 27.9798 80.1173 30.1092C80.1173 32.2374 81.5151 33.9662 83.4261 33.9662C84.7037 33.9662 85.7739 33.1857 86.3636 32.0274L88.613 34.2347C88.1107 35.0931 87.2917 35.7297 86.8768 35.9765L86.8877 35.9776ZM68.2257 23.2838C71.9712 23.2838 75.007 26.342 75.007 30.1092C75.007 33.8753 71.9712 36.9345 68.2257 36.9345C64.4802 36.9345 61.4336 33.8753 61.4336 30.1092C61.4336 26.342 64.4802 23.2838 68.2257 23.2838ZM93.7999 28.9898L95.6236 26.6819L98.7029 23.5447H103.158L97.0212 29.8656L103.671 36.7223H99.2161L94.7936 32.1627L94.0948 32.7278L94.0838 36.7223H90.7642V18.9775H94.0838V25.2962L93.7999 28.9898ZM53.1236 18.9775C56.9019 18.9775 59.9594 22.3972 59.9594 26.1947C59.9594 26.1958 59.9594 26.198 59.9594 26.2002C59.9594 29.9966 56.9019 33.57 53.1236 33.57H50.6229V36.7223H46.8447V18.9775H53.1236ZM68.2257 26.2521C70.1257 26.2521 71.4908 27.9798 71.4908 30.1092C71.4908 32.2374 70.1257 33.9662 68.2257 33.9662C66.3147 33.9662 64.8952 32.2374 64.8952 30.1092C64.8952 27.9798 66.3147 26.2521 68.2257 26.2521ZM56.2248 26.1958C56.2248 24.309 54.8271 22.4384 52.9598 22.4384H50.6229V30.1092H52.9598C54.8271 30.1092 56.2248 28.4388 56.2248 26.1991V26.1958ZM113.565 28.9898C113.128 27.4061 111.73 26.2002 110.169 26.2002C108.618 26.2002 107.177 27.4061 106.74 28.9898H113.565Z" fill="#0C0C3D"/>
<path fill-rule="evenodd" clip-rule="evenodd" d="M152.103 25.1507C153.337 23.9653 155.007 23.2379 156.853 23.2379C160.653 23.2379 163.743 26.3426 163.743 30.1672C163.743 33.9917 160.653 37.0964 156.853 37.0964C155.007 37.0964 153.337 36.3689 152.103 35.1847V41.5554H149.963V23.6016H152.103V25.1507ZM174.292 36.0204L173.822 36.2672C170.525 38.1053 166.932 37.014 166.768 32.7544V25.5123H164.278V23.6157H166.768V18.8948H168.908V23.6157H172.73V25.5123H168.908V32.3474C168.908 35.6556 171.595 35.4023 172.698 34.4193L174.292 36.0204ZM187.876 23.2379C191.676 23.2379 194.766 26.3426 194.766 30.1672C194.766 33.9917 191.676 37.0964 187.876 37.0964C184.076 37.0964 180.986 33.9917 180.986 30.1672C180.986 26.3426 184.076 23.2379 187.876 23.2379ZM138.387 18.7129C143.411 18.7129 147.473 22.807 147.473 27.8516C147.473 32.8962 143.411 36.9914 138.387 36.9914C133.375 36.9914 129.302 32.8962 129.302 27.8516C129.302 22.807 133.375 18.7129 138.387 18.7129ZM178.583 23.6016H176.443V36.7186H178.583V23.6016ZM207.87 30.1672C207.87 27.2898 206.374 25.0858 203.732 25.0858C201.559 25.0858 198.992 26.3545 198.992 30.1661V36.7186H196.896V23.6016H198.992V25.2503C200.281 23.6698 202.236 23.2379 203.885 23.2379C207.608 23.2379 210.032 25.5686 210 29.7688C210 29.876 209.989 30.0925 209.978 30.3025V36.7186H207.87V30.1672ZM187.876 24.9537C190.573 24.9537 192.768 27.2898 192.768 30.1672C192.768 33.0445 190.573 35.3806 187.876 35.3806C185.179 35.3806 182.995 33.0445 182.995 30.1672C182.995 27.2898 185.179 24.9537 187.876 24.9537ZM156.853 24.9537C159.55 24.9537 161.734 27.2898 161.734 30.1672C161.734 33.0445 159.55 35.3806 156.853 35.3806C154.156 35.3806 151.972 33.0445 151.972 30.1672C151.972 27.2898 154.156 24.9537 156.853 24.9537ZM138.387 20.6117C142.133 20.6117 145.169 23.856 145.169 27.8516C145.169 31.8472 142.133 35.0916 138.387 35.0916C134.653 35.0916 131.606 31.8472 131.606 27.8516C131.606 23.856 134.653 20.6117 138.387 20.6117ZM177.513 18.8948C178.321 18.8948 178.987 19.5616 178.987 20.3832C178.987 21.2038 178.321 21.8706 177.513 21.8706C176.694 21.8706 176.028 21.2038 176.028 20.3832C176.028 19.5616 176.694 18.8948 177.513 18.8948Z" fill="#0C0C3D"/>
</svg>
