<svg width="152" height="60" viewBox="0 0 152 60" fill="none" xmlns="http://www.w3.org/2000/svg">
<path d="M40.5642 42.4434H35.3206L30.556 36.001H29.0096V42.4434H24.7314V28.7086H29.0096V32.84H30.238C30.8385 32.84 31.3448 32.8038 31.761 32.7275C32.1808 32.6548 32.534 32.4938 32.8245 32.2523C33.0991 32.031 33.3071 31.7691 33.4405 31.4591C33.5741 31.153 33.6408 30.7545 33.6408 30.2591C33.6408 29.8203 33.5585 29.4377 33.3936 29.1195C33.2287 28.8015 32.9539 28.5557 32.5733 28.3827C32.3023 28.2659 32.004 28.1934 31.6744 28.1612C31.3448 28.129 30.9366 28.1129 30.4461 28.1129H29.1069L23.7706 24.8795H31.6195C32.5693 24.8795 33.3978 24.9383 34.1001 25.0609C34.8067 25.1838 35.4579 25.4393 36.0545 25.8216C36.6708 26.2243 37.1574 26.7318 37.5148 27.3519C37.8757 27.9679 38.0564 28.753 38.0564 29.7034C38.0564 31.0483 37.7619 32.1394 37.1734 32.9771C36.5806 33.8146 35.7917 34.4789 34.8027 34.9741L40.5642 42.4434ZM24.7509 19.377C14.1986 23.381 7.38508 29.7088 7.38508 36.8312C7.38508 41.3337 10.1089 45.5187 14.7776 49C5.72105 45.026 0 39.1882 0 32.6796C0 24.0228 10.1204 16.5521 24.7509 13.0771V19.377ZM43.2349 11C56.6644 11 68.6638 14.0703 76.5938 18.8878C66.3469 14.3621 50.0085 14.0204 39.7302 21.049C35.2093 18.2669 30.7017 15.5014 26.1601 12.7577C31.3982 11.6272 37.1704 11 43.2349 11ZM151 42.4434H146.282L143.826 38.6344L141.29 42.4434H136.671L141.424 35.8198L136.753 29.1961H141.471L143.888 32.9327L146.31 29.1961H150.941L146.267 35.707L151 42.4434ZM130.668 42.7978C128.23 42.7978 126.362 42.2019 125.063 41.006C123.764 39.8101 123.113 38.1069 123.113 35.8964C123.113 33.734 123.717 32.0066 124.93 30.7182C126.142 29.4255 127.834 28.7813 130.012 28.7813C131.99 28.7813 133.478 29.3288 134.475 30.4201C135.471 31.5154 135.97 33.0817 135.97 35.1191V36.605H127.147C127.186 37.2171 127.312 37.7325 127.528 38.143C127.74 38.5578 128.026 38.884 128.38 39.1297C128.721 39.3752 129.125 39.5484 129.584 39.6532C130.044 39.7616 130.546 39.8141 131.092 39.8141C131.559 39.8141 132.022 39.7616 132.473 39.6532C132.924 39.5484 133.34 39.4074 133.713 39.2345C134.043 39.0855 134.349 38.9243 134.628 38.7511C134.91 38.5782 135.138 38.4249 135.315 38.292H135.738V41.7027C135.409 41.8355 135.107 41.9604 134.836 42.0731C134.565 42.1859 134.188 42.3026 133.713 42.4194C133.278 42.5401 132.826 42.6329 132.363 42.6972C131.9 42.7657 131.335 42.7978 130.668 42.7978ZM132.002 34.1165C131.978 33.2426 131.782 32.5785 131.409 32.1194C131.037 31.6645 130.468 31.4348 129.702 31.4348C128.917 31.4348 128.309 31.6766 127.865 32.1556C127.426 32.6348 127.183 33.2909 127.135 34.1165H132.002ZM122.298 33.0978H121.965C121.811 33.0413 121.588 33.0011 121.297 32.973C121.007 32.9448 120.685 32.9327 120.332 32.9327C119.908 32.9327 119.468 32.9971 119.001 33.1219C118.538 33.2467 118.087 33.3957 117.651 33.569V42.4434H113.628V29.1961H117.651V31.0925C117.836 30.9193 118.091 30.702 118.417 30.4403C118.742 30.1745 119.04 29.9651 119.307 29.8082C119.598 29.6269 119.939 29.4738 120.324 29.3411C120.712 29.2121 121.078 29.1478 121.423 29.1478C121.552 29.1478 121.702 29.1519 121.862 29.1597C122.023 29.1678 122.169 29.1799 122.298 29.1961V33.0978ZM111.707 35.8237C111.707 38.0061 111.126 39.7216 109.964 40.9777C108.803 42.2302 107.162 42.8582 105.039 42.8582C102.927 42.8582 101.291 42.2302 100.121 40.9777C98.9514 39.7216 98.3667 38.0061 98.3667 35.8237C98.3667 33.6213 98.9514 31.8979 100.121 30.6497C101.291 29.4053 102.927 28.7813 105.039 28.7813C107.154 28.7813 108.795 29.4094 109.961 30.6618C111.126 31.9181 111.707 33.6374 111.707 35.8237ZM107.578 35.8481C107.578 35.0627 107.515 34.4064 107.39 33.883C107.26 33.3594 107.087 32.9407 106.864 32.6268C106.628 32.2965 106.357 32.0671 106.059 31.9341C105.761 31.8052 105.419 31.7408 105.039 31.7408C104.678 31.7408 104.352 31.7973 104.058 31.9141C103.767 32.0268 103.5 32.2442 103.253 32.5663C103.025 32.8723 102.841 33.2951 102.703 33.8307C102.566 34.3661 102.495 35.0387 102.495 35.8481C102.495 36.6613 102.562 37.3137 102.692 37.8169C102.821 38.3163 102.99 38.7149 103.198 39.0128C103.41 39.3189 103.681 39.5445 104.003 39.6853C104.324 39.8262 104.682 39.8987 105.07 39.8987C105.392 39.8987 105.722 39.8262 106.055 39.6853C106.389 39.5445 106.656 39.331 106.852 39.0489C107.091 38.7109 107.272 38.3042 107.394 37.825C107.515 37.3498 107.578 36.6896 107.578 35.8481ZM97.5404 28.2296H90.5759L85.0469 24.8795H97.5404V28.2296ZM90.3542 28.7086V31.5435H96.9675V34.8937H90.3542V42.4434H86.076V28.7086H90.3542ZM82.8694 42.4434H78.8229V35.8721C78.8229 35.3407 78.8036 34.8051 78.7603 34.2735C78.7173 33.7463 78.6387 33.3515 78.5246 33.1019C78.3875 32.8038 78.1873 32.5904 77.9243 32.4577C77.6652 32.3287 77.316 32.2644 76.8803 32.2644C76.5507 32.2644 76.2169 32.3287 75.8795 32.4535C75.542 32.5785 75.1808 32.7798 74.7961 33.0534V42.4434H70.7734V29.1961H74.7961V30.6578C75.4557 30.0859 76.0993 29.6349 76.7233 29.3128C77.3474 28.9907 78.038 28.8296 78.7995 28.8296C80.1183 28.8296 81.127 29.2565 81.8216 30.1099C82.5203 30.9639 82.8694 32.1998 82.8694 33.8186V42.4434ZM67.7943 42.4434H63.748V35.8721C63.748 35.3407 63.7283 34.8051 63.6852 34.2735C63.642 33.7463 63.5634 33.3515 63.4497 33.1019C63.3122 32.8038 63.1123 32.5904 62.8492 32.4577C62.59 32.3287 62.2408 32.2644 61.8051 32.2644C61.4755 32.2644 61.1419 32.3287 60.8044 32.4535C60.4669 32.5785 60.1058 32.7798 59.721 33.0534V42.4434H55.6982V29.1961H59.721V30.6578C60.3804 30.0859 61.0241 29.6349 61.6482 29.3128C62.2724 28.9907 62.9631 28.8296 63.7244 28.8296C65.043 28.8296 66.0518 29.2565 66.7466 30.1099C67.4451 30.9639 67.7943 32.1998 67.7943 33.8186V42.4434ZM48.7159 38.9887V36.2264C48.0331 36.2989 47.4796 36.3594 47.0598 36.4077C46.6358 36.46 46.2237 36.5606 45.8155 36.7098C45.4622 36.8344 45.1917 37.0279 44.9953 37.2813C44.7991 37.539 44.701 37.8775 44.701 38.3042C44.701 38.9243 44.8657 39.3511 45.1916 39.5847C45.5172 39.8141 45.9961 39.9308 46.6319 39.9308C46.9851 39.9308 47.3461 39.8464 47.7151 39.6812C48.0841 39.5162 48.4176 39.2866 48.7159 38.9887ZM48.7159 41.0381C48.4413 41.2758 48.194 41.4892 47.9741 41.6787C47.7545 41.8638 47.4639 42.053 47.0951 42.2421C46.734 42.4236 46.3846 42.5603 46.0432 42.6568C45.7016 42.7495 45.2229 42.7978 44.6107 42.7978C43.4686 42.7978 42.5188 42.4034 41.7652 41.6181C41.0077 40.8329 40.6308 39.8424 40.6308 38.6464C40.6308 37.664 40.8231 36.8667 41.2079 36.2627C41.5887 35.6589 42.1421 35.1755 42.8602 34.8251C43.5902 34.4628 44.4614 34.2091 45.4742 34.0682C46.4867 33.9273 47.574 33.8186 48.7396 33.7382V33.6655C48.7396 32.9369 48.4766 32.4294 47.9507 32.1516C47.4247 31.8737 46.6358 31.7327 45.5881 31.7327C45.1131 31.7327 44.5555 31.8214 43.9198 31.9985C43.284 32.1758 42.66 32.4012 42.0556 32.675H41.7102V29.478C42.1106 29.361 42.7543 29.2202 43.6412 29.059C44.5323 28.8981 45.4311 28.8175 46.3336 28.8175C48.5589 28.8175 50.1799 29.1961 51.1964 29.9572C52.213 30.7142 52.7193 31.8737 52.7193 33.4321V42.4434H48.7159V41.0381Z" fill="#225D6D"/>
</svg>
