<svg width="180" height="60" viewBox="0 0 180 60" fill="none" xmlns="http://www.w3.org/2000/svg">
<g clip-path="url(#clip0_1477_2370)">
<path d="M49.89 5.09961H0V54.9896H49.89V5.09961Z" fill="#E52525"/>
<path d="M57.76 14.83H61.55C61.75 13.9967 62.01 13.1167 62.33 12.19C62.5798 11.4031 62.9582 10.6631 63.45 10C63.8518 9.45568 64.3851 9.02216 65 8.74C65.816 8.44302 66.6826 8.31048 67.55 8.35H69.79V36C69.79 36.8867 69.7633 37.63 69.71 38.23C69.6767 38.7476 69.5336 39.2521 69.29 39.71C69.0588 40.1071 68.7091 40.4218 68.29 40.61C67.702 40.8607 67.0832 41.0322 66.45 41.12V42.9H81.71V41.08C81.1836 41.0195 80.6665 40.8953 80.17 40.71C79.8449 40.5863 79.5437 40.4069 79.28 40.18C79.0517 39.9647 78.8681 39.7065 78.74 39.42C78.574 39.029 78.4727 38.6135 78.44 38.19C78.3773 37.4618 78.3506 36.7309 78.36 36V8.35H80.36C80.9756 8.33815 81.5911 8.37829 82.2 8.47C82.6101 8.53142 83.0082 8.65624 83.38 8.84C83.708 9.01421 84.0081 9.23669 84.27 9.5C84.5721 9.80079 84.8373 10.1365 85.06 10.5C85.3383 10.9785 85.5662 11.4845 85.74 12.01C85.94 12.6033 86.2167 13.5267 86.57 14.78H90.36V5.11H57.76V14.83ZM96.7 19.26C96.9558 19.6618 97.1166 20.1167 97.17 20.59C97.2621 21.3162 97.3022 22.0481 97.29 22.78V34.93C97.3214 36.1428 97.2612 37.3563 97.11 38.56C97.0289 39.1399 96.7902 39.6864 96.42 40.14C95.8979 40.6235 95.2496 40.9494 94.55 41.08V42.9H108.06V41.08C107.627 40.9832 107.208 40.8355 106.81 40.64C106.536 40.5062 106.291 40.3193 106.09 40.09C105.926 39.8901 105.791 39.6679 105.69 39.43C105.58 39.1664 105.499 38.8914 105.45 38.61C105.383 38.1795 105.343 37.7454 105.33 37.31C105.33 36.75 105.33 35.9533 105.33 34.92V15.92H101.87L94.26 16.14V18C94.7879 18.0995 95.304 18.2537 95.8 18.46C96.1686 18.6378 96.4802 18.9148 96.7 19.26ZM105.07 5.11H97.49V11.89H105.08L105.07 5.11ZM123.34 38.89C123.159 37.9245 123.085 36.9418 123.12 35.96V19.62H128.46V16.16H123.12V15.16C123.104 13.8592 123.185 12.559 123.36 11.27C123.453 10.4194 123.747 9.60332 124.22 8.89C124.415 8.61589 124.675 8.39523 124.977 8.24841C125.28 8.1016 125.614 8.03336 125.95 8.05C127.15 8.05 127.86 8.89 128.08 10.57H131.18V5.25C130.164 5.09385 129.138 5.01031 128.11 5C124.11 5 121.04 5.85333 118.9 7.56C117.786 8.48424 116.88 9.63402 116.242 10.9336C115.605 12.2332 115.249 13.6532 115.2 15.1C115.158 15.5808 114.981 16.0399 114.689 16.424C114.397 16.8081 114.002 17.1015 113.55 17.27C112.969 17.4958 112.36 17.6405 111.74 17.7V19.61H115.12V36C115.157 36.9885 115.083 37.9779 114.9 38.95C114.79 39.4514 114.536 39.91 114.17 40.27C113.634 40.6811 113.017 40.9742 112.36 41.13V42.9H126.15V41.08C125.429 40.9603 124.744 40.6763 124.15 40.25C123.75 39.8896 123.471 39.4148 123.35 38.89H123.34ZM144.42 5.11H136.83V11.89H144.42V5.11ZM136.42 38.55C136.339 39.1299 136.1 39.6764 135.73 40.13C135.208 40.6135 134.56 40.9394 133.86 41.07V42.9H147.37V41.08C146.937 40.9832 146.518 40.8355 146.12 40.64C145.846 40.5062 145.601 40.3193 145.4 40.09C145.236 39.8901 145.101 39.6679 145 39.43C144.89 39.1664 144.81 38.8914 144.76 38.61C144.693 38.1795 144.653 37.7454 144.64 37.31C144.64 36.75 144.64 35.9533 144.64 34.92V15.92H141.18L133.57 16.14V18C134.098 18.0995 134.614 18.2537 135.11 18.46C135.488 18.6206 135.814 18.8839 136.05 19.22C136.306 19.6218 136.467 20.0767 136.52 20.55C136.612 21.2762 136.652 22.0081 136.64 22.74V34.93C136.672 36.1428 136.611 37.3563 136.46 38.56L136.42 38.55ZM176.62 40.55C176.365 40.4395 176.134 40.2798 175.94 40.08C175.735 39.854 175.579 39.5886 175.48 39.3C175.332 38.8195 175.244 38.3223 175.22 37.82C175.167 37.1533 175.14 36.2133 175.14 35V25C175.227 23.1114 174.885 21.2275 174.14 19.49C173.515 18.2031 172.451 17.1817 171.14 16.61C169.432 15.9523 167.609 15.6495 165.78 15.72C164.911 15.7215 164.042 15.7783 163.18 15.89C162.187 16.0253 161.202 16.2156 160.23 16.46C159.1 16.7336 157.985 17.0674 156.89 17.46C155.763 17.8667 154.35 18.4467 152.65 19.2V24.2H157.88C158.042 23.0139 158.421 21.8679 159 20.82C159.382 20.1096 159.962 19.5259 160.67 19.14C161.361 18.8309 162.113 18.6805 162.87 18.7C163.639 18.6786 164.399 18.8763 165.06 19.27C165.761 19.7593 166.287 20.4602 166.56 21.27C167.005 22.5544 167.202 23.9119 167.14 25.27V27.14C161.713 27.5067 157.667 28.46 155 30C152.333 31.54 151 33.6767 151 36.41C150.976 37.659 151.287 38.8916 151.9 39.98C152.524 41.0348 153.451 41.8779 154.56 42.4C155.854 43.0073 157.271 43.3052 158.7 43.27C160.272 43.2755 161.825 42.9341 163.25 42.27C164.893 41.4551 166.387 40.37 167.67 39.06L168.09 39.2L167.84 42.83H178.14V41C177.637 40.8965 177.142 40.7561 176.66 40.58L176.62 40.55ZM167.17 34.36C167.172 35.2082 166.944 36.0411 166.51 36.77C166.075 37.5173 165.455 38.1404 164.71 38.58C163.985 39.0242 163.151 39.2595 162.3 39.26C161.349 39.315 160.414 38.9915 159.7 38.36C159.37 38.0125 159.116 37.6001 158.954 37.149C158.792 36.6979 158.726 36.218 158.76 35.74C158.712 34.8976 158.875 34.0565 159.235 33.2933C159.595 32.53 160.14 31.8689 160.82 31.37C162.193 30.37 164.31 29.8333 167.17 29.76V34.36ZM71.94 52.31C71.7021 52.0617 71.4293 51.8494 71.13 51.68C71.688 51.6344 72.212 51.3937 72.61 51C72.9479 50.6174 73.1268 50.1202 73.11 49.61C73.1162 49.1931 73.0016 48.7832 72.78 48.43C72.5793 48.0989 72.2728 47.8452 71.91 47.71C71.3414 47.5491 70.7503 47.4815 70.16 47.51H67V55H68.51V51.86H68.82C69.076 51.8474 69.3323 51.8744 69.58 51.94C69.7526 52.006 69.9068 52.1123 70.03 52.25C70.32 52.5991 70.5872 52.9665 70.83 53.35L71.91 55H73.72L72.81 53.54C72.5567 53.1052 72.2656 52.6936 71.94 52.31ZM69.61 50.66H68.49V48.76H69.67C70.2833 48.76 70.65 48.76 70.77 48.76C70.9883 48.7862 71.1903 48.889 71.34 49.05C71.4794 49.2218 71.5506 49.439 71.54 49.66C71.5464 49.8574 71.4942 50.0522 71.39 50.22C71.2897 50.3706 71.1418 50.4832 70.97 50.54C70.5234 50.6369 70.0669 50.6806 69.61 50.67V50.66ZM154.33 53.43C154.054 53.6737 153.698 53.8087 153.33 53.81C153.077 53.8179 152.826 53.7679 152.596 53.664C152.365 53.56 152.161 53.4047 152 53.21C151.61 52.6198 151.43 51.9151 151.49 51.21C151.429 50.5223 151.614 49.8352 152.01 49.27C152.176 49.0754 152.383 48.9205 152.617 48.8167C152.851 48.7129 153.104 48.6627 153.36 48.67C153.731 48.6563 154.094 48.7759 154.384 49.0071C154.673 49.2383 154.871 49.5657 154.94 49.93L156.44 49.57C156.311 49.0494 156.045 48.5729 155.67 48.19C155.062 47.6369 154.261 47.3458 153.44 47.38C152.97 47.3565 152.5 47.4335 152.062 47.606C151.624 47.7784 151.228 48.0423 150.9 48.38C150.204 49.1809 149.846 50.2204 149.9 51.28C149.853 52.3054 150.213 53.3078 150.9 54.07C151.479 54.6403 152.236 54.9935 153.045 55.07C153.854 55.1465 154.665 54.9416 155.34 54.49C155.905 54.0249 156.3 53.3844 156.46 52.67L155 52.24C154.909 52.7006 154.674 53.1205 154.33 53.44V53.43ZM78.11 47.37C77.5587 47.3613 77.0112 47.4633 76.5 47.67C76.1239 47.8217 75.7834 48.0499 75.5 48.34C75.2104 48.6302 74.9735 48.9685 74.8 49.34C74.5557 49.9498 74.4399 50.6034 74.46 51.26C74.4325 51.7712 74.5068 52.2829 74.6784 52.7652C74.8501 53.2476 75.1157 53.6911 75.46 54.07C76.1846 54.7263 77.1274 55.0898 78.105 55.0898C79.0827 55.0898 80.0254 54.7263 80.75 54.07C81.0956 53.6859 81.3619 53.2372 81.5336 52.7498C81.7052 52.2624 81.7787 51.7459 81.75 51.23C81.7803 50.7109 81.7075 50.1909 81.5359 49.7C81.3643 49.2092 81.0972 48.7571 80.75 48.37C80.4028 48.0301 79.989 47.7659 79.5346 47.5937C79.0803 47.4216 78.5952 47.3455 78.11 47.37ZM79.61 53.17C79.4223 53.3828 79.1915 53.5533 78.9329 53.67C78.6743 53.7867 78.3938 53.8471 78.11 53.8471C77.8263 53.8471 77.5458 53.7867 77.2871 53.67C77.0285 53.5533 76.7977 53.3828 76.61 53.17C76.2328 52.597 76.0318 51.926 76.0318 51.24C76.0318 50.554 76.2328 49.883 76.61 49.31C76.8048 49.1092 77.038 48.9496 77.2957 48.8406C77.5533 48.7315 77.8302 48.6754 78.11 48.6754C78.3898 48.6754 78.6667 48.7315 78.9244 48.8406C79.182 48.9496 79.4152 49.1092 79.61 49.31C80.025 49.8601 80.2242 50.5431 80.17 51.23C80.2254 51.9232 80.0263 52.6129 79.61 53.17ZM159.49 51.69H163.25V50.43H159.49V48.77H163.49V47.5H158V55H163.7V53.73H159.52L159.49 51.69ZM177 50.85C176.48 50.6065 175.933 50.4253 175.37 50.31C174.88 50.2311 174.408 50.0615 173.98 49.81C173.911 49.7567 173.856 49.6884 173.818 49.6105C173.78 49.5325 173.76 49.4468 173.76 49.36C173.757 49.2678 173.778 49.1765 173.82 49.0943C173.862 49.0122 173.924 48.9419 174 48.89C174.298 48.7 174.647 48.6058 175 48.62C175.352 48.5852 175.706 48.6735 176 48.87C176.238 49.0848 176.388 49.3807 176.42 49.7L177.93 49.63C177.931 49.3173 177.864 49.0081 177.735 48.7234C177.605 48.4387 177.416 48.1851 177.18 47.98C176.571 47.525 175.818 47.3049 175.06 47.36C174.558 47.3473 174.058 47.4357 173.59 47.62C173.209 47.7721 172.885 48.0374 172.66 48.38C172.45 48.6971 172.338 49.0695 172.34 49.45C172.331 49.7408 172.385 50.0302 172.499 50.2979C172.613 50.5656 172.784 50.8052 173 51C173.506 51.3743 174.091 51.6275 174.71 51.74C175.343 51.9 175.747 52.01 175.92 52.07C176.124 52.129 176.31 52.2391 176.46 52.39C176.566 52.5157 176.623 52.6756 176.62 52.84C176.617 52.9803 176.583 53.1181 176.518 53.2429C176.454 53.3677 176.363 53.4761 176.25 53.56C175.931 53.7887 175.542 53.8984 175.15 53.87C174.753 53.8914 174.362 53.7669 174.05 53.52C173.749 53.2303 173.558 52.845 173.51 52.43L172.04 52.57C172.088 53.2996 172.414 53.9831 172.95 54.48C173.573 54.9566 174.347 55.1911 175.13 55.14C175.686 55.1575 176.24 55.0658 176.76 54.87C177.173 54.701 177.522 54.4074 177.76 54.03C177.984 53.6719 178.107 53.2603 178.118 52.8382C178.129 52.4161 178.026 51.9988 177.82 51.63C177.623 51.2999 177.34 51.0301 177 50.85ZM169.76 50.85C169.24 50.6065 168.693 50.4253 168.13 50.31C167.64 50.2311 167.168 50.0615 166.74 49.81C166.672 49.7567 166.616 49.6884 166.578 49.6105C166.54 49.5325 166.52 49.4468 166.52 49.36C166.517 49.2678 166.538 49.1765 166.58 49.0943C166.622 49.0122 166.684 48.9419 166.76 48.89C167.058 48.7 167.407 48.6058 167.76 48.62C168.112 48.5852 168.466 48.6735 168.76 48.87C168.998 49.0848 169.148 49.3807 169.18 49.7L170.69 49.63C170.695 49.3252 170.637 49.0226 170.518 48.7418C170.399 48.4611 170.223 48.2083 170 48C169.391 47.545 168.638 47.3249 167.88 47.38C167.378 47.3673 166.878 47.4557 166.41 47.64C166.029 47.7921 165.705 48.0574 165.48 48.4C165.27 48.7171 165.158 49.0895 165.16 49.47C165.151 49.756 165.204 50.0405 165.314 50.3045C165.424 50.5684 165.59 50.8056 165.8 51C166.306 51.3743 166.891 51.6275 167.51 51.74C168.143 51.9 168.547 52.01 168.72 52.07C168.924 52.129 169.11 52.2391 169.26 52.39C169.366 52.5157 169.423 52.6756 169.42 52.84C169.417 52.9803 169.383 53.1181 169.318 53.2429C169.254 53.3677 169.163 53.4761 169.05 53.56C168.731 53.7887 168.342 53.8984 167.95 53.87C167.553 53.8914 167.162 53.7669 166.85 53.52C166.549 53.2303 166.358 52.845 166.31 52.43L164.84 52.57C164.888 53.2996 165.214 53.9831 165.75 54.48C166.373 54.9566 167.147 55.1911 167.93 55.14C168.486 55.1575 169.04 55.0658 169.56 54.87C169.973 54.701 170.322 54.4074 170.56 54.03C170.784 53.6719 170.907 53.2603 170.918 52.8382C170.929 52.4161 170.826 51.9988 170.62 51.63C170.423 51.2999 170.14 51.0301 169.8 50.85H169.76ZM62.06 52.24H63.79V53.24C63.5398 53.4288 63.2636 53.5803 62.97 53.69C62.6525 53.8186 62.3126 53.8832 61.97 53.88C61.6784 53.8881 61.3886 53.8323 61.1208 53.7166C60.8531 53.6009 60.6139 53.428 60.42 53.21C59.9847 52.6382 59.7748 51.9265 59.83 51.21C59.7801 50.5388 59.9875 49.8739 60.41 49.35C60.6063 49.1231 60.8511 48.9433 61.1264 48.8238C61.4016 48.7044 61.7002 48.6484 62 48.66C62.3884 48.6462 62.7707 48.7585 63.09 48.98C63.3839 49.1925 63.5958 49.4997 63.69 49.85L65.19 49.57C65.0698 48.9244 64.7132 48.3468 64.19 47.95C63.542 47.5247 62.7736 47.3212 62 47.37C61.3824 47.3486 60.7686 47.4755 60.21 47.74C59.5977 48.0431 59.0945 48.5288 58.77 49.13C58.4347 49.7712 58.2661 50.4865 58.28 51.21C58.2731 51.9014 58.4236 52.5853 58.72 53.21C58.9983 53.8055 59.4565 54.2987 60.03 54.62C60.6441 54.9508 61.3325 55.1195 62.03 55.11C62.6566 55.109 63.2773 54.9903 63.86 54.76C64.3929 54.6077 64.8896 54.3492 65.32 54V51H62.06V52.24ZM131.86 50.86C131.34 50.6165 130.793 50.4352 130.23 50.32C129.74 50.2411 129.268 50.0715 128.84 49.82C128.771 49.7667 128.716 49.6984 128.678 49.6205C128.64 49.5425 128.62 49.4568 128.62 49.37C128.617 49.2778 128.638 49.1865 128.68 49.1043C128.722 49.0222 128.784 48.9519 128.86 48.9C129.158 48.71 129.507 48.6158 129.86 48.63C130.212 48.5952 130.566 48.6835 130.86 48.88C131.098 49.0948 131.248 49.3907 131.28 49.71L132.79 49.64C132.784 49.3259 132.711 49.0167 132.574 48.7336C132.438 48.4505 132.242 48.2003 132 48C131.391 47.545 130.638 47.3249 129.88 47.38C129.378 47.3673 128.878 47.4557 128.41 47.64C128.029 47.7921 127.705 48.0574 127.48 48.4C127.27 48.7171 127.158 49.0895 127.16 49.47C127.16 49.7564 127.222 50.0395 127.341 50.3C127.46 50.5605 127.634 50.7924 127.85 50.98C128.356 51.3543 128.941 51.6075 129.56 51.72C130.193 51.88 130.597 51.99 130.77 52.05C130.974 52.109 131.16 52.2191 131.31 52.37C131.416 52.4957 131.473 52.6556 131.47 52.82C131.467 52.9603 131.433 53.0981 131.368 53.2229C131.304 53.3477 131.213 53.4561 131.1 53.54C130.781 53.7687 130.392 53.8784 130 53.85C129.603 53.8714 129.212 53.7469 128.9 53.5C128.599 53.2103 128.408 52.825 128.36 52.41L126.89 52.55C126.938 53.2796 127.264 53.9631 127.8 54.46C128.423 54.9366 129.197 55.1711 129.98 55.12C130.536 55.1375 131.09 55.0458 131.61 54.85C132.023 54.681 132.372 54.3874 132.61 54.01C132.834 53.6519 132.957 53.2403 132.968 52.8182C132.979 52.3961 132.876 51.9788 132.67 51.61C132.473 51.2886 132.193 51.026 131.86 50.85V50.86ZM121.26 52.32C121.022 52.0717 120.749 51.8594 120.45 51.69C121.009 51.6417 121.533 51.3973 121.93 51C122.268 50.6174 122.447 50.1202 122.43 49.61C122.436 49.1931 122.322 48.7832 122.1 48.43C121.899 48.0989 121.593 47.8452 121.23 47.71C120.661 47.5491 120.07 47.4815 119.48 47.51H116.3V55H117.81V51.86H118.12C118.376 51.8474 118.632 51.8744 118.88 51.94C119.053 52.006 119.207 52.1123 119.33 52.25C119.62 52.5991 119.887 52.9665 120.13 53.35L121.22 55H123L122.09 53.54C121.85 53.1067 121.572 52.6952 121.26 52.31V52.32ZM118.93 50.67H117.81V48.77H119C119.613 48.77 119.98 48.77 120.1 48.77C120.318 48.7962 120.52 48.899 120.67 49.06C120.809 49.2318 120.881 49.449 120.87 49.67C120.876 49.8674 120.824 50.0622 120.72 50.23C120.619 50.3801 120.471 50.4926 120.3 50.55C119.85 50.6444 119.39 50.6847 118.93 50.67ZM87.65 51.67C87.6587 52.0945 87.6353 52.519 87.58 52.94C87.5404 53.1995 87.4003 53.4329 87.19 53.59C86.8969 53.79 86.5434 53.8819 86.19 53.85C85.8349 53.8697 85.4833 53.7712 85.19 53.57C84.9501 53.389 84.7861 53.1252 84.73 52.83C84.679 52.4154 84.659 51.9976 84.67 51.58V47.5H83.19V51.5C83.1734 52.1368 83.2236 52.7737 83.34 53.4C83.4149 53.7051 83.5586 53.989 83.76 54.23C83.9987 54.5098 84.3003 54.7291 84.64 54.87C85.1611 55.0615 85.7154 55.1465 86.27 55.12C86.7603 55.136 87.2491 55.0579 87.71 54.89C88.0474 54.7591 88.349 54.55 88.59 54.28C88.8162 54.0092 88.971 53.686 89.04 53.34C89.1403 52.7086 89.1805 52.069 89.16 51.43V47.5H87.65V51.67ZM111.21 47.4C110.659 47.3913 110.111 47.4933 109.6 47.7C109.224 47.8515 108.883 48.0796 108.6 48.37C108.31 48.6602 108.074 48.9985 107.9 49.37C107.656 49.9798 107.54 50.6334 107.56 51.29C107.533 51.8012 107.607 52.3129 107.778 52.7952C107.95 53.2776 108.216 53.7211 108.56 54.1C109.285 54.7563 110.227 55.1198 111.205 55.1198C112.183 55.1198 113.125 54.7563 113.85 54.1C114.196 53.7159 114.462 53.2672 114.634 52.7798C114.805 52.2924 114.879 51.7759 114.85 51.26C114.88 50.7409 114.808 50.2209 114.636 49.73C114.464 49.2392 114.197 48.7871 113.85 48.4C113.505 48.0548 113.093 47.7849 112.638 47.6076C112.184 47.4303 111.697 47.3494 111.21 47.37V47.4ZM112.71 53.2C112.522 53.4128 112.292 53.5833 112.033 53.7C111.774 53.8167 111.494 53.8771 111.21 53.8771C110.926 53.8771 110.646 53.8167 110.387 53.7C110.129 53.5833 109.898 53.4128 109.71 53.2C109.333 52.627 109.132 51.956 109.132 51.27C109.132 50.584 109.333 49.913 109.71 49.34C109.905 49.1392 110.138 48.9796 110.396 48.8706C110.653 48.7615 110.93 48.7054 111.21 48.7054C111.49 48.7054 111.767 48.7615 112.024 48.8706C112.282 48.9796 112.515 49.1392 112.71 49.34C113.125 49.8901 113.324 50.5731 113.27 51.26C113.318 51.9432 113.119 52.6209 112.71 53.17V53.2ZM101.25 55H102.76V51.81H105.89V50.54H102.76V48.77H106.38V47.5H101.24L101.25 55ZM95.25 47.62C94.6554 47.5218 94.0522 47.4849 93.45 47.51H91V55H92.51V52.16H93.51C94.0356 52.1712 94.5611 52.1344 95.08 52.05C95.3612 51.9827 95.6263 51.8603 95.86 51.69C96.1237 51.5125 96.3428 51.2763 96.5 51C96.6775 50.6398 96.7634 50.2413 96.75 49.84C96.7742 49.3189 96.6227 48.8048 96.32 48.38C96.0581 48.008 95.6771 47.7363 95.24 47.61L95.25 47.62ZM95 50.41C94.8848 50.5784 94.7208 50.7075 94.53 50.78C94.1387 50.882 93.7338 50.9225 93.33 50.9H92.5V48.77H93.23C93.5941 48.7593 93.9584 48.776 94.32 48.82C94.5562 48.8537 94.7726 48.9708 94.93 49.15C95.0895 49.3363 95.1749 49.5748 95.17 49.82C95.1766 50.0296 95.1171 50.236 95 50.41ZM146.49 53.41C146.214 53.6537 145.858 53.7887 145.49 53.79C145.237 53.7979 144.986 53.7479 144.756 53.644C144.525 53.54 144.321 53.3847 144.16 53.19C143.77 52.5998 143.59 51.8951 143.65 51.19C143.589 50.5023 143.774 49.8152 144.17 49.25C144.336 49.0554 144.543 48.9005 144.777 48.7967C145.011 48.6929 145.264 48.6427 145.52 48.65C145.891 48.6363 146.254 48.7559 146.544 48.9871C146.833 49.2183 147.031 49.5457 147.1 49.91L148.6 49.55C148.471 49.0294 148.205 48.5529 147.83 48.17C147.222 47.6169 146.421 47.3258 145.6 47.36C145.13 47.3365 144.66 47.4135 144.222 47.586C143.784 47.7584 143.388 48.0223 143.06 48.36C142.364 49.1609 142.006 50.2004 142.06 51.26C142.013 52.2854 142.373 53.2878 143.06 54.05C143.639 54.6203 144.396 54.9735 145.205 55.05C146.014 55.1265 146.825 54.9216 147.5 54.47C148.065 54.0049 148.46 53.3644 148.62 52.65L147.15 52.19C147.077 52.6647 146.852 53.1031 146.51 53.44L146.49 53.41ZM139 51.64C139.009 52.0645 138.985 52.489 138.93 52.91C138.89 53.1695 138.75 53.4029 138.54 53.56C138.247 53.76 137.893 53.8519 137.54 53.82C137.185 53.8397 136.833 53.7412 136.54 53.54C136.3 53.359 136.136 53.0952 136.08 52.8C136.029 52.3854 136.009 51.9676 136.02 51.55V47.5H134.51V51.5C134.493 52.1368 134.544 52.7737 134.66 53.4C134.735 53.7049 134.879 53.9888 135.08 54.23C135.319 54.5098 135.62 54.7291 135.96 54.87C136.481 55.0615 137.035 55.1465 137.59 55.12C138.08 55.136 138.569 55.0579 139.03 54.89C139.367 54.7591 139.669 54.55 139.91 54.28C140.136 54.0092 140.291 53.686 140.36 53.34C140.46 52.7086 140.5 52.069 140.48 51.43V47.5H139V51.64Z" fill="#0C0C3D"/>
<path d="M24.82 28.5399C25.977 28.5295 27.1206 28.2912 28.1855 27.8388C29.2503 27.3864 30.2157 26.7286 31.0263 25.9031C31.837 25.0775 32.4771 24.1004 32.9101 23.0275C33.3432 21.9546 33.5606 20.8069 33.55 19.6499C33.55 17.3346 32.6303 15.1141 30.9931 13.4769C29.3559 11.8397 27.1354 10.9199 24.82 10.9199C22.5047 10.9199 20.2842 11.8397 18.647 13.4769C17.0098 15.1141 16.09 17.3346 16.09 19.6499C16.0795 20.8069 16.2969 21.9546 16.73 23.0275C17.163 24.1004 17.8031 25.0775 18.6138 25.9031C19.4244 26.7286 20.3898 27.3864 21.4546 27.8388C22.5195 28.2912 23.6631 28.5295 24.82 28.5399ZM38.09 25.1599C38.09 25.1599 34.82 33.9999 25 33.9999C15.46 33.9999 11.46 25.1899 11.46 25.1899H5.67004V37.1899H19V49.3299H31V37.1599H44.23V25.1599H38.09Z" fill="white"/>
</g>
<defs>
<clipPath id="clip0_1477_2370">
<rect width="178.17" height="50.12" fill="white" transform="translate(0 5)"/>
</clipPath>
</defs>
</svg>
