<svg width="92" height="60" viewBox="0 0 92 60" fill="none" xmlns="http://www.w3.org/2000/svg">
<path d="M91.5001 19.8087C88.0071 4.21807 64.7975 -3.83572 39.6505 1.79759C14.5036 7.43089 -3.04855 24.64 0.444484 40.2065C3.93752 55.7729 27.1471 63.8364 52.2941 58.2031C77.441 52.5698 94.9932 35.3703 91.5001 19.8087ZM85.804 11.9578C86.175 11.9569 86.5379 12.066 86.8468 12.2714C87.1557 12.4768 87.3967 12.7692 87.5393 13.1117C87.6819 13.4541 87.7197 13.8312 87.648 14.1951C87.5762 14.5591 87.398 14.8935 87.1361 15.1562C86.8741 15.4188 86.5401 15.5978 86.1763 15.6705C85.8126 15.7433 85.4354 15.7064 85.0926 15.5647C84.7498 15.4229 84.4567 15.1827 84.2505 14.8743C84.0444 14.5659 83.9343 14.2033 83.9343 13.8324C83.9343 13.336 84.1311 12.86 84.4816 12.5086C84.8321 12.1572 85.3077 11.9591 85.804 11.9578ZM36.3701 2.97159C36.7414 2.9716 37.1044 3.08192 37.413 3.28855C37.7216 3.49517 37.9618 3.7888 38.1033 4.13217C38.2447 4.47554 38.281 4.85319 38.2075 5.21721C38.134 5.58123 37.954 5.91521 37.6904 6.17678C37.4268 6.43835 37.0914 6.61573 36.7268 6.68642C36.3622 6.7571 35.9849 6.71791 35.6426 6.5738C35.3004 6.4297 35.0086 6.18718 34.8044 5.87701C34.6002 5.56684 34.4927 5.203 34.4955 4.83165C34.4955 4.58571 34.5441 4.34218 34.6383 4.11502C34.7326 3.88786 34.8707 3.68153 35.0449 3.50785C35.219 3.33416 35.4257 3.19654 35.6531 3.10287C35.8805 3.00919 36.1241 2.9613 36.3701 2.96193M6.41598 47.8931C6.04523 47.8931 5.6828 47.7831 5.37454 47.5772C5.06627 47.3712 4.826 47.0784 4.68412 46.7359C4.54224 46.3934 4.50512 46.0165 4.57745 45.6528C4.64978 45.2892 4.82831 44.9552 5.09047 44.693C5.35263 44.4309 5.68665 44.2523 6.05027 44.18C6.4139 44.1077 6.79081 44.1448 7.13334 44.2867C7.47587 44.4286 7.76863 44.6688 7.97461 44.9771C8.18059 45.2854 8.29053 45.6478 8.29053 46.0185C8.29053 46.5157 8.09303 46.9925 7.74148 47.344C7.38994 47.6956 6.91314 47.8931 6.41598 47.8931ZM55.8547 56.8793C55.4836 56.8803 55.1205 56.771 54.8115 56.5654C54.5025 56.3598 54.2615 56.0671 54.119 55.7244C53.9765 55.3816 53.939 55.0043 54.0112 54.6402C54.0833 54.2762 54.262 53.9417 54.5244 53.6793C54.7869 53.4168 55.1213 53.2382 55.4854 53.166C55.8495 53.0938 56.2268 53.1314 56.5695 53.2738C56.9122 53.4163 57.2049 53.6573 57.4105 53.9663C57.6162 54.2753 57.7254 54.6384 57.7245 55.0096C57.7232 55.5051 57.5258 55.9799 57.1754 56.3303C56.8251 56.6806 56.3502 56.878 55.8547 56.8793ZM48.3131 53.7293C24.4126 56.087 3.98583 47.3761 2.69104 34.2688C1.39625 21.1615 19.7262 8.62905 43.6315 6.28104C67.5368 3.93302 87.9588 12.6342 89.2536 25.7367C90.5484 38.8392 72.2135 51.3813 48.3131 53.7583" fill="#13CA60"/>
<path d="M19.388 21.4854V29.1333H17.2719V21.4854H14.5857V19.6543H22.0742V21.4854H19.388Z" fill="#092335"/>
<path d="M30.9204 22.7995C30.9204 24.3165 30.3164 25.2973 29.1183 25.7417L31.5339 29.1237H28.9105L26.8041 26.0896H25.3547V29.1333H23.2241V19.6543H26.8186C28.2937 19.6543 29.3454 19.9023 29.9734 20.3983C30.6015 20.8943 30.9171 21.6947 30.9204 22.7995ZM28.3694 23.9252C28.511 23.777 28.6194 23.6004 28.6877 23.4072C28.756 23.214 28.7826 23.0085 28.7656 22.8043C28.7911 22.6065 28.7664 22.4055 28.6938 22.2197C28.6212 22.034 28.503 21.8695 28.3501 21.7414C27.9131 21.514 27.4206 21.4151 26.9297 21.4564H25.3402V24.2634H26.8862C27.4033 24.3242 27.9254 24.2047 28.3646 23.9252H28.3694Z" fill="#092335"/>
<path d="M40.0709 29.1333L39.1867 27.0848H35.2154L34.3313 29.1333H32.0799L36.1768 19.6543H38.2253L42.3223 29.1333H40.0709ZM37.2011 22.4758L36.0077 25.2248H38.3847L37.2011 22.4758Z" fill="#092335"/>
<path d="M50.2456 20.8911C50.7067 21.3356 51.0666 21.8743 51.3009 22.4703C51.5351 23.0664 51.6382 23.706 51.6032 24.3455C51.6321 24.9908 51.5264 25.6351 51.2926 26.2374C51.0589 26.8396 50.7023 27.3865 50.2456 27.8434C49.3663 28.7033 48.0184 29.1333 46.2114 29.1333H42.9986V19.6543H46.3516C48.0328 19.6543 49.3309 20.0666 50.2456 20.8911ZM48.6947 26.5292C48.9671 26.2487 49.1775 25.9141 49.3123 25.5471C49.4471 25.18 49.5034 24.7888 49.4774 24.3986C49.5019 24.0057 49.4451 23.6119 49.3104 23.242C49.1757 22.8721 48.9661 22.5339 48.6947 22.2487C48.0191 21.6915 47.1514 21.4225 46.2791 21.4999H45.1002V27.2636H46.4433C47.2543 27.3164 48.0542 27.0532 48.6754 26.5292H48.6947Z" fill="#092335"/>
<path d="M53.1975 19.6543H55.3136V29.1333H53.1975V19.6543Z" fill="#092335"/>
<path d="M64.0728 19.6543H66.1889V29.1333H64.0728L59.5604 23.1908V29.1333H57.4442V19.6543H59.4251L64.0728 25.7562V19.6543Z" fill="#092335"/>
<path d="M74.1944 24.3066H76.3346V27.6885C75.8372 28.2196 75.2295 28.6353 74.5543 28.9066C73.8791 29.1778 73.1527 29.298 72.4261 29.2587C71.7787 29.2752 71.1346 29.1614 70.532 28.924C69.9295 28.6866 69.3808 28.3305 68.9186 27.8769C68.4537 27.4244 68.0878 26.8802 67.8442 26.279C67.6005 25.6777 67.4843 25.0324 67.503 24.3839C67.4871 23.7291 67.6077 23.0782 67.8573 22.4726C68.1068 21.8671 68.4798 21.3201 68.9524 20.8667C69.4082 20.4092 69.9516 20.0484 70.5502 19.806C71.1488 19.5636 71.7901 19.4445 72.4358 19.4559C73.739 19.4322 75.0028 19.9035 75.9723 20.7749L74.8852 22.3644C74.5401 22.0451 74.1431 21.787 73.7112 21.601C73.3416 21.4578 72.9482 21.3857 72.5517 21.3885C72.1747 21.3804 71.8 21.4491 71.4504 21.5903C71.1007 21.7314 70.7835 21.9422 70.5178 22.2098C70.2386 22.4944 70.0212 22.8335 69.879 23.2059C69.7369 23.5783 69.6731 23.976 69.6916 24.3742C69.6737 24.7673 69.7346 25.16 69.8707 25.5292C70.0067 25.8984 70.2152 26.2367 70.4839 26.5241C70.7271 26.7816 71.0209 26.9862 71.3467 27.125C71.6726 27.2639 72.0236 27.334 72.3778 27.331C73.0151 27.3544 73.6471 27.2077 74.2089 26.9058L74.1944 24.3066Z" fill="#092335"/>
<path d="M19.7262 39.1963C20.2189 39.2062 20.7069 39.0992 21.1502 38.8843C21.5936 38.6693 21.9798 38.3524 22.2772 37.9595L23.6299 39.3606C23.1823 39.8919 22.631 40.3265 22.0098 40.6376C21.3886 40.9487 20.7104 41.1299 20.0168 41.1702C19.3232 41.2104 18.6287 41.1088 17.9757 40.8716C17.3226 40.6344 16.7248 40.2666 16.2187 39.7906C15.754 39.339 15.3881 38.7957 15.1444 38.1952C14.9008 37.5947 14.7845 36.9502 14.8031 36.3024C14.7877 35.647 14.9086 34.9955 15.1581 34.3892C15.4076 33.7829 15.7803 33.2351 16.2525 32.7804C16.7151 32.3185 17.2667 31.9554 17.8737 31.7129C18.4808 31.4704 19.1307 31.3536 19.7842 31.3696C20.5235 31.361 21.2555 31.5159 21.9278 31.8232C22.6002 32.1306 23.1963 32.5828 23.6734 33.1475L22.369 34.6404C22.0813 34.2502 21.7056 33.9335 21.2724 33.7161C20.8392 33.4987 20.3607 33.3866 19.876 33.3891C19.1187 33.373 18.3852 33.6539 17.8324 34.1718C17.5479 34.4402 17.325 34.767 17.1791 35.1298C17.0331 35.4926 16.9675 35.8828 16.9869 36.2734C16.9686 36.6629 17.0304 37.0521 17.1683 37.4169C17.3063 37.7817 17.5174 38.1143 17.7889 38.3943C18.0393 38.654 18.3406 38.8593 18.674 38.9973C19.0073 39.1353 19.3655 39.203 19.7262 39.1963Z" fill="#092335"/>
<path d="M31.5243 31.5879V33.4721H26.8041V35.4046H31.0508V37.2115H26.8041V39.1779H31.674V41.0669H24.6928V31.5879H31.5243Z" fill="#092335"/>
<path d="M39.5153 31.5879H41.6314V41.0669H39.5153L34.998 35.1292V41.0669H32.8819V31.5879H34.8627L39.5153 37.685V31.5879Z" fill="#092335"/>
<path d="M47.5835 33.419V41.0669H45.4674V33.419H42.7812V31.5879H50.2697V33.419H47.5835Z" fill="#092335"/>
<path d="M59.111 34.7331C59.111 36.2565 58.5104 37.2373 57.309 37.6753L59.7246 41.0573H57.1061L55.0044 38.0329H53.555V41.0669H51.4389V31.5879H55.0334C56.4828 31.5879 57.5602 31.8391 58.1883 32.3319C58.8163 32.8247 59.111 33.6315 59.111 34.7331ZM56.5601 35.8588C56.7034 35.7128 56.813 35.5373 56.8814 35.3445C56.9499 35.1517 56.9754 34.9464 56.9563 34.7427C56.9799 34.5474 56.9553 34.3492 56.8846 34.1656C56.8138 33.9819 56.6991 33.8185 56.5505 33.6895C56.1043 33.4584 55.6015 33.3595 55.1011 33.4045H53.5116V36.2356H55.0769C55.6001 36.2862 56.1245 36.153 56.5601 35.8588Z" fill="#092335"/>
<path d="M67.9958 41.0669L67.1117 39.0184H63.1403L62.2562 41.0669H60.0048L64.1018 31.5879H66.1502L70.2472 41.0669H67.9958ZM65.1308 34.4094L63.9375 37.1632H66.3145L65.1308 34.4094Z" fill="#092335"/>
<path d="M70.6385 41.0669V31.5879H72.7547V39.1827H76.8178V41.0669H70.6385Z" fill="#092335"/>
</svg>
