<svg width="230" height="60" viewBox="0 0 230 60" fill="none" xmlns="http://www.w3.org/2000/svg">
<path d="M3.40071 29.458C3.40071 30.6153 3.41248 31.749 3.44778 32.8354C3.47131 33.9219 3.57722 34.9492 3.74196 35.9176C3.9067 36.8859 4.17734 37.7598 4.53036 38.551C4.89514 39.3422 5.40113 40.0271 6.06009 40.6058C6.71905 41.1844 7.55452 41.6213 8.55473 41.9402C9.55494 42.259 10.7905 42.4126 12.2614 42.4126H12.7909C14.2618 42.4126 15.4974 42.259 16.5093 41.9402C17.5213 41.6213 18.3568 41.1844 19.0157 40.6058C19.6747 40.0271 20.1807 39.3422 20.5455 38.551C20.9102 37.7598 21.1691 36.8741 21.3339 35.9176C21.4986 34.9492 21.6045 33.9337 21.628 32.8354C21.6516 31.749 21.6751 30.6271 21.6751 29.458V29.1038V29.0329V15.4643C21.6751 14.9447 21.8634 14.5786 22.2517 14.3543C22.6283 14.1299 23.0754 14.0118 23.5932 14.0118C24.1462 14.0118 24.5463 14.1181 24.7699 14.3188C24.9935 14.5196 25.1111 14.8148 25.1111 15.2045V29.0329C25.1111 30.4264 25.0758 31.808 25.0288 33.1543C24.9699 34.5123 24.8169 35.7877 24.5698 37.004C24.3227 38.2203 23.9344 39.3422 23.4167 40.3696C22.8989 41.397 22.1693 42.2945 21.2515 43.0384C20.3337 43.7942 19.1687 44.3729 17.7566 44.798C16.3446 45.2231 14.6384 45.4357 12.6144 45.4357H12.5085C10.4845 45.4357 8.76654 45.2231 7.36624 44.798C5.95419 44.3729 4.78924 43.7824 3.85963 43.0384C2.93002 42.2827 2.21223 41.397 1.69447 40.3578C1.17672 39.3186 0.800167 38.1967 0.54129 36.9804C0.282412 35.7641 0.129439 34.4887 0.0823701 33.1306C0.0353015 31.7726 0 30.4028 0 29.0093V15.1927C0 14.8148 0.117672 14.5196 0.341248 14.307C0.564824 14.1063 0.964907 14 1.51796 14C2.03572 14 2.48287 14.1181 2.85942 14.3425C3.23597 14.5668 3.43601 14.9447 3.43601 15.4525V29.458H3.40071Z" fill="url(#paint0_linear_1446_2618)"/>
<path d="M80.5173 14C80.9828 14 81.2737 14.0953 81.4133 14.2979C81.5413 14.5005 81.6111 14.9057 81.6111 15.5134C81.6111 15.8709 81.5529 16.1569 81.4482 16.3595C81.3435 16.562 81.2039 16.717 81.0526 16.8123C80.9013 16.9076 80.75 16.9672 80.5988 16.991C80.4475 17.0149 80.3311 17.0268 80.238 17.0268H70.6497V44.4585C70.6497 44.8637 70.4752 45.1258 70.1261 45.245C69.777 45.3761 69.3814 45.4357 68.9508 45.4357C68.497 45.4357 68.1014 45.3642 67.7639 45.2331C67.4265 45.102 67.2519 44.8398 67.2519 44.4585V17.0268H57.8149C57.6869 17.0268 57.5473 17.003 57.396 16.9672C57.2447 16.9315 57.1051 16.86 56.9771 16.7408C56.8491 16.6335 56.7327 16.4786 56.6396 16.276C56.5465 16.0735 56.5 15.8232 56.5 15.5134C56.5 15.1916 56.5116 14.9176 56.5465 14.7269C56.5698 14.5243 56.628 14.3694 56.6978 14.2622C56.7676 14.1549 56.884 14.0834 57.0236 14.0477C57.1633 14.0238 57.3494 14 57.5705 14L80.5173 14Z" fill="#0C0C3D"/>
<path d="M95.2666 17.0445H88.8569V44.4238C88.8569 44.6262 88.8093 44.7929 88.714 44.9119C88.6186 45.0309 88.4876 45.1262 88.3208 45.1976C88.154 45.269 87.9753 45.3166 87.7608 45.3404C87.5583 45.3642 87.3319 45.3762 87.1175 45.3762C86.6528 45.3762 86.2478 45.3166 85.9023 45.1976C85.5568 45.0785 85.3781 44.8167 85.3781 44.4238V15.6874V15.5803V15.4732C85.3781 15.0684 85.5568 14.7232 85.9261 14.4375C86.2954 14.1518 86.8316 14.009 87.5345 14.009H95.2547C97.1729 13.9613 98.96 14.1042 100.64 14.4256C102.32 14.747 103.773 15.2827 105.012 16.0326C106.251 16.7945 107.228 17.7825 107.943 19.0087C108.658 20.2348 109.015 21.7466 109.015 23.5203V23.7703C109.015 24.925 108.86 25.9725 108.563 26.901C108.253 27.8296 107.824 28.639 107.264 29.3414C106.704 30.0437 106.013 30.6389 105.215 31.1389C104.417 31.6389 103.523 32.0555 102.546 32.365L109.063 43.9358C109.242 44.2453 109.277 44.4953 109.182 44.6976C109.087 44.8881 108.92 45.0428 108.682 45.15C108.443 45.2571 108.169 45.3404 107.872 45.3762C107.562 45.4119 107.3 45.4357 107.061 45.4357C106.752 45.4357 106.442 45.3762 106.132 45.2571C105.822 45.1381 105.596 44.9357 105.429 44.6381L99.0195 33.1388C98.4596 33.2102 97.8877 33.2578 97.3158 33.2816C96.744 33.3054 96.1483 33.3173 95.5287 33.3173H87.2247C86.8435 33.3173 86.5456 33.1745 86.3431 32.9007C86.1405 32.6269 86.0452 32.2579 86.0452 31.7817C86.0452 31.2936 86.1525 30.9127 86.355 30.6627C86.5575 30.4008 86.8554 30.2699 87.2485 30.2699H95.5526H95.5764C97.1371 30.2699 98.5311 30.1509 99.7582 29.9247C100.985 29.6985 102.034 29.3295 102.892 28.8295C103.749 28.3295 104.405 27.6748 104.857 26.8891C105.322 26.0916 105.548 25.1273 105.548 23.9846V23.3894C105.548 22.4013 105.37 21.5085 105 20.7347C104.631 19.961 104.059 19.2944 103.261 18.7587C102.463 18.223 101.438 17.8063 100.163 17.5206C98.9004 17.235 97.3635 17.0921 95.5645 17.0921H95.2786H95.2666V17.0445Z" fill="#0C0C3D"/>
<path fill-rule="evenodd" clip-rule="evenodd" d="M118.732 38.296H136.097L138.181 43.8491C138.313 44.2398 138.47 44.5477 138.65 44.7726C138.831 44.9857 139.024 45.1515 139.228 45.2462C139.433 45.341 139.65 45.4002 139.879 45.412C140.12 45.4238 140.36 45.4357 140.613 45.4357C140.83 45.4357 141.047 45.4002 141.239 45.3173C141.432 45.2344 141.589 45.1041 141.697 44.9265C141.805 44.7489 141.866 44.5121 141.878 44.2161C141.878 43.9201 141.805 43.5531 141.661 43.1268L131.967 17.0666C131.738 16.4154 131.473 15.8944 131.196 15.4919C130.919 15.1011 130.606 14.7933 130.269 14.5683C129.932 14.3552 129.558 14.2013 129.173 14.1184C128.776 14.0355 128.354 14 127.908 14H127.005C126.536 14 126.102 14.0355 125.717 14.1184C125.319 14.2013 124.958 14.3434 124.621 14.5683C124.284 14.7815 123.971 15.0893 123.694 15.4919C123.417 15.8944 123.164 16.4154 122.923 17.0666L113.229 43.1268C113.072 43.5649 113 43.9201 113 44.2161C113 44.5121 113.06 44.7489 113.169 44.9265C113.277 45.1041 113.433 45.2344 113.638 45.3173C113.843 45.4002 114.048 45.4357 114.276 45.4357C114.529 45.4357 114.782 45.4238 115.011 45.412C115.24 45.4002 115.457 45.341 115.661 45.2462C115.866 45.1515 116.059 44.9976 116.239 44.7726C116.42 44.5595 116.577 44.2517 116.709 43.8491L118.732 38.296ZM135.074 35.5294H119.732L126.103 18.1835C126.271 17.7454 126.428 17.4376 126.597 17.2482C126.753 17.0706 126.958 16.964 127.199 16.9522H127.283H127.331H127.644C127.873 16.964 128.066 17.0587 128.234 17.2482C128.403 17.4258 128.559 17.7454 128.728 18.1835L135.074 35.5294Z" fill="#0C0C3D"/>
<path d="M177.888 45.4237C177.473 45.4237 177.104 45.3636 176.792 45.2434C176.504 45.1953 176.262 45.1112 176.066 44.979C175.87 44.8469 175.777 44.6306 175.777 44.3301V43.9937V43.9216V43.7173V29.7058V29.5015V29.4294V15.5862V15.5021C175.777 15.0815 175.962 14.733 176.319 14.4326C176.677 14.1442 177.207 14 177.888 14C180.275 14 182.373 14 184.195 14C186.017 14 187.585 14 188.923 14C190.261 14 191.368 14 192.267 14C193.155 14 193.882 14 194.435 14C194.989 14 195.392 14 195.646 14.012C195.9 14.024 196.049 14.024 196.084 14.024C196.372 14.0361 196.614 14.1923 196.822 14.4807C197.018 14.7691 197.122 15.1416 197.122 15.5742C197.122 15.9587 197.053 16.2591 196.914 16.4634C196.776 16.6677 196.603 16.8119 196.395 16.896C196.188 16.9801 195.957 17.0402 195.715 17.0522C195.473 17.0643 195.242 17.0763 195.023 17.0763H179.145V28.0115C181.151 28.0115 182.892 28.0115 184.345 28.0115C185.798 28.0115 187.032 28.0115 188.035 28.0115C189.038 28.0115 189.857 28.0115 190.468 28.0115C191.091 28.0115 191.564 28.0115 191.91 28.0115C192.256 28.0115 192.498 28.0115 192.648 28.0235C192.786 28.0355 192.89 28.0355 192.924 28.0355C193.213 28.0475 193.466 28.1917 193.686 28.4681C193.905 28.7325 194.02 29.117 194.02 29.5857C194.02 29.8741 193.974 30.1024 193.893 30.2946C193.812 30.4869 193.697 30.6311 193.57 30.7513C193.443 30.8714 193.305 30.9556 193.155 31.0036C193.005 31.0517 192.867 31.0877 192.74 31.0877H179.145V42.3594H195.023C195.242 42.3594 195.473 42.3714 195.715 42.3834C195.957 42.3954 196.188 42.4555 196.395 42.5396C196.603 42.6238 196.776 42.78 196.914 42.9722C197.053 43.1765 197.122 43.4649 197.122 43.8615C197.122 44.2941 197.018 44.6546 196.822 44.955C196.626 45.2434 196.372 45.3996 196.084 45.4116C196.015 45.4116 195.888 45.4116 195.704 45.4237C195.519 45.4357 195.311 45.4357 195.081 45.4357C194.85 45.4357 194.597 45.4357 194.331 45.4357C194.066 45.4357 193.812 45.4357 193.57 45.4357H177.888V45.4237Z" fill="#0C0C3D"/>
<path d="M212.033 17.0445H205.623V44.4238C205.623 44.6262 205.575 44.7929 205.48 44.9119C205.385 45.0309 205.254 45.1262 205.087 45.1976C204.92 45.269 204.741 45.3166 204.527 45.3404C204.324 45.3642 204.098 45.3762 203.884 45.3762C203.419 45.3762 203.014 45.3166 202.668 45.1976C202.323 45.0785 202.144 44.8167 202.144 44.4238V15.6874V15.5803V15.4732C202.144 15.0684 202.323 14.7232 202.692 14.4375C203.062 14.1518 203.598 14.009 204.301 14.009H212.021C213.939 13.9613 215.726 14.1042 217.406 14.4256C219.086 14.747 220.539 15.2827 221.778 16.0326C223.017 16.7945 223.994 17.7825 224.709 19.0087C225.424 20.2348 225.781 21.7466 225.781 23.5203V23.7703C225.781 24.925 225.627 25.9725 225.329 26.901C225.019 27.8296 224.59 28.639 224.03 29.3414C223.47 30.0437 222.779 30.6389 221.981 31.1389C221.183 31.6389 220.289 32.0555 219.312 32.365L225.829 43.9358C226.008 44.2453 226.044 44.4953 225.948 44.6976C225.853 44.8881 225.686 45.0428 225.448 45.15C225.21 45.2571 224.936 45.3404 224.638 45.3762C224.328 45.4119 224.066 45.4357 223.828 45.4357C223.518 45.4357 223.208 45.3762 222.898 45.2571C222.589 45.1381 222.362 44.9357 222.195 44.6381L215.786 33.1388C215.226 33.2102 214.654 33.2578 214.082 33.2816C213.51 33.3054 212.914 33.3173 212.295 33.3173H203.991C203.61 33.3173 203.312 33.1745 203.109 32.9007C202.907 32.6269 202.811 32.2579 202.811 31.7817C202.811 31.2936 202.919 30.9127 203.121 30.6627C203.324 30.4008 203.621 30.2699 204.015 30.2699H212.319H212.343C213.903 30.2699 215.297 30.1509 216.524 29.9247C217.751 29.6985 218.8 29.3295 219.658 28.8295C220.516 28.3295 221.171 27.6748 221.624 26.8891C222.088 26.0916 222.315 25.1273 222.315 23.9846V23.3894C222.315 22.4013 222.136 21.5085 221.766 20.7347C221.397 19.961 220.825 19.2944 220.027 18.7587C219.229 18.223 218.204 17.8063 216.929 17.5206C215.667 17.235 214.13 17.0921 212.331 17.0921H212.045H212.033V17.0445Z" fill="#0C0C3D"/>
<path d="M53.0557 19.0369C52.4253 17.8196 51.5498 16.8291 50.4291 16.0772C49.2968 15.3254 47.9426 14.7883 46.3667 14.4661C44.7791 14.1439 43.0281 13.9887 41.1136 14.0006H33.5258C32.8254 14.0006 32.3001 14.1439 31.9382 14.4303C31.5763 14.7167 31.3895 15.0628 31.3895 15.4686V15.576V15.6834V16.3159C31.3895 16.7336 31.7164 17.0558 32.1133 17.0558H34.7865V17.032H41.0903C41.1136 17.032 41.1486 17.032 41.1836 17.0439C41.2187 17.0558 41.2654 17.0439 41.3237 17.032H41.3938C43.1798 17.032 44.674 17.1752 45.8531 17.4616C47.0321 17.748 47.9777 18.1538 48.6898 18.7028C49.3902 19.2398 49.8921 19.9081 50.1723 20.6839C50.4525 21.4596 50.5925 22.3547 50.5925 23.3452V23.9419C50.5925 26.1617 49.8688 27.749 48.4213 28.7276C46.9737 29.7062 44.7791 30.2075 41.849 30.2552H41.6973H41.3938H41.1136C40.8685 30.2552 40.4716 30.2552 39.9112 30.2552C39.3626 30.2552 38.7672 30.2552 38.1252 30.2671C37.4831 30.2791 36.8644 30.2791 36.2457 30.2791C35.9072 30.2791 35.6037 30.2791 35.3352 30.2791C35.1251 30.2791 34.9383 30.2791 34.7865 30.2791H31.3895V44.4809C31.3895 44.8867 31.5646 45.1373 31.9148 45.2567C32.265 45.376 32.6619 45.4357 33.1172 45.4357C33.339 45.4357 33.5375 45.4237 33.7359 45.3999C33.9344 45.376 34.1095 45.3283 34.2729 45.2567C34.4363 45.1851 34.5647 45.0896 34.6581 44.9702C34.7515 44.8509 34.7982 44.6838 34.7982 44.4809V33.3343H41.277H41.3588C43.3082 33.3343 45.0593 33.1672 46.6235 32.833C48.1878 32.4989 49.5186 31.9499 50.6042 31.198C51.6899 30.4342 52.5304 29.4556 53.114 28.2383C53.6977 27.021 53.9896 25.5292 53.9896 23.7749V23.5242C53.9896 21.758 53.686 20.2542 53.0557 19.0369Z" fill="url(#paint1_linear_1446_2618)"/>
<path fill-rule="evenodd" clip-rule="evenodd" d="M147.338 14C146.399 14 145.644 14.7778 145.644 15.7471V43.7364C145.644 44.6818 146.387 45.4357 147.292 45.4357H155.45C164.64 45.4357 170.755 39.6679 170.755 29.6999C170.755 19.7678 164.64 14 155.45 14H147.338ZM167.252 29.6865C167.252 38.1348 162.633 42.2752 155.137 42.2752H148.999V17.1458H155.137C162.633 17.1458 167.252 21.322 167.252 29.6865Z" fill="#0C0C3D"/>
<defs>
<linearGradient id="paint0_linear_1446_2618" x1="12.5556" y1="14" x2="12.5556" y2="45.4357" gradientUnits="userSpaceOnUse">
<stop stop-color="#33F1C4"/>
<stop offset="1" stop-color="#049EE0"/>
</linearGradient>
<linearGradient id="paint1_linear_1446_2618" x1="42.6895" y1="14" x2="42.6895" y2="45.4357" gradientUnits="userSpaceOnUse">
<stop stop-color="#33F1C4"/>
<stop offset="1" stop-color="#049EE0"/>
</linearGradient>
</defs>
</svg>
