<svg width="10" height="16" viewBox="0 0 10 16" fill="none" xmlns="http://www.w3.org/2000/svg">
<path d="M0.604888 14.5485C0.35551 14.7667 0.330248 15.1457 0.548462 15.3951C0.766677 15.6445 1.14574 15.6698 1.39511 15.4515L0.604888 14.5485ZM9 7.9997L9.39511 8.45123C9.52532 8.3373 9.6 8.17271 9.6 7.9997C9.6 7.82668 9.52532 7.66209 9.39511 7.54816L9 7.9997ZM1.39581 0.548463C1.14643 0.330248 0.767371 0.35551 0.549156 0.604888C0.330941 0.854265 0.356204 1.23332 0.605581 1.45154L1.39581 0.548463ZM1.39511 15.4515L9.39511 8.45123L8.60489 7.54816L0.604888 14.5485L1.39511 15.4515ZM9.39511 7.54816L1.39581 0.548463L0.605581 1.45154L8.60489 8.45123L9.39511 7.54816Z" fill="#0C0C3D"/>
</svg>
