<svg width="727" height="582" viewBox="0 0 727 582" fill="none" xmlns="http://www.w3.org/2000/svg">
<rect opacity="0.502038" x="480.292" y="2" width="244.708" height="200.215" rx="26.6954" fill="white" fill-opacity="0.05" stroke="url(#paint0_linear_1417_2312)" stroke-width="2.13433"/>
<path opacity="0.802706" d="M569.008 161.162C567.768 161.162 566.697 160.922 565.796 160.441C564.915 159.961 564.195 159.321 563.635 158.52V160.922H561.383V139.906H563.635V148.343C564.195 147.522 564.915 146.871 565.796 146.391C566.697 145.911 567.768 145.671 569.008 145.671C570.469 145.671 571.74 146.021 572.821 146.721C573.922 147.402 574.773 148.332 575.373 149.513C575.974 150.674 576.274 151.975 576.274 153.416C576.274 154.837 575.974 156.138 575.373 157.319C574.773 158.5 573.922 159.441 572.821 160.141C571.74 160.822 570.469 161.162 569.008 161.162ZM568.708 159.12C569.829 159.12 570.78 158.86 571.56 158.34C572.361 157.819 572.971 157.129 573.392 156.268C573.812 155.388 574.022 154.437 574.022 153.416C574.022 152.375 573.812 151.425 573.392 150.564C572.971 149.703 572.361 149.013 571.56 148.493C570.78 147.972 569.829 147.712 568.708 147.712C567.607 147.712 566.667 147.972 565.886 148.493C565.106 149.013 564.515 149.703 564.115 150.564C563.715 151.425 563.514 152.375 563.514 153.416C563.514 154.437 563.715 155.388 564.115 156.268C564.515 157.129 565.106 157.819 565.886 158.34C566.667 158.86 567.607 159.12 568.708 159.12ZM579.238 160.922V145.911H581.489V149.603C581.569 149.343 581.72 149.003 581.94 148.583C582.18 148.142 582.52 147.702 582.96 147.262C583.401 146.821 583.951 146.451 584.612 146.151C585.292 145.831 586.093 145.671 587.013 145.671H587.163V147.922H586.893C585.772 147.922 584.802 148.232 583.981 148.853C583.181 149.453 582.56 150.244 582.12 151.225C581.699 152.185 581.489 153.216 581.489 154.317V160.922H579.238ZM595.721 161.162C594.2 161.162 592.879 160.822 591.758 160.141C590.637 159.441 589.776 158.5 589.176 157.319C588.575 156.138 588.275 154.837 588.275 153.416C588.275 151.975 588.575 150.674 589.176 149.513C589.776 148.332 590.637 147.402 591.758 146.721C592.879 146.021 594.2 145.671 595.721 145.671C597.262 145.671 598.583 146.021 599.684 146.721C600.804 147.402 601.665 148.332 602.265 149.513C602.866 150.674 603.166 151.975 603.166 153.416C603.166 154.837 602.866 156.138 602.265 157.319C601.665 158.5 600.804 159.441 599.684 160.141C598.583 160.822 597.262 161.162 595.721 161.162ZM595.721 159.12C596.841 159.12 597.782 158.86 598.543 158.34C599.323 157.819 599.914 157.129 600.314 156.268C600.714 155.388 600.914 154.437 600.914 153.416C600.914 152.375 600.714 151.425 600.314 150.564C599.914 149.703 599.323 149.013 598.543 148.493C597.782 147.972 596.841 147.712 595.721 147.712C594.62 147.712 593.679 147.972 592.899 148.493C592.118 149.013 591.528 149.703 591.127 150.564C590.727 151.425 590.527 152.375 590.527 153.416C590.527 154.437 590.727 155.388 591.127 156.268C591.528 157.129 592.118 157.819 592.899 158.34C593.679 158.86 594.62 159.12 595.721 159.12ZM606.152 160.922V139.906H608.404V153.356L615.639 145.911H618.791L612.757 151.825L619.241 160.922H616.479L611.226 153.386L608.404 156.178V160.922H606.152ZM627.124 161.162C625.603 161.162 624.272 160.822 623.131 160.141C621.99 159.441 621.1 158.5 620.459 157.319C619.839 156.138 619.529 154.837 619.529 153.416C619.529 151.975 619.829 150.674 620.429 149.513C621.03 148.332 621.89 147.402 623.011 146.721C624.132 146.021 625.453 145.671 626.974 145.671C628.515 145.671 629.836 146.021 630.937 146.721C632.058 147.402 632.918 148.332 633.519 149.513C634.119 150.674 634.419 151.975 634.419 153.416V154.317H621.84C621.96 155.198 622.241 156.008 622.681 156.749C623.141 157.469 623.752 158.05 624.512 158.49C625.273 158.91 626.153 159.12 627.154 159.12C628.215 159.12 629.106 158.89 629.826 158.43C630.547 157.95 631.107 157.339 631.507 156.599H633.969C633.449 157.94 632.618 159.04 631.477 159.901C630.356 160.742 628.905 161.162 627.124 161.162ZM621.87 152.215H632.078C631.878 150.934 631.337 149.864 630.457 149.003C629.576 148.142 628.415 147.712 626.974 147.712C625.533 147.712 624.372 148.142 623.491 149.003C622.631 149.864 622.09 150.934 621.87 152.215ZM637.171 160.922V145.911H639.422V149.603C639.502 149.343 639.652 149.003 639.873 148.583C640.113 148.142 640.453 147.702 640.893 147.262C641.334 146.821 641.884 146.451 642.545 146.151C643.225 145.831 644.026 145.671 644.946 145.671H645.096V147.922H644.826C643.705 147.922 642.735 148.232 641.914 148.853C641.114 149.453 640.493 150.244 640.053 151.225C639.632 152.185 639.422 153.216 639.422 154.317V160.922H637.171Z" fill="#1B006D"/>
<path d="M638.493 115.427H634.912V51.3481C634.912 50.5221 634.435 49.9716 633.719 49.9716L603.876 38L574.314 48.976C573.598 48.976 573.12 49.5265 573.12 50.3525L572.839 115.427H569.258C568.542 115.427 568.064 115.977 568.064 116.803V122.31C568.064 123.136 568.542 123.686 569.258 123.686H638.493C639.21 123.686 639.687 123.136 639.687 122.31V116.803C639.687 115.978 639.21 115.427 638.493 115.427ZM575.227 51.0844L603.876 40.6372L632.525 51.9714V115.427H614.619V100.285C614.619 99.4587 614.142 98.9081 613.425 98.9081H603.876H594.326C593.61 98.9081 593.132 99.4587 593.132 100.285V115.427H575.227V51.0844ZM595.52 115.427V101.661H602.682V115.427H595.52ZM605.069 101.661H612.232V115.427H605.069V101.661ZM570.452 120.933V118.18H574.033H594.326H603.876H613.426H633.719H637.3V120.933H570.452Z" fill="url(#paint1_linear_1417_2312)"/>
<path d="M590.745 55.6474H581.195C580.479 55.6474 580.002 56.2666 580.002 57.1956V66.4856C580.002 67.4146 580.479 68.0339 581.195 68.0339H590.745C591.461 68.0339 591.939 67.4146 591.939 66.4856V57.1958C591.939 56.2668 591.461 55.6474 590.745 55.6474ZM589.551 64.9374H582.389V58.744H589.551V64.9374Z" fill="url(#paint2_linear_1417_2312)"/>
<path d="M590.745 72.6796H581.195C580.479 72.6796 580.002 73.2988 580.002 74.2278V83.5178C580.002 84.4468 580.479 85.0661 581.195 85.0661H590.745C591.461 85.0661 591.939 84.4468 591.939 83.5178V74.2278C591.939 73.2988 591.461 72.6796 590.745 72.6796ZM589.551 81.9696H582.389V75.7762H589.551V81.9696Z" fill="url(#paint3_linear_1417_2312)"/>
<path d="M599.101 85.0661H608.651C609.367 85.0661 609.844 84.4468 609.844 83.5178V74.2278C609.844 73.2988 609.367 72.6796 608.651 72.6796H599.101C598.385 72.6796 597.907 73.2988 597.907 74.2278V83.5178C597.907 84.4466 598.385 85.0661 599.101 85.0661ZM600.295 75.776H607.457V81.9694H600.295V75.776Z" fill="url(#paint4_linear_1417_2312)"/>
<path d="M617.006 85.0661H626.556C627.272 85.0661 627.749 84.4468 627.749 83.5178V74.2278C627.749 73.2988 627.272 72.6796 626.556 72.6796H617.006C616.29 72.6796 615.812 73.2988 615.812 74.2278V83.5178C615.812 84.4466 616.29 85.0661 617.006 85.0661ZM618.2 75.776H625.362V81.9694H618.2V75.776Z" fill="url(#paint5_linear_1417_2312)"/>
<path d="M599.101 68.0344H608.651C609.367 68.0344 609.844 67.4152 609.844 66.4862V57.1962C609.844 56.2672 609.367 55.6479 608.651 55.6479H599.101C598.385 55.6479 597.907 56.2672 597.907 57.1962V66.4862C597.907 67.415 598.385 68.0344 599.101 68.0344ZM600.295 58.7444H607.457V64.9378H600.295V58.7444Z" fill="url(#paint6_linear_1417_2312)"/>
<path d="M617.006 68.0344H626.556C627.272 68.0344 627.749 67.4152 627.749 66.4862V57.1962C627.749 56.2672 627.272 55.6479 626.556 55.6479H617.006C616.29 55.6479 615.812 56.2672 615.812 57.1962V66.4862C615.812 67.415 616.29 68.0344 617.006 68.0344ZM618.2 58.7444H625.362V64.9378H618.2V58.7444Z" fill="url(#paint7_linear_1417_2312)"/>
<path d="M596.115 93.7207H610.439C611.155 93.7207 611.633 93.1701 611.633 92.3442C611.633 91.5182 611.155 90.9677 610.439 90.9677H596.115C595.398 90.9677 594.921 91.5182 594.921 92.3442C594.921 93.17 595.398 93.7207 596.115 93.7207Z" fill="url(#paint8_linear_1417_2312)"/>
<rect opacity="0.502038" x="179.969" y="135.477" width="367.062" height="311.446" rx="26.6954" fill="url(#paint9_linear_1417_2312)" fill-opacity="0.15" stroke="url(#paint10_linear_1417_2312)" stroke-width="2.13433"/>
<path fill-rule="evenodd" clip-rule="evenodd" d="M359.268 201.548L361.773 198.878L414.591 248.558L365.971 338.146L363.937 334.949L312.568 253.254L312.08 252.562L312.291 252.331L359.268 201.548ZM393.975 254.572L410.767 248.311L366.948 207.117L393.975 254.572ZM410.409 251.079L398.791 272.5L387.776 276.323L394.463 257.06L410.409 251.079ZM358.893 205.634L316.033 251.821L341.873 256.912L358.893 205.634ZM354.581 302.176L362.148 327.485L345.079 300.38L354.581 302.176ZM353.784 299.556L348.17 280.755L330.808 277.806L343.289 297.579L353.784 299.556ZM371.797 281.925L373.278 265.019L391.486 258.197L384.831 277.361L371.797 281.925ZM344.509 259.944L350.074 278.63L369.34 281.859L370.804 265.085L344.509 259.944ZM369.031 284.331L367.403 302.11L356.339 300.017L350.855 281.167L369.031 284.331ZM377.166 298.864L383.675 280.327L371.536 284.561L369.844 301.566L377.166 298.864ZM372.008 262.795L344.346 257.374L362.245 203.624L391.648 255.479L372.008 262.795ZM341.792 259.334L316.131 254.391L329.035 274.889L347.373 277.987L341.792 259.334ZM357.282 302.686L367.403 304.581L365.19 329.149L357.282 302.686ZM367.892 326.183L376.337 301.879L369.812 304.334L367.892 326.183ZM384.472 298.864L371.911 321.932L379.266 300.759L384.472 298.864ZM386.262 295.568L397.034 275.795L386.816 279.289L380.421 297.743L386.262 295.568Z" fill="url(#paint11_radial_1417_2312)"/>
<path d="M307.964 375.522C306.296 375.522 304.883 375.243 303.723 374.684C302.587 374.126 301.717 373.397 301.113 372.498C300.509 371.575 300.171 370.579 300.099 369.511H302.926C302.998 370.118 303.204 370.713 303.542 371.296C303.904 371.855 304.448 372.316 305.173 372.68C305.898 373.021 306.84 373.191 308 373.191C308.362 373.191 308.809 373.154 309.341 373.081C309.873 373.008 310.38 372.875 310.863 372.68C311.371 372.486 311.794 372.195 312.132 371.806C312.47 371.417 312.639 370.919 312.639 370.312C312.639 369.559 312.349 368.976 311.769 368.563C311.19 368.15 310.44 367.834 309.522 367.616C308.604 367.373 307.625 367.142 306.586 366.924C305.572 366.705 304.605 366.426 303.687 366.086C302.769 365.721 302.02 365.223 301.44 364.592C300.86 363.936 300.57 363.049 300.57 361.932C300.57 360.28 301.162 359.005 302.346 358.106C303.554 357.183 305.33 356.721 307.674 356.721C309.269 356.721 310.561 356.976 311.552 357.487C312.567 357.972 313.328 358.604 313.835 359.381C314.367 360.159 314.681 360.997 314.778 361.895H312.023C311.927 361.118 311.54 360.45 310.863 359.891C310.211 359.333 309.124 359.053 307.601 359.053C304.726 359.053 303.288 359.928 303.288 361.677C303.288 362.405 303.578 362.964 304.158 363.353C304.738 363.741 305.487 364.057 306.405 364.3C307.323 364.519 308.29 364.737 309.305 364.956C310.344 365.15 311.322 365.43 312.241 365.794C313.159 366.158 313.908 366.681 314.488 367.361C315.068 368.017 315.358 368.915 315.358 370.057C315.358 371.83 314.681 373.191 313.328 374.138C311.999 375.061 310.211 375.522 307.964 375.522Z" fill="#47328A"/>
<path d="M326.899 375.522C325.063 375.522 323.456 375.11 322.078 374.284C320.701 373.433 319.626 372.292 318.853 370.859C318.104 369.425 317.729 367.847 317.729 366.122C317.729 364.373 318.091 362.794 318.816 361.385C319.541 359.952 320.58 358.823 321.933 357.997C323.287 357.147 324.881 356.721 326.718 356.721C328.578 356.721 330.173 357.147 331.502 357.997C332.855 358.823 333.894 359.952 334.619 361.385C335.344 362.794 335.707 364.373 335.707 366.122V367.215H320.52C320.665 368.284 321.003 369.268 321.535 370.166C322.091 371.041 322.828 371.745 323.746 372.28C324.664 372.79 325.727 373.045 326.935 373.045C328.216 373.045 329.291 372.765 330.161 372.207C331.031 371.624 331.708 370.883 332.191 369.984H335.163C334.535 371.612 333.532 372.948 332.155 373.992C330.801 375.012 329.05 375.522 326.899 375.522ZM320.556 364.664H332.88C332.638 363.11 331.985 361.81 330.922 360.766C329.859 359.721 328.458 359.199 326.718 359.199C324.978 359.199 323.577 359.721 322.513 360.766C321.474 361.81 320.822 363.11 320.556 364.664Z" fill="#47328A"/>
<path d="M339.028 375.231V357.013H341.747V361.495C341.843 361.179 342.024 360.766 342.29 360.256C342.58 359.721 342.991 359.187 343.523 358.653C344.054 358.118 344.719 357.669 345.516 357.304C346.338 356.916 347.304 356.721 348.416 356.721H348.597V359.454H348.271C346.918 359.454 345.746 359.831 344.755 360.584C343.788 361.312 343.039 362.272 342.508 363.462C342 364.628 341.747 365.879 341.747 367.215V375.231H339.028Z" fill="#47328A"/>
<path d="M359.109 375.522C357.273 375.522 355.666 375.11 354.289 374.284C352.911 373.433 351.836 372.292 351.063 370.859C350.314 369.425 349.939 367.847 349.939 366.122C349.939 364.373 350.302 362.794 351.027 361.385C351.751 359.952 352.79 358.823 354.144 357.997C355.497 357.147 357.092 356.721 358.928 356.721C360.789 356.721 362.383 357.147 363.712 357.997C365.066 358.823 366.105 359.952 366.829 361.385C367.554 362.794 367.917 364.373 367.917 366.122V367.215H352.73C352.875 368.284 353.213 369.268 353.745 370.166C354.301 371.041 355.038 371.745 355.956 372.28C356.874 372.79 357.937 373.045 359.145 373.045C360.426 373.045 361.501 372.765 362.371 372.207C363.241 371.624 363.918 370.883 364.401 369.984H367.373C366.745 371.612 365.742 372.948 364.365 373.992C363.012 375.012 361.26 375.522 359.109 375.522ZM352.766 364.664H365.09C364.848 363.11 364.196 361.81 363.132 360.766C362.069 359.721 360.668 359.199 358.928 359.199C357.188 359.199 355.787 359.721 354.724 360.766C353.684 361.81 353.032 363.11 352.766 364.664Z" fill="#47328A"/>
<path d="M371.238 375.231V357.013H373.957V359.855C374.609 358.98 375.407 358.24 376.349 357.632C377.291 357.025 378.499 356.721 379.973 356.721C381.23 356.721 382.402 357.025 383.489 357.632C384.601 358.215 385.495 359.102 386.171 360.292C386.872 361.458 387.223 362.903 387.223 364.628V375.231H384.504V364.701C384.504 363.049 384.033 361.725 383.091 360.729C382.148 359.709 380.928 359.199 379.43 359.199C378.415 359.199 377.497 359.43 376.675 359.891C375.854 360.353 375.189 361.009 374.682 361.859C374.198 362.685 373.957 363.644 373.957 364.737V375.231H371.238Z" fill="#47328A"/>
<path d="M391.659 353.952V350.382H394.595V353.952H391.659ZM391.768 375.231V357.013H394.486V375.231H391.768Z" fill="#47328A"/>
<path d="M401.158 375.231V359.418H397.461V357.013H401.158V350.491H403.877V357.013H408.045V359.418H403.877V375.231H401.158Z" fill="#47328A"/>
<path d="M412.908 382.445L416.206 374.976L408.812 357.013H411.821L417.656 371.952L423.6 357.013H426.572L415.844 382.445H412.908Z" fill="#47328A"/>
<rect opacity="0.502038" x="2" y="380.185" width="244.708" height="200.215" rx="26.6954" fill="white" fill-opacity="0.05" stroke="url(#paint12_linear_1417_2312)" stroke-width="2.13433"/>
<path d="M155.375 476.835L155.112 476.763C151.305 475.77 150.018 474.821 148.324 474.196C142.313 471.977 140.749 470.377 140.349 469.622C140.335 469.596 140.324 469.565 140.311 469.539L140.272 464.449C143.488 460.278 145.787 455.074 145.787 449.682C145.787 449.682 147.957 440.72 142.767 432.285L142.764 432.247C142.76 432.248 142.753 432.248 142.744 432.25C141.621 430.428 140.153 428.633 138.243 426.958C136.246 425.207 131.318 423 125.374 423C121.305 423 116.759 424.034 112.353 426.958C103.805 432.631 104.668 446.937 104.668 446.937C104.668 446.937 105.266 447.083 106.342 447.22C106.263 448.021 106.223 448.842 106.223 449.682C106.223 455.074 108.522 460.279 111.737 464.449L111.699 469.539C111.685 469.565 111.674 469.596 111.661 469.622C111.261 470.377 109.697 471.978 103.686 474.196C101.992 474.821 100.704 475.77 96.8976 476.763L96.6347 476.835C93.1698 477.945 90.8396 481.059 90.8396 484.573V494.341H118.451H126.006H133.789H135.324H150.665H161.17V484.573C161.17 481.059 158.84 477.945 155.375 476.835ZM141.29 435.986C142.135 437.848 142.704 439.87 142.978 441.999C143.02 442.332 143.056 442.657 143.083 442.974C142.589 442.079 142.048 441.315 141.438 440.648C140.767 439.91 140.014 439.306 139.194 438.84C139.814 437.383 140.596 436.509 141.29 435.986ZM108.342 439.513C108.789 437.322 109.45 435.387 110.313 433.762C111.31 431.874 112.58 430.41 114.085 429.411C117.523 427.129 121.323 425.973 125.374 425.973C130.601 425.973 134.778 427.929 136.185 429.163C137.614 430.415 138.834 431.815 139.836 433.343C138.618 434.133 137.27 435.492 136.306 437.823C135.803 437.739 135.284 437.697 134.754 437.697C132.464 437.697 129.997 438.447 127.21 439.99C120.498 443.705 114.29 444.485 110.263 444.485C109.299 444.485 108.452 444.44 107.749 444.379C107.809 443.078 107.967 441.358 108.342 439.513ZM118.845 491.367H93.9069V484.572C93.9069 482.356 95.3698 480.394 97.5494 479.674L97.7202 479.626C100.59 478.877 102.174 478.143 103.448 477.551C103.94 477.325 104.365 477.124 104.778 476.972C107.043 476.136 109.87 474.982 111.948 473.515L118.463 476.815L119.588 475.892L120.382 479.733L118.845 491.367ZM114.2 471.3C114.267 471.194 114.332 471.087 114.391 470.978C114.445 470.876 114.485 470.789 114.505 470.737L114.762 470.188L114.766 469.559L114.78 467.841C116.433 469.426 118.193 470.745 119.928 471.716L118.056 473.253L114.2 471.3ZM126.006 491.367H121.936L123.312 480.965H128.693L130.246 491.367H126.006ZM122.264 473.698L123.011 473.084C124.06 473.419 125.069 473.598 126.006 473.598C126.99 473.598 128.057 473.397 129.167 473.029L129.779 473.532L128.86 477.991H123.15L122.264 473.698ZM126.006 470.623C124.734 470.623 123.065 470.066 121.303 469.056C119.332 467.919 117.359 466.295 115.598 464.349C111.589 459.924 109.29 454.578 109.29 449.682C109.29 448.922 109.328 448.177 109.403 447.446C109.681 447.454 109.967 447.457 110.263 447.457C114.753 447.457 121.483 446.584 128.732 442.571C131.172 441.22 133.145 440.669 134.754 440.669C138.616 440.669 140.367 443.845 141.418 446.719C141.778 447.703 142.23 448.382 142.701 448.845C142.713 449.122 142.719 449.402 142.719 449.682C142.719 454.578 140.421 459.924 136.412 464.349C134.65 466.295 132.677 467.922 130.707 469.056C128.945 470.066 127.275 470.623 126.006 470.623ZM137.868 471.39L134.189 473.254L132.221 471.638C133.911 470.674 135.621 469.382 137.23 467.841L137.243 469.559L137.248 470.188L137.502 470.737C137.524 470.785 137.562 470.874 137.618 470.978C137.693 471.118 137.778 471.255 137.868 471.39ZM147.595 491.367H138.392V488.398H147.595V491.367ZM158.103 491.367H150.665V485.424H146.063C146.063 484.603 145.375 483.939 144.528 483.939H141.461C140.614 483.939 139.926 484.603 139.926 485.424H135.324V491.367H133.347L131.617 479.785L132.455 475.727L133.783 476.815L140.16 473.582C142.229 475.019 145.005 476.151 147.234 476.974C147.645 477.124 148.069 477.325 148.562 477.551C149.836 478.143 151.42 478.877 154.289 479.626L154.46 479.674C156.642 480.395 158.103 482.356 158.103 484.573V491.367Z" fill="url(#paint13_linear_1417_2312)"/>
<path opacity="0.802706" d="M86.9846 531.577V518.609H83.9368V516.637H86.9846V511.288H89.2256V516.637H92.6619V518.609H89.2256V531.577H86.9846ZM95.1172 531.577V516.637H97.3583V520.312C97.438 520.053 97.5874 519.714 97.8065 519.296C98.0455 518.858 98.3842 518.419 98.8224 517.981C99.2607 517.543 99.8085 517.174 100.466 516.876C101.143 516.557 101.94 516.398 102.856 516.398H103.006V518.639H102.737C101.621 518.639 100.655 518.947 99.8384 519.565C99.0416 520.162 98.424 520.949 97.9858 521.925C97.5674 522.882 97.3583 523.907 97.3583 525.003V531.577H95.1172ZM111.343 531.816C109.889 531.816 108.614 531.477 107.519 530.8C106.443 530.103 105.606 529.166 105.009 527.991C104.411 526.816 104.112 525.521 104.112 524.107C104.112 522.672 104.411 521.378 105.009 520.222C105.606 519.047 106.443 518.121 107.519 517.443C108.614 516.746 109.889 516.398 111.343 516.398C112.578 516.398 113.634 516.637 114.511 517.115C115.407 517.593 116.134 518.24 116.692 519.057V516.637H118.933V531.577H116.692V529.186C116.134 529.983 115.407 530.621 114.511 531.099C113.634 531.577 112.578 531.816 111.343 531.816ZM111.642 529.784C112.758 529.784 113.694 529.525 114.451 529.007C115.228 528.489 115.815 527.802 116.214 526.945C116.612 526.069 116.811 525.123 116.811 524.107C116.811 523.071 116.612 522.125 116.214 521.268C115.815 520.411 115.228 519.724 114.451 519.206C113.694 518.688 112.758 518.429 111.642 518.429C110.547 518.429 109.6 518.688 108.803 519.206C108.007 519.724 107.399 520.411 106.981 521.268C106.562 522.125 106.353 523.071 106.353 524.107C106.353 525.123 106.562 526.069 106.981 526.945C107.399 527.802 108.007 528.489 108.803 529.007C109.6 529.525 110.547 529.784 111.642 529.784ZM129.114 531.816C127.66 531.816 126.385 531.477 125.289 530.8C124.214 530.103 123.377 529.166 122.779 527.991C122.182 526.816 121.883 525.521 121.883 524.107C121.883 522.672 122.182 521.378 122.779 520.222C123.377 519.047 124.214 518.121 125.289 517.443C126.385 516.746 127.66 516.398 129.114 516.398C130.349 516.398 131.405 516.637 132.281 517.115C133.178 517.593 133.905 518.24 134.463 519.057V510.66H136.704V531.577H134.463V529.186C133.905 529.983 133.178 530.621 132.281 531.099C131.405 531.577 130.349 531.816 129.114 531.816ZM129.413 529.784C130.528 529.784 131.465 529.525 132.222 529.007C132.999 528.489 133.586 527.802 133.985 526.945C134.383 526.069 134.582 525.123 134.582 524.107C134.582 523.071 134.383 522.125 133.985 521.268C133.586 520.411 132.999 519.724 132.222 519.206C131.465 518.688 130.528 518.429 129.413 518.429C128.317 518.429 127.371 518.688 126.574 519.206C125.777 519.724 125.17 520.411 124.752 521.268C124.333 522.125 124.124 523.071 124.124 524.107C124.124 525.123 124.333 526.069 124.752 526.945C125.17 527.802 125.777 528.489 126.574 529.007C127.371 529.525 128.317 529.784 129.413 529.784ZM147.214 531.816C145.7 531.816 144.375 531.477 143.239 530.8C142.104 530.103 141.218 529.166 140.58 527.991C139.963 526.816 139.654 525.521 139.654 524.107C139.654 522.672 139.953 521.378 140.55 520.222C141.148 519.047 142.004 518.121 143.12 517.443C144.235 516.746 145.55 516.398 147.064 516.398C148.598 516.398 149.913 516.746 151.008 517.443C152.124 518.121 152.981 519.047 153.578 520.222C154.176 521.378 154.475 522.672 154.475 524.107V525.003H141.955C142.074 525.88 142.353 526.686 142.791 527.423C143.249 528.141 143.857 528.718 144.614 529.157C145.371 529.575 146.247 529.784 147.243 529.784C148.299 529.784 149.186 529.555 149.903 529.097C150.62 528.619 151.178 528.011 151.576 527.274H154.026C153.508 528.609 152.682 529.704 151.546 530.561C150.431 531.398 148.986 531.816 147.214 531.816ZM141.984 522.911H152.144C151.945 521.637 151.407 520.571 150.53 519.714C149.654 518.858 148.498 518.429 147.064 518.429C145.63 518.429 144.475 518.858 143.598 519.714C142.741 520.571 142.204 521.637 141.984 522.911ZM157.213 531.577V516.637H159.454V520.312C159.534 520.053 159.683 519.714 159.902 519.296C160.141 518.858 160.48 518.419 160.918 517.981C161.356 517.543 161.904 517.174 162.561 516.876C163.239 516.557 164.036 516.398 164.952 516.398H165.101V518.639H164.832C163.717 518.639 162.751 518.947 161.934 519.565C161.137 520.162 160.52 520.949 160.081 521.925C159.663 522.882 159.454 523.907 159.454 525.003V531.577H157.213Z" fill="#1B006D"/>
<defs>
<linearGradient id="paint0_linear_1417_2312" x1="602.866" y1="324.155" x2="713.958" y2="324.155" gradientUnits="userSpaceOnUse">
<stop stop-color="#C965FF"/>
<stop offset="1" stop-color="#3DC0FA"/>
</linearGradient>
<linearGradient id="paint1_linear_1417_2312" x1="586.246" y1="58.1217" x2="637.645" y2="104.735" gradientUnits="userSpaceOnUse">
<stop stop-color="#C965FF"/>
<stop offset="1" stop-color="#3DC0FA"/>
</linearGradient>
<linearGradient id="paint2_linear_1417_2312" x1="583.032" y1="58.5561" x2="590.49" y2="66.3543" gradientUnits="userSpaceOnUse">
<stop stop-color="#C965FF"/>
<stop offset="1" stop-color="#3DC0FA"/>
</linearGradient>
<linearGradient id="paint3_linear_1417_2312" x1="583.032" y1="75.5883" x2="590.49" y2="83.3864" gradientUnits="userSpaceOnUse">
<stop stop-color="#C965FF"/>
<stop offset="1" stop-color="#3DC0FA"/>
</linearGradient>
<linearGradient id="paint4_linear_1417_2312" x1="600.938" y1="75.5883" x2="608.396" y2="83.3865" gradientUnits="userSpaceOnUse">
<stop stop-color="#C965FF"/>
<stop offset="1" stop-color="#3DC0FA"/>
</linearGradient>
<linearGradient id="paint5_linear_1417_2312" x1="618.843" y1="75.5883" x2="626.301" y2="83.3864" gradientUnits="userSpaceOnUse">
<stop stop-color="#C965FF"/>
<stop offset="1" stop-color="#3DC0FA"/>
</linearGradient>
<linearGradient id="paint6_linear_1417_2312" x1="600.938" y1="58.5566" x2="608.396" y2="66.3548" gradientUnits="userSpaceOnUse">
<stop stop-color="#C965FF"/>
<stop offset="1" stop-color="#3DC0FA"/>
</linearGradient>
<linearGradient id="paint7_linear_1417_2312" x1="618.843" y1="58.5566" x2="626.301" y2="66.3548" gradientUnits="userSpaceOnUse">
<stop stop-color="#C965FF"/>
<stop offset="1" stop-color="#3DC0FA"/>
</linearGradient>
<linearGradient id="paint8_linear_1417_2312" x1="599.163" y1="91.6142" x2="599.656" y2="94.858" gradientUnits="userSpaceOnUse">
<stop stop-color="#C965FF"/>
<stop offset="1" stop-color="#3DC0FA"/>
</linearGradient>
<linearGradient id="paint9_linear_1417_2312" x1="363.83" y1="636.607" x2="530.467" y2="636.607" gradientUnits="userSpaceOnUse">
<stop stop-color="#C965FF"/>
<stop offset="1" stop-color="#3DC0FA"/>
</linearGradient>
<linearGradient id="paint10_linear_1417_2312" x1="363.83" y1="636.607" x2="530.467" y2="636.607" gradientUnits="userSpaceOnUse">
<stop stop-color="#C965FF"/>
<stop offset="1" stop-color="#3DC0FA"/>
</linearGradient>
<radialGradient id="paint11_radial_1417_2312" cx="0" cy="0" r="1" gradientUnits="userSpaceOnUse" gradientTransform="translate(371.269 264.591) scale(57.0059 77.4456)">
<stop stop-color="#DA51F9"/>
<stop offset="1" stop-color="#5FA6FB"/>
</radialGradient>
<linearGradient id="paint12_linear_1417_2312" x1="124.574" y1="702.339" x2="235.665" y2="702.339" gradientUnits="userSpaceOnUse">
<stop stop-color="#C965FF"/>
<stop offset="1" stop-color="#3DC0FA"/>
</linearGradient>
<linearGradient id="paint13_linear_1417_2312" x1="126.068" y1="537.791" x2="157.996" y2="537.791" gradientUnits="userSpaceOnUse">
<stop stop-color="#C965FF"/>
<stop offset="1" stop-color="#3DC0FA"/>
</linearGradient>
</defs>
</svg>
