<svg width="98" height="32" viewBox="0 0 98 32" fill="none" xmlns="http://www.w3.org/2000/svg">
<path fill-rule="evenodd" clip-rule="evenodd" d="M10.4181 1.25773L10.9713 0.668396L22.6324 11.6366L11.8982 31.4158L11.4491 30.71L0.107773 12.6734L0 12.5206L0.0467018 12.4697L10.4181 1.25773ZM18.0808 12.9645L21.7882 11.5821L12.1137 2.48736L18.0808 12.9645ZM21.7092 12.1933L19.1442 16.9225L16.7121 17.7665L18.1886 13.5138L21.7092 12.1933ZM10.3355 2.15997L0.872958 12.3569L6.57777 13.481L10.3355 2.15997ZM9.38347 23.4743L11.054 29.0621L7.28548 23.0777L9.38347 23.4743ZM9.20748 22.8959L7.96808 18.7451L4.13494 18.0939L6.89035 22.4593L9.20748 22.8959ZM13.1843 19.0034L13.5112 15.2709L17.5312 13.7648L16.0619 17.9957L13.1843 19.0034ZM7.15976 14.1504L8.38838 18.2757L12.6418 18.9888L12.9652 15.2854L7.15976 14.1504ZM12.5735 19.5344L12.2143 23.4597L9.77143 22.9977L8.56078 18.8359L12.5735 19.5344ZM14.3697 22.743L15.8067 18.6504L13.1268 19.5854L12.7531 23.3397L14.3697 22.743ZM13.2309 14.7798L7.12378 13.5829L11.0755 1.71613L17.567 13.1645L13.2309 14.7798ZM6.55985 14.0158L0.89456 12.9244L3.74337 17.4499L7.79206 18.1339L6.55985 14.0158ZM9.97979 23.587L12.2143 24.0054L11.7257 29.4294L9.97979 23.587ZM12.3221 28.7747L14.1866 23.4088L12.746 23.9509L12.3221 28.7747ZM15.9828 22.743L13.2094 27.8361L14.8332 23.1614L15.9828 22.743ZM16.378 22.0155L18.7562 17.6501L16.5001 18.4213L15.0883 22.4957L16.378 22.0155Z" fill="#0C0C3D"/>
<path d="M34.7204 11.9531C33.9236 11.9531 33.248 11.8203 32.6936 11.5547C32.1508 11.289 31.735 10.9426 31.4463 10.5153C31.1576 10.0764 30.9959 9.6029 30.9613 9.09474H32.3125C32.3471 9.38347 32.4453 9.66641 32.607 9.94359C32.7802 10.2092 33.0401 10.4286 33.3865 10.6019C33.733 10.7636 34.1834 10.8444 34.7378 10.8444C34.911 10.8444 35.1246 10.8271 35.3787 10.7924C35.6328 10.7578 35.8753 10.6943 36.1063 10.6019C36.3488 10.5095 36.5509 10.3709 36.7126 10.1861C36.8743 10.0013 36.9551 9.76458 36.9551 9.47586C36.9551 9.11784 36.8166 8.84067 36.5394 8.64434C36.2622 8.44801 35.9042 8.29787 35.4653 8.19393C35.0265 8.07844 34.5588 7.96873 34.0621 7.86479C33.5771 7.76085 33.1151 7.62804 32.6763 7.46635C32.2374 7.29312 31.8794 7.05637 31.6022 6.7561C31.3251 6.44428 31.1865 6.02274 31.1865 5.49149C31.1865 4.70617 31.4694 4.09985 32.0353 3.67254C32.6128 3.23369 33.4616 3.01426 34.5818 3.01426C35.3441 3.01426 35.9619 3.13552 36.4354 3.37805C36.9205 3.60903 37.2843 3.9093 37.5268 4.27886C37.7809 4.64843 37.931 5.04686 37.9772 5.47417H36.6606C36.6145 5.10461 36.4297 4.78701 36.1063 4.52139C35.7945 4.25576 35.2748 4.12295 34.5472 4.12295C33.1729 4.12295 32.4857 4.53871 32.4857 5.37023C32.4857 5.7167 32.6243 5.98232 32.9015 6.1671C33.1787 6.35189 33.5367 6.50202 33.9755 6.61751C34.4144 6.72145 34.8763 6.82539 35.3614 6.92933C35.858 7.02172 36.3257 7.15453 36.7646 7.32777C37.2034 7.501 37.5615 7.7493 37.8386 8.07267C38.1158 8.38449 38.2544 8.8118 38.2544 9.3546C38.2544 10.1977 37.931 10.8444 37.2843 11.2948C36.6491 11.7337 35.7945 11.9531 34.7204 11.9531Z" fill="black"/>
<path d="M43.7705 11.9531C42.8928 11.9531 42.1248 11.7568 41.4665 11.3641C40.8082 10.9599 40.2943 10.4171 39.9247 9.73571C39.5667 9.05432 39.3877 8.30365 39.3877 7.48368C39.3877 6.65216 39.561 5.90148 39.9074 5.23164C40.2539 4.55026 40.7505 4.01324 41.3972 3.62057C42.044 3.21636 42.8062 3.01426 43.6839 3.01426C44.5732 3.01426 45.3354 3.21636 45.9706 3.62057C46.6173 4.01324 47.1139 4.55026 47.4604 5.23164C47.8069 5.90148 47.9801 6.65216 47.9801 7.48368V8.00338H40.7216C40.7909 8.51153 40.9526 8.97926 41.2067 9.40657C41.4723 9.82232 41.8245 10.1572 42.2634 10.4113C42.7022 10.6538 43.2104 10.7751 43.7878 10.7751C44.3999 10.7751 44.9139 10.6423 45.3296 10.3767C45.7454 10.0995 46.0687 9.74726 46.2997 9.31995H47.7202C47.42 10.0937 46.9407 10.7289 46.2824 11.2255C45.6357 11.7106 44.7984 11.9531 43.7705 11.9531ZM40.7389 6.79074H46.6289C46.5134 6.05161 46.2016 5.43375 45.6934 4.93715C45.1853 4.44055 44.5154 4.19224 43.6839 4.19224C42.8524 4.19224 42.1825 4.44055 41.6744 4.93715C41.1778 5.43375 40.866 6.05161 40.7389 6.79074Z" fill="black"/>
<path d="M49.5676 11.8145V3.15285H50.8669V5.28361C50.913 5.13348 50.9997 4.93715 51.1267 4.69462C51.2653 4.44055 51.4616 4.18647 51.7157 3.93239C51.9698 3.67832 52.2874 3.46466 52.6685 3.29143C53.0611 3.10665 53.5231 3.01426 54.0543 3.01426H54.141V4.31351H53.9851C53.3383 4.31351 52.7782 4.49252 52.3047 4.85053C51.8427 5.197 51.4847 5.65318 51.2306 6.21907C50.9881 6.77342 50.8669 7.36819 50.8669 8.00338V11.8145H49.5676Z" fill="black"/>
<path d="M59.1653 11.9531C58.2876 11.9531 57.5196 11.7568 56.8613 11.3641C56.203 10.9599 55.6891 10.4171 55.3195 9.73571C54.9615 9.05432 54.7825 8.30365 54.7825 7.48368C54.7825 6.65216 54.9557 5.90148 55.3022 5.23164C55.6486 4.55026 56.1452 4.01324 56.792 3.62057C57.4387 3.21636 58.2009 3.01426 59.0786 3.01426C59.9679 3.01426 60.7301 3.21636 61.3653 3.62057C62.0121 4.01324 62.5087 4.55026 62.8551 5.23164C63.2016 5.90148 63.3748 6.65216 63.3748 7.48368V8.00338H56.1164C56.1857 8.51153 56.3473 8.97926 56.6014 9.40657C56.867 9.82232 57.2193 10.1572 57.6581 10.4113C58.097 10.6538 58.6051 10.7751 59.1826 10.7751C59.7947 10.7751 60.3086 10.6423 60.7244 10.3767C61.1401 10.0995 61.4635 9.74726 61.6945 9.31995H63.115C62.8147 10.0937 62.3354 10.7289 61.6772 11.2255C61.0304 11.7106 60.1931 11.9531 59.1653 11.9531ZM56.1337 6.79074H62.0236C61.9081 6.05161 61.5963 5.43375 61.0882 4.93715C60.58 4.44055 59.9102 4.19224 59.0786 4.19224C58.2471 4.19224 57.5773 4.44055 57.0691 4.93715C56.5725 5.43375 56.2607 6.05161 56.1337 6.79074Z" fill="black"/>
<path d="M64.9624 11.8145V3.15285H66.2616V4.50406C66.5734 4.0883 66.9545 3.73606 67.4049 3.44734C67.8554 3.15862 68.4328 3.01426 69.1373 3.01426C69.7378 3.01426 70.2979 3.15862 70.8176 3.44734C71.3489 3.72451 71.7762 4.14605 72.0996 4.71194C72.4345 5.26629 72.6019 5.95345 72.6019 6.77342V11.8145H71.3027V6.80807C71.3027 6.02274 71.0775 5.39333 70.6271 4.91982C70.1767 4.43477 69.5935 4.19224 68.8774 4.19224C68.3924 4.19224 67.9535 4.30196 67.5609 4.52139C67.1682 4.74082 66.8506 5.05264 66.6081 5.45685C66.3771 5.84951 66.2616 6.30569 66.2616 6.82539V11.8145H64.9624Z" fill="black"/>
<path d="M74.7224 1.69769V0H76.1256V1.69769H74.7224ZM74.7744 11.8145V3.15285H76.0736V11.8145H74.7744Z" fill="black"/>
<path d="M79.2625 11.8145V4.29618H77.4955V3.15285H79.2625V0.0519703H80.5617V3.15285H82.5539V4.29618H80.5617V11.8145H79.2625Z" fill="black"/>
<path d="M84.8782 15.2445L86.4546 11.6932L82.9207 3.15285H84.3585L87.1476 10.2554L89.9886 3.15285H91.4091L86.2814 15.2445H84.8782Z" fill="black"/>
<path d="M32.4739 29.1086V21.5903H30.9841V20.4469H32.4739V19.6847C32.4739 18.7377 32.7569 18.0274 33.3227 17.5539C33.9002 17.0804 34.6855 16.8437 35.6787 16.8437H35.7827V18.0736H35.6094C35.0089 18.0736 34.5527 18.2122 34.2409 18.4894C33.9291 18.755 33.7732 19.1881 33.7732 19.7887V20.4469H35.7827V21.5903H33.7732V29.1086H32.4739Z" fill="black"/>
<path d="M36.8912 18.9918V17.2941H38.2944V18.9918H36.8912ZM36.9432 29.1086V20.4469H38.2424V29.1086H36.9432Z" fill="black"/>
<path d="M40.4958 29.1086V20.4469H41.7951V21.7982C42.1069 21.3824 42.488 21.0302 42.9384 20.7414C43.3888 20.4527 43.9663 20.3084 44.6707 20.3084C45.2713 20.3084 45.8314 20.4527 46.3511 20.7414C46.8824 21.0186 47.3097 21.4401 47.633 22.006C47.9679 22.5604 48.1354 23.2475 48.1354 24.0675V29.1086H46.8362V24.1022C46.8362 23.3168 46.611 22.6874 46.1605 22.2139C45.7101 21.7289 45.1269 21.4863 44.4109 21.4863C43.9258 21.4863 43.487 21.5961 43.0943 21.8155C42.7017 22.0349 42.3841 22.3467 42.1415 22.7509C41.9106 23.1436 41.7951 23.5998 41.7951 24.1195V29.1086H40.4958Z" fill="black"/>
<path d="M53.9631 29.2472C53.12 29.2472 52.3809 29.0509 51.7457 28.6582C51.1221 28.254 50.637 27.7112 50.2905 27.0298C49.9441 26.3484 49.7708 25.5977 49.7708 24.7778C49.7708 23.9463 49.9441 23.1956 50.2905 22.5257C50.637 21.8444 51.1221 21.3073 51.7457 20.9147C52.3809 20.5105 53.12 20.3084 53.9631 20.3084C54.6791 20.3084 55.2912 20.4469 55.7994 20.7241C56.3191 21.0013 56.7406 21.3766 57.064 21.8501V20.4469H58.3632V29.1086H57.064V27.7227C56.7406 28.1847 56.3191 28.5543 55.7994 28.8314C55.2912 29.1086 54.6791 29.2472 53.9631 29.2472ZM54.1363 28.0692C54.7831 28.0692 55.3258 27.9191 55.7647 27.6188C56.2151 27.3185 56.5558 26.9201 56.7868 26.4235C57.0178 25.9153 57.1332 25.3668 57.1332 24.7778C57.1332 24.1772 57.0178 23.6287 56.7868 23.1321C56.5558 22.6355 56.2151 22.237 55.7647 21.9367C55.3258 21.6365 54.7831 21.4863 54.1363 21.4863C53.5011 21.4863 52.9526 21.6365 52.4906 21.9367C52.0286 22.237 51.6764 22.6355 51.4339 23.1321C51.1913 23.6287 51.0701 24.1772 51.0701 24.7778C51.0701 25.3668 51.1913 25.9153 51.4339 26.4235C51.6764 26.9201 52.0286 27.3185 52.4906 27.6188C52.9526 27.9191 53.5011 28.0692 54.1363 28.0692Z" fill="black"/>
<path d="M60.6105 29.1086V20.4469H61.9097V21.7982C62.2216 21.3824 62.6027 21.0302 63.0531 20.7414C63.5035 20.4527 64.0809 20.3084 64.7854 20.3084C65.386 20.3084 65.9461 20.4527 66.4658 20.7414C66.997 21.0186 67.4243 21.4401 67.7477 22.006C68.0826 22.5604 68.2501 23.2475 68.2501 24.0675V29.1086H66.9508V24.1022C66.9508 23.3168 66.7256 22.6874 66.2752 22.2139C65.8248 21.7289 65.2416 21.4863 64.5256 21.4863C64.0405 21.4863 63.6017 21.5961 63.209 21.8155C62.8163 22.0349 62.4987 22.3467 62.2562 22.7509C62.0252 23.1436 61.9097 23.5998 61.9097 24.1195V29.1086H60.6105Z" fill="black"/>
<path d="M74.147 29.2472C73.2809 29.2472 72.5302 29.0509 71.895 28.6582C71.2598 28.254 70.7632 27.7112 70.4052 27.0298C70.0587 26.3484 69.8855 25.5977 69.8855 24.7778C69.8855 23.9463 70.0587 23.1956 70.4052 22.5257C70.7632 21.8444 71.2598 21.3073 71.895 20.9147C72.5302 20.5105 73.2809 20.3084 74.147 20.3084C75.1749 20.3084 76.0468 20.574 76.7629 21.1052C77.4905 21.6365 77.9813 22.3236 78.2354 23.1667H76.8322C76.6358 22.6701 76.3182 22.2659 75.8794 21.9541C75.4521 21.6422 74.9324 21.4863 74.3203 21.4863C73.6851 21.4863 73.1308 21.6365 72.6572 21.9367C72.1837 22.237 71.82 22.6355 71.5659 23.1321C71.3118 23.6287 71.1848 24.1772 71.1848 24.7778C71.1848 25.3668 71.3118 25.9153 71.5659 26.4235C71.82 26.9201 72.1837 27.3185 72.6572 27.6188C73.1308 27.9191 73.6851 28.0692 74.3203 28.0692C74.9324 28.0692 75.4521 27.9133 75.8794 27.6015C76.3182 27.2897 76.6358 26.8854 76.8322 26.3888H78.2354C77.9813 27.2319 77.4905 27.9191 76.7629 28.4503C76.0468 28.9816 75.1749 29.2472 74.147 29.2472Z" fill="black"/>
<path d="M79.7935 18.9918V17.2941H81.1967V18.9918H79.7935ZM79.8455 29.1086V20.4469H81.1447V29.1086H79.8455Z" fill="black"/>
<path d="M87.0533 29.2472C86.2103 29.2472 85.4711 29.0509 84.8359 28.6582C84.2123 28.254 83.7273 27.7112 83.3808 27.0298C83.0343 26.3484 82.8611 25.5977 82.8611 24.7778C82.8611 23.9463 83.0343 23.1956 83.3808 22.5257C83.7273 21.8444 84.2123 21.3073 84.8359 20.9147C85.4711 20.5105 86.2103 20.3084 87.0533 20.3084C87.7694 20.3084 88.3815 20.4469 88.8896 20.7241C89.4093 21.0013 89.8308 21.3766 90.1542 21.8501V20.4469H91.4535V29.1086H90.1542V27.7227C89.8308 28.1847 89.4093 28.5543 88.8896 28.8314C88.3815 29.1086 87.7694 29.2472 87.0533 29.2472ZM87.2266 28.0692C87.8733 28.0692 88.4161 27.9191 88.8549 27.6188C89.3054 27.3185 89.6461 26.9201 89.877 26.4235C90.108 25.9153 90.2235 25.3668 90.2235 24.7778C90.2235 24.1772 90.108 23.6287 89.877 23.1321C89.6461 22.6355 89.3054 22.237 88.8549 21.9367C88.4161 21.6365 87.8733 21.4863 87.2266 21.4863C86.5914 21.4863 86.0428 21.6365 85.5809 21.9367C85.1189 22.237 84.7666 22.6355 84.5241 23.1321C84.2816 23.6287 84.1603 24.1772 84.1603 24.7778C84.1603 25.3668 84.2816 25.9153 84.5241 26.4235C84.7666 26.9201 85.1189 27.3185 85.5809 27.6188C86.0428 27.9191 86.5914 28.0692 87.2266 28.0692Z" fill="black"/>
<path d="M93.7007 29.1086V16.9823H95V29.1086H93.7007Z" fill="black"/>
</svg>
