<svg width="254" height="32" viewBox="0 0 254 32" fill="none" xmlns="http://www.w3.org/2000/svg">
<path fill-rule="evenodd" clip-rule="evenodd" d="M10.4181 1.25776L10.9713 0.668423L22.6324 11.6366L11.8982 31.4158L11.4491 30.71L0.107773 12.6734L0 12.5206L0.0467018 12.4697L10.4181 1.25776ZM18.0808 12.9645L21.7882 11.5821L12.1137 2.48739L18.0808 12.9645ZM21.7092 12.1933L19.1442 16.9225L16.7121 17.7665L18.1886 13.5138L21.7092 12.1933ZM10.3355 2.15999L0.872958 12.357L6.57777 13.4811L10.3355 2.15999ZM9.38347 23.4743L11.054 29.0621L7.28548 23.0778L9.38347 23.4743ZM9.20748 22.8959L7.96808 18.7451L4.13494 18.0939L6.89035 22.4594L9.20748 22.8959ZM13.1843 19.0034L13.5112 15.2709L17.5312 13.7648L16.0619 17.9957L13.1843 19.0034ZM7.15976 14.1504L8.38838 18.2758L12.6418 18.9888L12.9652 15.2854L7.15976 14.1504ZM12.5735 19.5344L12.2143 23.4597L9.77143 22.9977L8.56078 18.836L12.5735 19.5344ZM14.3697 22.7431L15.8067 18.6505L13.1268 19.5854L12.7531 23.3397L14.3697 22.7431ZM13.2309 14.7798L7.12378 13.5829L11.0755 1.71616L17.567 13.1646L13.2309 14.7798ZM6.55985 14.0158L0.89456 12.9245L3.74337 17.45L7.79206 18.1339L6.55985 14.0158ZM9.97979 23.587L12.2143 24.0054L11.7257 29.4295L9.97979 23.587ZM12.3221 28.7747L14.1866 23.4088L12.746 23.9509L12.3221 28.7747ZM15.9828 22.7431L13.2094 27.8361L14.8332 23.1614L15.9828 22.7431ZM16.378 22.0156L18.7562 17.6501L16.5001 18.4213L15.0883 22.4958L16.378 22.0156Z" fill="#0C0C3D"/>
<path d="M37.3434 23.7316C35.9905 23.7316 34.8435 23.5061 33.9023 23.0552C32.9808 22.6042 32.2749 22.016 31.7848 21.2905C31.2946 20.5455 31.0201 19.7416 30.9613 18.8789H33.2553C33.3141 19.3691 33.4808 19.8494 33.7553 20.32C34.0494 20.771 34.4905 21.1435 35.0787 21.4376C35.667 21.7121 36.4316 21.8493 37.3728 21.8493C37.6669 21.8493 38.0296 21.8199 38.461 21.7611C38.8923 21.7023 39.3041 21.5945 39.6962 21.4376C40.1079 21.2807 40.4511 21.0455 40.7256 20.7317C41.0001 20.418 41.1373 20.0161 41.1373 19.5259C41.1373 18.9181 40.902 18.4475 40.4315 18.1142C39.9609 17.7809 39.3531 17.526 38.608 17.3495C37.8629 17.1535 37.0689 16.9672 36.2258 16.7907C35.4023 16.6143 34.618 16.3888 33.8729 16.1143C33.1278 15.8202 32.52 15.4182 32.0495 14.9085C31.5789 14.3791 31.3436 13.6634 31.3436 12.7615C31.3436 11.4282 31.824 10.3988 32.7847 9.67339C33.7651 8.92832 35.2062 8.55579 37.1081 8.55579C38.4021 8.55579 39.4511 8.76166 40.255 9.17341C41.0785 9.56555 41.6961 10.0753 42.1079 10.7028C42.5392 11.3302 42.7941 12.0066 42.8725 12.7321H40.6373C40.5589 12.1047 40.2452 11.5655 39.6962 11.1145C39.1668 10.6635 38.2845 10.4381 37.0493 10.4381C34.716 10.4381 33.5494 11.1439 33.5494 12.5556C33.5494 13.1438 33.7847 13.5948 34.2553 13.9085C34.7258 14.2222 35.3336 14.4771 36.0787 14.6732C36.8238 14.8496 37.6081 15.0261 38.4315 15.2026C39.2746 15.3594 40.0687 15.5849 40.8138 15.879C41.5589 16.1731 42.1667 16.5947 42.6373 17.1437C43.1078 17.6731 43.3431 18.3985 43.3431 19.32C43.3431 20.7514 42.7941 21.8493 41.6961 22.614C40.6177 23.3591 39.1668 23.7316 37.3434 23.7316Z" fill="black"/>
<path d="M52.7081 23.7316C51.2179 23.7316 49.9141 23.3983 48.7965 22.7317C47.6789 22.0454 46.8063 21.1239 46.1789 19.9671C45.5711 18.8103 45.2672 17.5358 45.2672 16.1437C45.2672 14.732 45.5613 13.4575 46.1495 12.3203C46.7377 11.1635 47.5808 10.2518 48.6788 9.58516C49.7768 8.89891 51.0709 8.55579 52.561 8.55579C54.0707 8.55579 55.3648 8.89891 56.4432 9.58516C57.5412 10.2518 58.3843 11.1635 58.9725 12.3203C59.5607 13.4575 59.8548 14.732 59.8548 16.1437V17.026H47.5318C47.6494 17.8887 47.9239 18.6828 48.3553 19.4083C48.8063 20.1141 49.4043 20.6827 50.1493 21.1141C50.8944 21.5258 51.7571 21.7317 52.7375 21.7317C53.7766 21.7317 54.6492 21.5062 55.355 21.0553C56.0609 20.5847 56.6099 19.9867 57.002 19.2612H59.4137C58.9039 20.5749 58.0902 21.6533 56.9726 22.4964C55.8746 23.3199 54.4531 23.7316 52.7081 23.7316ZM47.5612 14.9673H57.5608C57.3647 13.7124 56.8353 12.6635 55.9726 11.8204C55.1099 10.9773 53.9727 10.5557 52.561 10.5557C51.1493 10.5557 50.0121 10.9773 49.1494 11.8204C48.3063 12.6635 47.7769 13.7124 47.5612 14.9673Z" fill="black"/>
<path d="M62.55 23.4963V8.79107H64.7558V12.4086C64.8342 12.1537 64.9813 11.8204 65.197 11.4086C65.4322 10.9773 65.7656 10.5459 66.1969 10.1145C66.6283 9.68319 67.1675 9.32046 67.8145 9.02636C68.4811 8.71264 69.2654 8.55579 70.1673 8.55579H70.3144V10.7616H70.0497C68.9517 10.7616 68.0008 11.0655 67.1969 11.6733C66.4126 12.2615 65.8048 13.036 65.3734 13.9967C64.9617 14.9379 64.7558 15.9476 64.7558 17.026V23.4963H62.55Z" fill="black"/>
<path d="M78.8444 23.7316C77.3542 23.7316 76.0504 23.3983 74.9328 22.7317C73.8152 22.0454 72.9427 21.1239 72.3152 19.9671C71.7074 18.8103 71.4035 17.5358 71.4035 16.1437C71.4035 14.732 71.6976 13.4575 72.2858 12.3203C72.874 11.1635 73.7171 10.2518 74.8151 9.58516C75.9131 8.89891 77.2072 8.55579 78.6973 8.55579C80.2071 8.55579 81.5011 8.89891 82.5795 9.58516C83.6775 10.2518 84.5206 11.1635 85.1088 12.3203C85.697 13.4575 85.9911 14.732 85.9911 16.1437V17.026H73.6681C73.7858 17.8887 74.0603 18.6828 74.4916 19.4083C74.9426 20.1141 75.5406 20.6827 76.2857 21.1141C77.0307 21.5258 77.8934 21.7317 78.8738 21.7317C79.9129 21.7317 80.7855 21.5062 81.4913 21.0553C82.1972 20.5847 82.7462 19.9867 83.1383 19.2612H85.55C85.0402 20.5749 84.2265 21.6533 83.1089 22.4964C82.0109 23.3199 80.5894 23.7316 78.8444 23.7316ZM73.6975 14.9673H83.6971C83.501 13.7124 82.9716 12.6635 82.1089 11.8204C81.2462 10.9773 80.109 10.5557 78.6973 10.5557C77.2856 10.5557 76.1484 10.9773 75.2857 11.8204C74.4426 12.6635 73.9132 13.7124 73.6975 14.9673Z" fill="black"/>
<path d="M88.6863 23.4963V8.79107H90.8921V11.0851C91.4215 10.3792 92.0685 9.78123 92.8332 9.29105C93.5979 8.80088 94.5782 8.55579 95.7743 8.55579C96.7938 8.55579 97.7448 8.80088 98.6271 9.29105C99.529 9.76162 100.254 10.4773 100.803 11.438C101.372 12.3792 101.656 13.5458 101.656 14.9379V23.4963H99.4506V14.9967C99.4506 13.6634 99.0682 12.5948 98.3036 11.7909C97.5389 10.9675 96.5487 10.5557 95.3331 10.5557C94.5096 10.5557 93.7645 10.742 93.0979 11.1145C92.4313 11.487 91.8921 12.0164 91.4803 12.7027C91.0882 13.3693 90.8921 14.1438 90.8921 15.0261V23.4963H88.6863Z" fill="black"/>
<path d="M105.256 6.32059V3.43836H107.639V6.32059H105.256ZM105.345 23.4963V8.79107H107.55V23.4963H105.345Z" fill="black"/>
<path d="M112.964 23.4963V10.7322H109.964V8.79107H112.964V3.52659H115.17V8.79107H118.552V10.7322H115.17V23.4963H112.964Z" fill="black"/>
<path d="M122.498 29.3196L125.175 23.2905L119.175 8.79107H121.616L126.351 20.8494L131.174 8.79107H133.586L124.881 29.3196H122.498Z" fill="black"/>
<path d="M142.849 23.4963V10.7322H140.32V8.79107H142.849V7.49701C142.849 5.88923 143.33 4.6834 144.29 3.87951C145.271 3.07563 146.604 2.67368 148.29 2.67368H148.467V4.76183H148.173C147.153 4.76183 146.379 4.99711 145.849 5.46768C145.32 5.91864 145.055 6.65391 145.055 7.67347V8.79107H148.467V10.7322H145.055V23.4963H142.849Z" fill="black"/>
<path d="M150.349 6.32059V3.43836H152.731V6.32059H150.349ZM150.437 23.4963V8.79107H152.643V23.4963H150.437Z" fill="black"/>
<path d="M156.468 23.4963V8.79107H158.674V11.0851C159.204 10.3792 159.851 9.78123 160.615 9.29105C161.38 8.80088 162.36 8.55579 163.556 8.55579C164.576 8.55579 165.527 8.80088 166.409 9.29105C167.311 9.76162 168.037 10.4773 168.586 11.438C169.154 12.3792 169.438 13.5458 169.438 14.9379V23.4963H167.233V14.9967C167.233 13.6634 166.85 12.5948 166.086 11.7909C165.321 10.9675 164.331 10.5557 163.115 10.5557C162.292 10.5557 161.547 10.742 160.88 11.1145C160.213 11.487 159.674 12.0164 159.262 12.7027C158.87 13.3693 158.674 14.1438 158.674 15.0261V23.4963H156.468Z" fill="black"/>
<path d="M179.332 23.7316C177.901 23.7316 176.646 23.3983 175.568 22.7317C174.509 22.0454 173.685 21.1239 173.097 19.9671C172.509 18.8103 172.215 17.5358 172.215 16.1437C172.215 14.732 172.509 13.4575 173.097 12.3203C173.685 11.1635 174.509 10.2518 175.568 9.58516C176.646 8.89891 177.901 8.55579 179.332 8.55579C180.548 8.55579 181.587 8.79107 182.45 9.26164C183.332 9.73221 184.048 10.3694 184.597 11.1733V8.79107H186.803V23.4963H184.597V21.1435C184.048 21.9278 183.332 22.5552 182.45 23.0258C181.587 23.4963 180.548 23.7316 179.332 23.7316ZM179.626 21.7317C180.724 21.7317 181.646 21.4768 182.391 20.967C183.156 20.4572 183.734 19.7808 184.126 18.9377C184.518 18.075 184.714 17.1437 184.714 16.1437C184.714 15.1241 184.518 14.1928 184.126 13.3497C183.734 12.5066 183.156 11.8302 182.391 11.3204C181.646 10.8106 180.724 10.5557 179.626 10.5557C178.548 10.5557 177.617 10.8106 176.832 11.3204C176.048 11.8302 175.45 12.5066 175.038 13.3497C174.627 14.1928 174.421 15.1241 174.421 16.1437C174.421 17.1437 174.627 18.075 175.038 18.9377C175.45 19.7808 176.048 20.4572 176.832 20.967C177.617 21.4768 178.548 21.7317 179.626 21.7317Z" fill="black"/>
<path d="M190.618 23.4963V8.79107H192.824V11.0851C193.353 10.3792 194 9.78123 194.765 9.29105C195.529 8.80088 196.51 8.55579 197.706 8.55579C198.725 8.55579 199.676 8.80088 200.559 9.29105C201.461 9.76162 202.186 10.4773 202.735 11.438C203.304 12.3792 203.588 13.5458 203.588 14.9379V23.4963H201.382V14.9967C201.382 13.6634 201 12.5948 200.235 11.7909C199.47 10.9675 198.48 10.5557 197.265 10.5557C196.441 10.5557 195.696 10.742 195.029 11.1145C194.363 11.487 193.824 12.0164 193.412 12.7027C193.02 13.3693 192.824 14.1438 192.824 15.0261V23.4963H190.618Z" fill="black"/>
<path d="M213.599 23.7316C212.129 23.7316 210.855 23.3983 209.776 22.7317C208.698 22.0454 207.855 21.1239 207.247 19.9671C206.659 18.8103 206.364 17.5358 206.364 16.1437C206.364 14.732 206.659 13.4575 207.247 12.3203C207.855 11.1635 208.698 10.2518 209.776 9.58516C210.855 8.89891 212.129 8.55579 213.599 8.55579C215.345 8.55579 216.825 9.00675 218.04 9.90867C219.276 10.8106 220.109 11.9772 220.54 13.4085H218.158C217.825 12.5654 217.286 11.8792 216.541 11.3498C215.815 10.8204 214.933 10.5557 213.894 10.5557C212.815 10.5557 211.874 10.8106 211.07 11.3204C210.266 11.8302 209.649 12.5066 209.217 13.3497C208.786 14.1928 208.57 15.1241 208.57 16.1437C208.57 17.1437 208.786 18.075 209.217 18.9377C209.649 19.7808 210.266 20.4572 211.07 20.967C211.874 21.4768 212.815 21.7317 213.894 21.7317C214.933 21.7317 215.815 21.467 216.541 20.9376C217.286 20.4082 217.825 19.722 218.158 18.8789H220.54C220.109 20.3102 219.276 21.4768 218.04 22.3787C216.825 23.2807 215.345 23.7316 213.599 23.7316Z" fill="black"/>
<path d="M223.186 6.32059V3.43836H225.568V6.32059H223.186ZM223.274 23.4963V8.79107H225.48V23.4963H223.274Z" fill="black"/>
<path d="M235.511 23.7316C234.08 23.7316 232.825 23.3983 231.746 22.7317C230.688 22.0454 229.864 21.1239 229.276 19.9671C228.688 18.8103 228.394 17.5358 228.394 16.1437C228.394 14.732 228.688 13.4575 229.276 12.3203C229.864 11.1635 230.688 10.2518 231.746 9.58516C232.825 8.89891 234.08 8.55579 235.511 8.55579C236.727 8.55579 237.766 8.79107 238.629 9.26164C239.511 9.73221 240.227 10.3694 240.776 11.1733V8.79107H242.981V23.4963H240.776V21.1435C240.227 21.9278 239.511 22.5552 238.629 23.0258C237.766 23.4963 236.727 23.7316 235.511 23.7316ZM235.805 21.7317C236.903 21.7317 237.825 21.4768 238.57 20.967C239.334 20.4572 239.913 19.7808 240.305 18.9377C240.697 18.075 240.893 17.1437 240.893 16.1437C240.893 15.1241 240.697 14.1928 240.305 13.3497C239.913 12.5066 239.334 11.8302 238.57 11.3204C237.825 10.8106 236.903 10.5557 235.805 10.5557C234.727 10.5557 233.795 10.8106 233.011 11.3204C232.227 11.8302 231.629 12.5066 231.217 13.3497C230.805 14.1928 230.599 15.1241 230.599 16.1437C230.599 17.1437 230.805 18.075 231.217 18.9377C231.629 19.7808 232.227 20.4572 233.011 20.967C233.795 21.4768 234.727 21.7317 235.805 21.7317Z" fill="black"/>
<path d="M246.797 23.4963V2.90897H249.002V23.4963H246.797Z" fill="black"/>
</svg>
