<svg width="380" height="48" viewBox="0 0 380 48" fill="none" xmlns="http://www.w3.org/2000/svg">
<path fill-rule="evenodd" clip-rule="evenodd" d="M15.5861 1.88168L16.4138 1L33.8595 17.4091L17.8004 47L17.1286 45.9442L0.161236 18.9602L0 18.7317L0.0698689 18.6555L15.5861 1.88168ZM27.05 19.3956L32.5965 17.3275L18.1229 3.72124L27.05 19.3956ZM32.4783 18.2419L28.6409 25.3171L25.0023 26.5798L27.2112 20.2175L32.4783 18.2419ZM15.4625 3.23143L1.30601 18.4867L9.84076 20.1685L15.4625 3.23143ZM14.0382 35.119L16.5374 43.4787L10.8995 34.5258L14.0382 35.119ZM13.775 34.2537L11.9207 28.0438L6.18612 27.0696L10.3084 33.6006L13.775 34.2537ZM19.7245 28.4302L20.2136 22.8462L26.2277 20.593L24.0295 26.9226L19.7245 28.4302ZM10.7115 21.1699L12.5495 27.3417L18.913 28.4084L19.3967 22.8679L10.7115 21.1699ZM18.8108 29.2247L18.2734 35.0972L14.6187 34.406L12.8075 28.1798L18.8108 29.2247ZM21.498 34.0251L23.6479 27.9023L19.6385 29.301L19.0795 34.9176L21.498 34.0251ZM19.7943 22.1115L10.6576 20.3209L16.5696 2.56747L26.2814 19.695L19.7943 22.1115ZM9.81394 20.9685L1.33831 19.3357L5.60031 26.1062L11.6574 27.1294L9.81394 20.9685ZM14.9304 35.2877L18.2733 35.9136L17.5424 44.0283L14.9304 35.2877ZM18.4347 43.0488L21.2241 35.0211L19.0689 35.832L18.4347 43.0488ZM23.9113 34.025L19.7621 41.6445L22.1914 34.6509L23.9113 34.025ZM24.5025 32.9366L28.0604 26.4056L24.6852 27.5594L22.573 33.655L24.5025 32.9366Z" fill="#0C0C3D"/>
<path d="M55.868 35.504C53.844 35.504 52.128 35.1666 50.72 34.492C49.3413 33.8173 48.2853 32.9373 47.552 31.852C46.8187 30.7373 46.408 29.5346 46.32 28.244H49.752C49.84 28.9773 50.0893 29.696 50.5 30.4C50.94 31.0746 51.6 31.632 52.48 32.072C53.36 32.4826 54.504 32.688 55.912 32.688C56.352 32.688 56.8947 32.644 57.54 32.556C58.1853 32.468 58.8013 32.3066 59.388 32.072C60.004 31.8373 60.5173 31.4853 60.928 31.016C61.3387 30.5466 61.544 29.9453 61.544 29.212C61.544 28.3026 61.192 27.5986 60.488 27.1C59.784 26.6013 58.8747 26.22 57.76 25.956C56.6453 25.6626 55.4573 25.384 54.196 25.12C52.964 24.856 51.7907 24.5186 50.676 24.108C49.5613 23.668 48.652 23.0666 47.948 22.304C47.244 21.512 46.892 20.4413 46.892 19.092C46.892 17.0973 47.6107 15.5573 49.048 14.472C50.5147 13.3573 52.6707 12.8 55.516 12.8C57.452 12.8 59.0213 13.108 60.224 13.724C61.456 14.3106 62.38 15.0733 62.996 16.012C63.6413 16.9506 64.0227 17.9626 64.14 19.048H60.796C60.6787 18.1093 60.2093 17.3026 59.388 16.628C58.596 15.9533 57.276 15.616 55.428 15.616C51.9373 15.616 50.192 16.672 50.192 18.784C50.192 19.664 50.544 20.3386 51.248 20.808C51.952 21.2773 52.8613 21.6586 53.976 21.952C55.0907 22.216 56.264 22.48 57.496 22.744C58.7573 22.9786 59.9453 23.316 61.06 23.756C62.1747 24.196 63.084 24.8266 63.788 25.648C64.492 26.44 64.844 27.5253 64.844 28.904C64.844 31.0453 64.0227 32.688 62.38 33.832C60.7667 34.9466 58.596 35.504 55.868 35.504Z" fill="#0C0C3D"/>
<path d="M78.8546 35.504C76.6252 35.504 74.6746 35.0053 73.0026 34.008C71.3306 32.9813 70.0252 31.6026 69.0866 29.872C68.1772 28.1413 67.7226 26.2346 67.7226 24.152C67.7226 22.04 68.1626 20.1333 69.0426 18.432C69.9226 16.7013 71.1839 15.3373 72.8266 14.34C74.4692 13.3133 76.4052 12.8 78.6346 12.8C80.8932 12.8 82.8292 13.3133 84.4426 14.34C86.0852 15.3373 87.3466 16.7013 88.2266 18.432C89.1066 20.1333 89.5466 22.04 89.5466 24.152V25.472H71.1106C71.2866 26.7626 71.6972 27.9506 72.3426 29.036C73.0172 30.092 73.9119 30.9426 75.0266 31.588C76.1412 32.204 77.4319 32.512 78.8986 32.512C80.4532 32.512 81.7586 32.1746 82.8146 31.5C83.8706 30.796 84.6919 29.9013 85.2786 28.816H88.8866C88.1239 30.7813 86.9066 32.3946 85.2346 33.656C83.5919 34.888 81.4652 35.504 78.8546 35.504ZM71.1546 22.392H86.1146C85.8212 20.5146 85.0292 18.9453 83.7386 17.684C82.4479 16.4226 80.7466 15.792 78.6346 15.792C76.5226 15.792 74.8212 16.4226 73.5306 17.684C72.2692 18.9453 71.4772 20.5146 71.1546 22.392Z" fill="#0C0C3D"/>
<path d="M93.5788 35.152V13.152H96.8788V18.564C96.9961 18.1826 97.2161 17.684 97.5388 17.068C97.8908 16.4226 98.3894 15.7773 99.0348 15.132C99.6801 14.4866 100.487 13.944 101.455 13.504C102.452 13.0346 103.625 12.8 104.975 12.8H105.195V16.1H104.799C103.156 16.1 101.733 16.5546 100.531 17.464C99.3574 18.344 98.4481 19.5026 97.8028 20.94C97.1868 22.348 96.8788 23.8586 96.8788 25.472V35.152H93.5788Z" fill="#0C0C3D"/>
<path d="M117.956 35.504C115.727 35.504 113.776 35.0053 112.104 34.008C110.432 32.9813 109.127 31.6026 108.188 29.872C107.279 28.1413 106.824 26.2346 106.824 24.152C106.824 22.04 107.264 20.1333 108.144 18.432C109.024 16.7013 110.285 15.3373 111.928 14.34C113.571 13.3133 115.507 12.8 117.736 12.8C119.995 12.8 121.931 13.3133 123.544 14.34C125.187 15.3373 126.448 16.7013 127.328 18.432C128.208 20.1333 128.648 22.04 128.648 24.152V25.472H110.212C110.388 26.7626 110.799 27.9506 111.444 29.036C112.119 30.092 113.013 30.9426 114.128 31.588C115.243 32.204 116.533 32.512 118 32.512C119.555 32.512 120.86 32.1746 121.916 31.5C122.972 30.796 123.793 29.9013 124.38 28.816H127.988C127.225 30.7813 126.008 32.3946 124.336 33.656C122.693 34.888 120.567 35.504 117.956 35.504ZM110.256 22.392H125.216C124.923 20.5146 124.131 18.9453 122.84 17.684C121.549 16.4226 119.848 15.792 117.736 15.792C115.624 15.792 113.923 16.4226 112.632 17.684C111.371 18.9453 110.579 20.5146 110.256 22.392Z" fill="#0C0C3D"/>
<path d="M132.68 35.152V13.152H135.98V16.584C136.772 15.528 137.74 14.6333 138.884 13.9C140.028 13.1666 141.495 12.8 143.284 12.8C144.81 12.8 146.232 13.1666 147.552 13.9C148.902 14.604 149.987 15.6746 150.808 17.112C151.659 18.52 152.084 20.2653 152.084 22.348V35.152H148.784V22.436C148.784 20.4413 148.212 18.8426 147.068 17.64C145.924 16.408 144.443 15.792 142.624 15.792C141.392 15.792 140.278 16.0706 139.28 16.628C138.283 17.1853 137.476 17.9773 136.86 19.004C136.274 20.0013 135.98 21.16 135.98 22.48V35.152H132.68Z" fill="#0C0C3D"/>
<path d="M157.47 9.45598V5.14398H161.034V9.45598H157.47ZM157.602 35.152V13.152H160.902V35.152H157.602Z" fill="#0C0C3D"/>
<path d="M169.002 35.152V16.056H164.514V13.152H169.002V5.27598H172.302V13.152H177.362V16.056H172.302V35.152H169.002Z" fill="#0C0C3D"/>
<path d="M183.265 43.864L187.269 34.844L178.293 13.152H181.945L189.029 31.192L196.245 13.152H199.853L186.829 43.864H183.265Z" fill="#0C0C3D"/>
<path d="M213.711 35.152V16.056H209.927V13.152H213.711V11.216C213.711 8.81064 214.43 7.00664 215.867 5.80397C217.334 4.60131 219.329 3.99998 221.851 3.99998H222.115V7.12398H221.675C220.15 7.12398 218.991 7.47598 218.199 8.17998C217.407 8.85464 217.011 9.95464 217.011 11.48V13.152H222.115V16.056H217.011V35.152H213.711Z" fill="#0C0C3D"/>
<path d="M224.931 9.45598V5.14398H228.495V9.45598H224.931ZM225.063 35.152V13.152H228.363V35.152H225.063Z" fill="#0C0C3D"/>
<path d="M234.087 35.152V13.152H237.387V16.584C238.179 15.528 239.147 14.6333 240.291 13.9C241.435 13.1666 242.901 12.8 244.691 12.8C246.216 12.8 247.639 13.1666 248.959 13.9C250.308 14.604 251.393 15.6746 252.215 17.112C253.065 18.52 253.491 20.2653 253.491 22.348V35.152H250.191V22.436C250.191 20.4413 249.619 18.8426 248.475 17.64C247.331 16.408 245.849 15.792 244.031 15.792C242.799 15.792 241.684 16.0706 240.687 16.628C239.689 17.1853 238.883 17.9773 238.267 19.004C237.68 20.0013 237.387 21.16 237.387 22.48V35.152H234.087Z" fill="#0C0C3D"/>
<path d="M268.292 35.504C266.151 35.504 264.274 35.0053 262.66 34.008C261.076 32.9813 259.844 31.6026 258.964 29.872C258.084 28.1413 257.644 26.2346 257.644 24.152C257.644 22.04 258.084 20.1333 258.964 18.432C259.844 16.7013 261.076 15.3373 262.66 14.34C264.274 13.3133 266.151 12.8 268.292 12.8C270.111 12.8 271.666 13.152 272.956 13.856C274.276 14.56 275.347 15.5133 276.168 16.716V13.152H279.468V35.152H276.168V31.632C275.347 32.8053 274.276 33.744 272.956 34.448C271.666 35.152 270.111 35.504 268.292 35.504ZM268.732 32.512C270.375 32.512 271.754 32.1306 272.868 31.368C274.012 30.6053 274.878 29.5933 275.464 28.332C276.051 27.0413 276.344 25.648 276.344 24.152C276.344 22.6266 276.051 21.2333 275.464 19.972C274.878 18.7106 274.012 17.6986 272.868 16.936C271.754 16.1733 270.375 15.792 268.732 15.792C267.119 15.792 265.726 16.1733 264.552 16.936C263.379 17.6986 262.484 18.7106 261.868 19.972C261.252 21.2333 260.944 22.6266 260.944 24.152C260.944 25.648 261.252 27.0413 261.868 28.332C262.484 29.5933 263.379 30.6053 264.552 31.368C265.726 32.1306 267.119 32.512 268.732 32.512Z" fill="#0C0C3D"/>
<path d="M285.176 35.152V13.152H288.476V16.584C289.268 15.528 290.236 14.6333 291.38 13.9C292.524 13.1666 293.991 12.8 295.78 12.8C297.306 12.8 298.728 13.1666 300.048 13.9C301.398 14.604 302.483 15.6746 303.304 17.112C304.155 18.52 304.58 20.2653 304.58 22.348V35.152H301.28V22.436C301.28 20.4413 300.708 18.8426 299.564 17.64C298.42 16.408 296.939 15.792 295.12 15.792C293.888 15.792 292.774 16.0706 291.776 16.628C290.779 17.1853 289.972 17.9773 289.356 19.004C288.77 20.0013 288.476 21.16 288.476 22.48V35.152H285.176Z" fill="#0C0C3D"/>
<path d="M319.558 35.504C317.358 35.504 315.452 35.0053 313.838 34.008C312.225 32.9813 310.964 31.6026 310.054 29.872C309.174 28.1413 308.734 26.2346 308.734 24.152C308.734 22.04 309.174 20.1333 310.054 18.432C310.964 16.7013 312.225 15.3373 313.838 14.34C315.452 13.3133 317.358 12.8 319.558 12.8C322.169 12.8 324.384 13.4746 326.202 14.824C328.05 16.1733 329.297 17.9186 329.942 20.06H326.378C325.88 18.7986 325.073 17.772 323.958 16.98C322.873 16.188 321.553 15.792 319.998 15.792C318.385 15.792 316.977 16.1733 315.774 16.936C314.572 17.6986 313.648 18.7106 313.002 19.972C312.357 21.2333 312.034 22.6266 312.034 24.152C312.034 25.648 312.357 27.0413 313.002 28.332C313.648 29.5933 314.572 30.6053 315.774 31.368C316.977 32.1306 318.385 32.512 319.998 32.512C321.553 32.512 322.873 32.116 323.958 31.324C325.073 30.532 325.88 29.5053 326.378 28.244H329.942C329.297 30.3853 328.05 32.1306 326.202 33.48C324.384 34.8293 322.169 35.504 319.558 35.504Z" fill="#0C0C3D"/>
<path d="M333.9 9.45598V5.14398H337.464V9.45598H333.9ZM334.032 35.152V13.152H337.332V35.152H334.032Z" fill="#0C0C3D"/>
<path d="M352.339 35.504C350.198 35.504 348.321 35.0053 346.707 34.008C345.123 32.9813 343.891 31.6026 343.011 29.872C342.131 28.1413 341.691 26.2346 341.691 24.152C341.691 22.04 342.131 20.1333 343.011 18.432C343.891 16.7013 345.123 15.3373 346.707 14.34C348.321 13.3133 350.198 12.8 352.339 12.8C354.158 12.8 355.713 13.152 357.003 13.856C358.323 14.56 359.394 15.5133 360.215 16.716V13.152H363.515V35.152H360.215V31.632C359.394 32.8053 358.323 33.744 357.003 34.448C355.713 35.152 354.158 35.504 352.339 35.504ZM352.779 32.512C354.422 32.512 355.801 32.1306 356.915 31.368C358.059 30.6053 358.925 29.5933 359.511 28.332C360.098 27.0413 360.391 25.648 360.391 24.152C360.391 22.6266 360.098 21.2333 359.511 19.972C358.925 18.7106 358.059 17.6986 356.915 16.936C355.801 16.1733 354.422 15.792 352.779 15.792C351.166 15.792 349.773 16.1733 348.599 16.936C347.426 17.6986 346.531 18.7106 345.915 19.972C345.299 21.2333 344.991 22.6266 344.991 24.152C344.991 25.648 345.299 27.0413 345.915 28.332C346.531 29.5933 347.426 30.6053 348.599 31.368C349.773 32.1306 351.166 32.512 352.779 32.512Z" fill="#0C0C3D"/>
<path d="M369.223 35.152V4.35198H372.523V35.152H369.223Z" fill="#0C0C3D"/>
</svg>
