<svg width="505" height="128" viewBox="0 0 505 128" fill="none" xmlns="http://www.w3.org/2000/svg">
<g clip-path="url(#clip0_1102_982)">
<path d="M155.176 85.4214C156.608 85.4214 157.921 85.1663 159.114 84.6563C160.356 84.0998 161.406 83.381 162.265 82.4999C163.172 81.5726 163.888 80.5059 164.413 79.3003C164.937 78.0946 165.2 76.8426 165.2 75.5442V73.4575H154.819V66.2234H173.793V75.7529C173.793 78.257 173.315 80.5755 172.361 82.7086C171.406 84.7954 170.093 86.6271 168.422 88.2036C166.799 89.7339 164.843 90.9396 162.551 91.8207C160.26 92.6553 157.802 93.0727 155.176 93.0727C152.026 93.0727 149.281 92.6089 146.942 91.6816C144.652 90.7077 142.742 89.4093 141.215 87.7863C139.687 86.1169 138.541 84.1693 137.778 81.9435C137.062 79.6712 136.703 77.2367 136.703 74.6399V62.2586C136.703 59.8473 137.062 57.5288 137.778 55.3029C138.541 53.0771 139.663 51.1295 141.143 49.4601C142.67 47.7444 144.58 46.3996 146.871 45.4258C149.162 44.4056 151.859 43.8955 154.961 43.8955C159.353 43.8955 163.053 44.9388 166.06 47.0256C169.066 49.066 171.191 51.7787 172.432 55.1638L164.269 58.294C163.649 56.3927 162.527 54.8624 160.904 53.7031C159.329 52.4975 157.325 51.8947 154.891 51.8947C153.22 51.8947 151.787 52.1728 150.595 52.7293C149.401 53.2857 148.422 54.0509 147.658 55.0248C146.895 55.9521 146.322 57.0187 145.94 58.2244C145.559 59.43 145.367 60.6589 145.367 61.9109V74.9878C145.367 76.2862 145.559 77.5614 145.94 78.8134C146.37 80.0654 146.99 81.1783 147.802 82.1522C148.613 83.1259 149.616 83.9143 150.808 84.5171C152.05 85.1199 153.506 85.4214 155.176 85.4214Z" fill="#0C0C3D"/>
<path d="M196.716 65.1805C194.759 65.1805 193.16 65.7602 191.919 66.9194C190.678 68.0787 190.057 69.7714 190.057 71.9971V92.7253H181.967V58.2248H189.914V62.3286H190.201C192.348 59.3609 195.213 57.877 198.793 57.877C200.129 57.877 201.347 58.0161 202.444 58.2944C203.542 58.5725 204.569 59.0362 205.522 59.6854L202.516 66.7803C201.513 66.1775 200.534 65.7602 199.581 65.5283C198.626 65.2965 197.671 65.1805 196.716 65.1805Z" fill="#0C0C3D"/>
<path d="M221.286 57.877C223.292 57.877 225.177 58.0625 226.944 58.4334C228.709 58.7581 230.261 59.3609 231.597 60.242C232.933 61.123 233.984 62.3054 234.747 63.7894C235.559 65.2269 235.965 67.0586 235.965 69.2845V92.6557H227.873V89.5952C227.873 89.5952 227.827 89.572 227.731 89.5256C226.776 90.7313 225.439 91.6124 223.721 92.1688C222.05 92.7253 220.309 93.0036 218.495 93.0036C214.723 93.0036 211.74 92.1225 209.545 90.3604C207.348 88.5519 206.25 85.9783 206.25 82.6395C206.25 81.2483 206.513 79.9267 207.039 78.6747C207.564 77.4227 208.327 76.333 209.33 75.4055C210.333 74.4317 211.573 73.6666 213.052 73.1101C214.58 72.5536 216.322 72.2754 218.28 72.2754H227.873V69.7714C227.873 69.1221 227.755 68.4961 227.516 67.8933C227.325 67.2905 226.968 66.7803 226.442 66.363C225.917 65.8993 225.201 65.5283 224.294 65.2501C223.387 64.9718 222.241 64.8327 220.857 64.8327C218.9 64.8327 217.253 65.0878 215.917 65.5978C214.58 66.0616 213.411 66.7571 212.408 67.6846L208.112 62.3982C209.831 60.7289 211.836 59.5696 214.127 58.9204C216.418 58.2248 218.804 57.877 221.286 57.877ZM213.912 82.0831C213.912 82.5931 214.007 83.1032 214.199 83.6132C214.438 84.1234 214.795 84.5871 215.273 85.0044C215.797 85.3755 216.442 85.7 217.205 85.9783C218.017 86.2101 219.019 86.326 220.213 86.326C221.12 86.326 222.003 86.2564 222.861 86.1173C223.721 85.9319 224.486 85.6536 225.154 85.2827C225.869 84.9116 226.466 84.4248 226.944 83.8219C227.421 83.2191 227.707 82.454 227.803 81.5266C227.849 81.2483 227.873 80.9006 227.873 80.4832C227.873 80.0659 227.873 79.3239 227.873 78.2574H219.64C217.588 78.2574 216.108 78.6283 215.201 79.3703C214.342 80.1122 213.912 81.0164 213.912 82.0831Z" fill="#0C0C3D"/>
<path d="M265.036 92.6557V72.2058C265.036 69.9799 264.511 68.2642 263.461 67.0586C262.458 65.8529 260.811 65.2501 258.521 65.2501C256.563 65.2501 254.94 65.8529 253.652 67.0586C252.362 68.2642 251.718 69.9799 251.718 72.2058V92.6557H243.628V58.1552H251.718V61.7722H251.862C253.007 60.5202 254.416 59.5696 256.086 58.9204C257.805 58.2248 259.475 57.877 261.098 57.877C264.725 57.877 267.638 58.8972 269.833 60.9375C272.029 62.9314 273.126 65.9689 273.126 70.0495V92.6557H265.036Z" fill="#0C0C3D"/>
<path d="M302.432 92.6549V89.4553L302.289 89.3162C301.049 90.6609 299.639 91.6116 298.064 92.1681C296.489 92.7245 294.938 93.0028 293.411 93.0028C290.594 93.0028 288.351 92.4695 286.68 91.4029C285.01 90.3364 283.745 88.9684 282.886 87.2991C282.027 85.5833 281.453 83.6588 281.168 81.5258C280.929 79.3927 280.809 77.2827 280.809 75.196C280.809 73.2484 281 71.2544 281.382 69.2141C281.764 67.1274 282.456 65.2493 283.459 63.5799C284.461 61.8642 285.821 60.473 287.54 59.4065C289.306 58.34 291.549 57.8066 294.27 57.8066C295.797 57.8066 297.277 58.0849 298.71 58.6413C300.189 59.1978 301.382 60.0325 302.289 61.1454L302.432 61.0758V42.1562H310.523V92.6549H302.432ZM302.432 75.4047C302.432 74.3382 302.361 73.2252 302.217 72.0659C302.122 70.8603 301.836 69.7706 301.358 68.7967C300.929 67.7766 300.285 66.9418 299.426 66.2926C298.566 65.6434 297.396 65.3189 295.917 65.3189C294.342 65.3189 293.1 65.6666 292.193 66.3622C291.334 67.0114 290.666 67.8462 290.189 68.8663C289.711 69.8865 289.402 71.0226 289.258 72.2746C289.163 73.5267 289.115 74.7323 289.115 75.8916C289.115 76.9582 289.163 78.0711 289.258 79.2304C289.402 80.3896 289.711 81.4563 290.189 82.43C290.666 83.3575 291.334 84.1226 292.193 84.7255C293.052 85.3283 294.246 85.6296 295.774 85.6296C297.253 85.6296 298.423 85.3051 299.282 84.6559C300.189 83.9603 300.881 83.1024 301.358 82.0823C301.836 81.062 302.122 79.9723 302.217 78.8131C302.361 77.6074 302.432 76.4712 302.432 75.4047Z" fill="#0C0C3D"/>
<path d="M350.809 83.3347C349.567 86.3488 347.587 88.7369 344.866 90.4991C342.193 92.2612 338.971 93.1423 335.2 93.1423C332.24 93.1423 329.686 92.6785 327.539 91.7511C325.39 90.7773 323.601 89.502 322.168 87.9255C320.785 86.3024 319.734 84.4244 319.018 82.2912C318.35 80.1582 318.016 77.9091 318.016 75.5442V61.1458C318.016 58.8272 318.374 56.6245 319.09 54.5378C319.806 52.4511 320.88 50.6193 322.312 49.0428C323.743 47.4661 325.534 46.214 327.682 45.2867C329.83 44.3592 332.336 43.8955 335.2 43.8955C338.923 43.8955 342.097 44.7302 344.723 46.3996C347.348 48.0226 349.306 50.202 350.594 52.938L347.587 54.3987C346.584 52.2192 345.033 50.4339 342.932 49.0428C340.833 47.6052 338.279 46.8864 335.272 46.8864C332.932 46.8864 330.88 47.2807 329.114 48.0689C327.396 48.8109 325.94 49.8543 324.746 51.1991C323.601 52.4975 322.742 54.0277 322.168 55.7898C321.596 57.5056 321.309 59.3373 321.309 61.2849V75.6138C321.309 77.5614 321.596 79.4162 322.168 81.1783C322.742 82.894 323.601 84.4244 324.746 85.7691C325.94 87.1139 327.396 88.1804 329.114 88.9688C330.88 89.7571 332.932 90.1512 335.272 90.1512C338.327 90.1512 340.881 89.4325 342.932 87.995C345.033 86.5111 346.656 84.5171 347.802 82.0131L350.809 83.3347Z" fill="#0C0C3D"/>
<path d="M378.97 88.8989C378.398 89.7336 377.682 90.4292 376.823 90.9857C376.011 91.5421 375.08 91.9826 374.03 92.3073C372.981 92.5854 371.858 92.7709 370.665 92.8637C369.472 93.0028 368.278 93.0724 367.085 93.0724C365.367 93.0724 363.744 92.8869 362.216 92.516C360.736 92.0985 359.424 91.4957 358.278 90.7074C357.181 89.8728 356.298 88.8525 355.628 87.6469C354.96 86.3948 354.627 84.9341 354.627 83.2648C354.627 80.4824 355.581 78.1871 357.49 76.3786C359.4 74.5236 362.239 73.5963 366.011 73.5963H379.042V68.6577C379.042 66.1072 378.278 64.1365 376.751 62.7453C375.224 61.3541 372.574 60.6586 368.804 60.6586C367.038 60.6586 365.295 60.8905 363.577 61.3541C361.906 61.8178 360.355 62.6989 358.922 63.9973L356.918 61.9106C359.829 59.1746 363.816 57.8066 368.874 57.8066C370.688 57.8066 372.383 57.969 373.958 58.2936C375.581 58.5718 376.99 59.1282 378.183 59.963C379.424 60.7513 380.403 61.841 381.119 63.2322C381.835 64.6234 382.192 66.3854 382.192 68.5186V92.655H379.042V88.8989H378.97ZM366.727 76.1699C363.862 76.1699 361.619 76.7495 359.996 77.9088C358.421 79.0217 357.634 80.7607 357.634 83.1256C357.634 85.4905 358.517 87.2991 360.283 88.5512C362.097 89.8032 364.508 90.4292 367.514 90.4292C368.661 90.4292 369.901 90.3364 371.238 90.1509C372.574 89.9192 373.815 89.5481 374.961 89.038C376.155 88.4816 377.133 87.7396 377.897 86.8121C378.661 85.8384 379.042 84.5864 379.042 83.0561V76.1699H366.727Z" fill="#0C0C3D"/>
<path d="M393.264 58.1547V63.9976H393.335C394.099 62.7455 394.934 61.7253 395.841 60.9369C396.749 60.1023 397.68 59.4531 398.634 58.9895C399.637 58.5257 400.614 58.2011 401.569 58.0156C402.572 57.8301 403.551 57.7373 404.506 57.7373C407.083 57.7373 409.207 58.2243 410.878 59.198C412.548 60.1255 413.884 61.4008 414.887 63.0237C415.89 64.6468 416.582 66.548 416.964 68.7274C417.345 70.8605 417.536 73.1096 417.536 75.4745C417.536 77.6077 417.321 79.7175 416.892 81.8043C416.462 83.891 415.722 85.7691 414.673 87.4384C413.67 89.1078 412.285 90.4526 410.52 91.4728C408.754 92.493 406.534 93.0031 403.862 93.0031C401.14 93.0031 398.944 92.4234 397.273 91.264C395.65 90.1048 394.338 88.6672 393.335 86.9515H393.264V106.497H390.114V58.1547H393.264ZM393.264 75.2658C393.264 77.2134 393.431 79.0915 393.766 80.9001C394.099 82.6622 394.673 84.2387 395.484 85.6299C396.296 87.0211 397.369 88.134 398.706 88.9687C400.042 89.757 401.689 90.1512 403.646 90.1512C405.937 90.1512 407.775 89.6875 409.159 88.76C410.544 87.8326 411.617 86.6734 412.381 85.2822C413.145 83.8446 413.647 82.2679 413.884 80.5522C414.171 78.7901 414.315 77.0743 414.315 75.405C414.315 73.8284 414.219 72.1821 414.028 70.4664C413.838 68.7042 413.384 67.1045 412.668 65.6669C412 64.183 410.973 62.9541 409.589 61.9804C408.204 61.0065 406.344 60.5196 404.004 60.5196C401.761 60.5196 399.946 61.0065 398.563 61.9804C397.179 62.9541 396.081 64.183 395.269 65.6669C394.505 67.1508 393.98 68.7506 393.694 70.4664C393.407 72.1821 393.264 73.782 393.264 75.2658Z" fill="#0C0C3D"/>
<path d="M426.499 47.5822V44.1738H430.08V47.5822H426.499ZM426.786 92.6555V58.155H429.936V92.6555H426.786Z" fill="#0C0C3D"/>
<path d="M449.356 92.6555C446.635 92.6555 444.725 91.9367 443.628 90.4993C442.578 89.0618 442.053 87.091 442.053 84.5869V60.7287H437.183V58.155H442.053V49.043H445.275V58.155H451.862V60.7287H445.275V84.3086C445.275 85.097 445.323 85.8389 445.417 86.5345C445.561 87.2301 445.824 87.8329 446.206 88.343C446.587 88.853 447.112 89.2473 447.781 89.5254C448.497 89.8037 449.404 89.9427 450.501 89.9427H452.722V92.6555H449.356Z" fill="#0C0C3D"/>
<path d="M481.266 88.8989C480.693 89.7336 479.977 90.4292 479.118 90.9857C478.306 91.5421 477.375 91.9826 476.326 92.3073C475.276 92.5854 474.153 92.7709 472.961 92.8637C471.767 93.0028 470.573 93.0724 469.381 93.0724C467.662 93.0724 466.039 92.8869 464.512 92.516C463.032 92.0985 461.719 91.4957 460.574 90.7074C459.476 89.8728 458.593 88.8525 457.925 87.6469C457.257 86.3948 456.922 84.9341 456.922 83.2648C456.922 80.4824 457.877 78.1871 459.785 76.3786C461.695 74.5236 464.536 73.5963 468.306 73.5963H481.338V68.6577C481.338 66.1072 480.573 64.1365 479.046 62.7453C477.519 61.3541 474.869 60.6586 471.099 60.6586C469.333 60.6586 467.59 60.8905 465.872 61.3541C464.201 61.8178 462.65 62.6989 461.218 63.9973L459.213 61.9106C462.125 59.1746 466.111 57.8066 471.171 57.8066C472.985 57.8066 474.679 57.969 476.254 58.2936C477.877 58.5718 479.285 59.1282 480.479 59.963C481.719 60.7513 482.698 61.841 483.414 63.2322C484.13 64.6234 484.488 66.3854 484.488 68.5186V92.655H481.338V88.8989H481.266ZM469.022 76.1699C466.159 76.1699 463.914 76.7495 462.291 77.9088C460.716 79.0217 459.929 80.7607 459.929 83.1256C459.929 85.4905 460.812 87.2991 462.578 88.5512C464.392 89.8032 466.803 90.4292 469.809 90.4292C470.956 90.4292 472.197 90.3364 473.533 90.1509C474.869 89.9192 476.111 89.5481 477.256 89.038C478.45 88.4816 479.428 87.7396 480.192 86.8121C480.956 85.8384 481.338 84.5864 481.338 83.0561V76.1699H469.022Z" fill="#0C0C3D"/>
<path d="M501.502 92.6551C498.925 92.6551 496.92 92.145 495.489 91.1249C494.056 90.0583 493.34 88.2034 493.34 85.5602V42.4346H496.49V85.0734C496.49 86.6501 496.92 87.8789 497.779 88.7599C498.639 89.5946 500.046 90.0119 502.004 90.0119H502.576V92.6551H501.502Z" fill="#0C0C3D"/>
<path d="M31.5272 29.5118C26.4432 38.9485 25.2059 49.975 28.0726 60.2977H28.8763C29.7021 54.183 32.5245 48.5091 36.9077 44.1513C41.291 39.7938 46.9915 36.9947 53.1298 36.186V10.585C43.9078 14.1471 36.2529 20.8538 31.5272 29.5118Z" fill="#A5E4C2"/>
<path d="M29.9186 28.6411C34.9469 19.3704 43.201 12.2498 53.1285 8.61825V8C39.4975 8.88711 26.6547 14.6807 16.9916 24.3018C7.32856 33.923 1.50408 46.7159 0.602844 60.2981H26.1677C23.3246 49.6549 24.6662 38.3317 29.9186 28.6411Z" fill="#0ABB86"/>
<path d="M31.527 29.5112C36.2525 20.8531 43.9074 14.1465 53.1294 10.5843V8.61719C42.9795 12.3325 34.5882 19.6917 29.6008 29.252C24.6133 38.8122 23.3893 49.8841 26.1686 60.297H28.0722C25.2055 49.9744 26.4428 38.9478 31.527 29.5112Z" fill="#CAF6E4"/>
<path d="M91.4117 38.8147C81.9337 33.7412 70.8565 32.508 60.4886 35.372V36.173C66.6238 36.9881 72.3195 39.7917 76.6975 44.1517C81.0754 48.5116 83.8923 54.1855 84.7139 60.2986H110.392C106.812 51.1273 100.088 43.5158 91.4117 38.8147Z" fill="#FAA5AF"/>
<path d="M92.2733 37.2121C101.569 42.2124 108.714 50.4212 112.367 60.2981H112.987C112.087 46.7181 106.264 33.9271 96.6041 24.3063C86.9439 14.6854 74.1045 8.89039 60.4759 8V33.4746C71.1656 30.634 82.5405 31.971 92.2733 37.2121Z" fill="#F80039"/>
<path d="M91.4132 38.8141C100.089 43.5152 106.813 51.1267 110.393 60.2982H112.367C108.636 50.1806 101.245 41.8175 91.6446 36.8499C82.0444 31.8822 70.9279 30.6684 60.4759 33.4467V35.3435C70.8519 32.4842 81.9351 33.7276 91.4132 38.8141Z" fill="#FFDFE7"/>
<path d="M22.1889 89.1713C31.6709 94.2485 42.7539 95.4818 53.1263 92.614V91.813C46.9843 90.9994 41.2821 88.1929 36.9009 83.8271C32.5198 79.4615 29.7033 73.7795 28.8868 67.6592H3.19507C6.77267 76.8434 13.5028 84.4659 22.1889 89.1713Z" fill="#FAA5AF"/>
<path d="M21.317 90.7732C11.9949 85.7767 4.82821 77.5559 1.16688 67.6592H0.602844C1.49751 81.2464 7.31909 94.046 16.9828 103.673C26.6464 113.3 39.493 119.097 53.1285 119.985V94.5108C42.4346 97.3551 31.0539 96.018 21.317 90.7732Z" fill="#F80039"/>
<path d="M22.1923 89.1715C13.5062 84.4659 6.77608 76.8434 3.1985 67.6592H1.16797C4.89947 77.7769 12.2903 86.1398 21.8904 91.1075C31.4906 96.0753 42.6072 97.2891 53.0592 94.5108V92.614C42.7087 95.463 31.6546 94.2302 22.1923 89.1715Z" fill="#FFDFE7"/>
<path d="M86.2523 67.6592C88.5931 87.8646 78.4686 111.077 60.4759 119.156V119.999C74.1138 119.111 86.9621 113.312 96.6261 103.682C106.29 94.0519 112.11 81.2489 113.002 67.6592H86.2523Z" fill="#0ABB86"/>
<path d="M60.4759 117.133C68.0481 113.494 74.5768 106.806 78.9621 97.8971C83.6053 88.5327 85.4784 78.045 84.3627 67.6592H60.3913L60.4759 117.133Z" fill="#A5E4C2"/>
<path d="M86.2523 67.6592H84.3627C85.4654 78.049 83.5776 88.5369 78.9199 97.8971C74.4922 106.791 68.0481 113.494 60.4759 117.133V119.156C78.4686 111.077 88.5931 87.8646 86.2523 67.6592Z" fill="#CAF6E4"/>
<mask id="mask0_1102_982" style="mask-type:alpha" maskUnits="userSpaceOnUse" x="259" y="105" width="115" height="13">
<path d="M373.475 105.911H259.263V117.77H373.475V105.911Z" fill="white"/>
<path d="M264.659 112.825L267.743 107.366H268.727L265.081 113.609V117.377H264.229V113.609L260.591 107.366H261.602L264.659 112.825Z" fill="black"/>
<path d="M279.431 112.915C279.431 113.836 279.269 114.645 278.946 115.342C278.627 116.038 278.169 116.575 277.573 116.951C276.978 117.326 276.288 117.514 275.508 117.514C274.33 117.514 273.379 117.097 272.654 116.263C271.927 115.424 271.565 114.294 271.565 112.873V111.842C271.565 110.93 271.727 110.123 272.051 109.422C272.379 108.716 272.841 108.175 273.436 107.799C274.032 107.419 274.719 107.229 275.494 107.229C276.27 107.229 276.954 107.414 277.546 107.785C278.141 108.157 278.601 108.682 278.925 109.36C279.247 110.038 279.416 110.824 279.431 111.718V112.915ZM278.578 111.828C278.578 110.623 278.303 109.679 277.753 108.995C277.203 108.313 276.451 107.971 275.494 107.971C274.557 107.971 273.808 108.315 273.249 109.002C272.695 109.685 272.417 110.641 272.417 111.87V112.915C272.417 114.102 272.695 115.044 273.249 115.74C273.804 116.433 274.557 116.779 275.508 116.779C276.474 116.779 277.227 116.437 277.768 115.754C278.308 115.067 278.578 114.111 278.578 112.887V111.828Z" fill="black"/>
<path d="M290.516 107.366V114.2C290.512 114.874 290.362 115.461 290.066 115.961C289.769 116.46 289.352 116.845 288.812 117.116C288.275 117.382 287.659 117.514 286.961 117.514C285.898 117.514 285.046 117.228 284.404 116.655C283.767 116.077 283.436 115.28 283.413 114.262V107.366H284.258V114.139C284.258 114.982 284.501 115.637 284.986 116.105C285.471 116.568 286.129 116.799 286.961 116.799C287.793 116.799 288.448 116.566 288.929 116.098C289.415 115.63 289.657 114.98 289.657 114.145V107.366H290.516Z" fill="black"/>
<path d="M298.65 113.21H295.718V117.377H294.859V107.366H298.137C299.213 107.366 300.054 107.625 300.659 108.143C301.265 108.661 301.566 109.385 301.566 110.316C301.566 110.957 301.378 111.524 300.999 112.014C300.62 112.505 300.112 112.844 299.475 113.032L301.997 117.287V117.377H301.088L298.65 113.21ZM295.718 112.488H298.331C299.047 112.488 299.622 112.287 300.056 111.883C300.491 111.48 300.707 110.957 300.707 110.316C300.707 109.61 300.481 109.062 300.029 108.673C299.576 108.283 298.941 108.088 298.123 108.088H295.718V112.488Z" fill="black"/>
<path d="M311.313 117.377V107.366H314.293C315.374 107.366 316.193 107.588 316.753 108.033C317.312 108.473 317.592 109.124 317.592 109.986C317.592 110.504 317.448 110.955 317.162 111.34C316.88 111.721 316.492 111.993 315.998 112.158C316.584 112.287 317.055 112.573 317.411 113.018C317.771 113.462 317.952 113.976 317.952 114.558C317.952 115.443 317.664 116.135 317.086 116.634C316.512 117.129 315.714 117.377 314.687 117.377H311.313ZM312.166 112.564V116.662H314.722C315.452 116.662 316.03 116.479 316.455 116.112C316.884 115.741 317.099 115.227 317.099 114.572C317.099 113.953 316.893 113.465 316.483 113.107C316.077 112.745 315.512 112.564 314.792 112.564H312.166ZM312.166 111.856H314.494C315.205 111.842 315.755 111.677 316.143 111.361C316.536 111.04 316.733 110.575 316.733 109.965C316.733 109.323 316.529 108.851 316.123 108.549C315.721 108.242 315.111 108.088 314.293 108.088H312.166V111.856Z" fill="black"/>
<path d="M325.774 113.21H322.843V117.377H321.982V107.366H325.261C326.337 107.366 327.178 107.625 327.783 108.143C328.389 108.661 328.69 109.385 328.69 110.316C328.69 110.957 328.502 111.524 328.123 112.014C327.743 112.505 327.236 112.844 326.599 113.032L329.121 117.287V117.377H328.212L325.774 113.21ZM322.843 112.488H325.455C326.171 112.488 326.746 112.287 327.18 111.883C327.615 111.48 327.831 110.957 327.831 110.316C327.831 109.61 327.605 109.062 327.152 108.673C326.7 108.283 326.065 108.088 325.247 108.088H322.843V112.488Z" fill="black"/>
<path d="M340.455 112.915C340.455 113.836 340.293 114.645 339.971 115.342C339.652 116.038 339.195 116.575 338.599 116.951C338.003 117.326 337.315 117.514 336.534 117.514C335.356 117.514 334.404 117.097 333.678 116.263C332.953 115.424 332.591 114.294 332.591 112.873V111.842C332.591 110.93 332.753 110.123 333.076 109.422C333.404 108.716 333.866 108.175 334.462 107.799C335.057 107.419 335.744 107.229 336.519 107.229C337.296 107.229 337.98 107.414 338.571 107.785C339.167 108.157 339.627 108.682 339.95 109.36C340.274 110.038 340.442 110.824 340.455 111.718V112.915ZM339.603 111.828C339.603 110.623 339.328 109.679 338.778 108.995C338.228 108.313 337.475 107.971 336.519 107.971C335.582 107.971 334.834 108.315 334.275 109.002C333.72 109.685 333.443 110.641 333.443 111.87V112.915C333.443 114.102 333.72 115.044 334.275 115.74C334.829 116.433 335.582 116.779 336.534 116.779C337.499 116.779 338.252 116.437 338.793 115.754C339.333 115.067 339.603 114.111 339.603 112.887V111.828Z" fill="black"/>
<path d="M346.863 112.406L345.444 113.795V117.377H344.591V107.366H345.444V112.763L350.612 107.366H351.687L347.46 111.821L352.012 117.377H350.974L346.863 112.406Z" fill="black"/>
<path d="M361.103 112.578H356.383V116.662H361.809V117.377H355.531V107.366H361.775V108.088H356.383V111.863H361.103V112.578Z" fill="black"/>
<path d="M369.368 113.21H366.436V117.377H365.577V107.366H368.854C369.931 107.366 370.772 107.625 371.378 108.143C371.982 108.661 372.285 109.385 372.285 110.316C372.285 110.957 372.096 111.524 371.716 112.014C371.338 112.505 370.829 112.844 370.192 113.032L372.715 117.287V117.377H371.807L369.368 113.21ZM366.436 112.488H369.048C369.765 112.488 370.34 112.287 370.775 111.883C371.209 111.48 371.425 110.957 371.425 110.316C371.425 109.61 371.2 109.062 370.747 108.673C370.294 108.283 369.659 108.088 368.841 108.088H366.436V112.488Z" fill="black"/>
</mask>
<g mask="url(#mask0_1102_982)">
<path d="M264.659 112.825L267.743 107.366H268.727L265.081 113.609V117.377H264.229V113.609L260.591 107.366H261.602L264.659 112.825Z" fill="#0C0C3D"/>
<path d="M279.431 112.915C279.431 113.836 279.269 114.645 278.946 115.342C278.627 116.038 278.169 116.575 277.573 116.951C276.978 117.326 276.288 117.514 275.508 117.514C274.33 117.514 273.379 117.097 272.654 116.263C271.927 115.424 271.565 114.294 271.565 112.873V111.842C271.565 110.93 271.727 110.123 272.051 109.422C272.379 108.716 272.841 108.175 273.436 107.799C274.032 107.419 274.719 107.229 275.494 107.229C276.27 107.229 276.954 107.414 277.546 107.785C278.141 108.157 278.601 108.682 278.925 109.36C279.247 110.038 279.416 110.824 279.431 111.718V112.915ZM278.578 111.828C278.578 110.623 278.303 109.679 277.753 108.995C277.203 108.313 276.451 107.971 275.494 107.971C274.557 107.971 273.808 108.315 273.249 109.002C272.695 109.685 272.417 110.641 272.417 111.87V112.915C272.417 114.102 272.695 115.044 273.249 115.74C273.804 116.433 274.557 116.779 275.508 116.779C276.474 116.779 277.227 116.437 277.768 115.754C278.308 115.067 278.578 114.111 278.578 112.887V111.828Z" fill="#0C0C3D"/>
<path d="M290.516 107.366V114.2C290.512 114.874 290.362 115.461 290.066 115.961C289.769 116.46 289.352 116.845 288.812 117.116C288.275 117.382 287.659 117.514 286.961 117.514C285.898 117.514 285.046 117.228 284.404 116.655C283.767 116.077 283.436 115.28 283.413 114.262V107.366H284.258V114.139C284.258 114.982 284.501 115.637 284.986 116.105C285.471 116.568 286.129 116.799 286.961 116.799C287.793 116.799 288.448 116.566 288.929 116.098C289.415 115.63 289.657 114.98 289.657 114.145V107.366H290.516Z" fill="#0C0C3D"/>
<path d="M298.65 113.21H295.718V117.377H294.859V107.366H298.137C299.213 107.366 300.054 107.625 300.659 108.143C301.265 108.661 301.566 109.385 301.566 110.316C301.566 110.957 301.378 111.524 300.999 112.014C300.62 112.505 300.112 112.844 299.475 113.032L301.997 117.287V117.377H301.088L298.65 113.21ZM295.718 112.488H298.331C299.047 112.488 299.622 112.287 300.056 111.883C300.491 111.48 300.707 110.957 300.707 110.316C300.707 109.61 300.481 109.062 300.029 108.673C299.576 108.283 298.941 108.088 298.123 108.088H295.718V112.488Z" fill="#0C0C3D"/>
<path d="M311.313 117.377V107.366H314.293C315.374 107.366 316.194 107.588 316.753 108.033C317.312 108.473 317.592 109.124 317.592 109.986C317.592 110.504 317.449 110.955 317.162 111.34C316.88 111.721 316.492 111.993 315.998 112.158C316.584 112.287 317.055 112.573 317.411 113.018C317.771 113.462 317.952 113.976 317.952 114.558C317.952 115.443 317.664 116.135 317.086 116.634C316.512 117.129 315.714 117.377 314.688 117.377H311.313ZM312.166 112.564V116.662H314.722C315.452 116.662 316.03 116.479 316.455 116.112C316.884 115.741 317.099 115.227 317.099 114.572C317.099 113.953 316.893 113.465 316.483 113.107C316.077 112.745 315.512 112.564 314.792 112.564H312.166ZM312.166 111.856H314.494C315.205 111.842 315.755 111.677 316.143 111.361C316.536 111.04 316.733 110.575 316.733 109.965C316.733 109.323 316.53 108.851 316.123 108.549C315.721 108.242 315.111 108.088 314.293 108.088H312.166V111.856Z" fill="#0C0C3D"/>
<path d="M325.774 113.21H322.843V117.377H321.982V107.366H325.261C326.337 107.366 327.178 107.625 327.783 108.143C328.389 108.661 328.69 109.385 328.69 110.316C328.69 110.957 328.502 111.524 328.123 112.014C327.743 112.505 327.236 112.844 326.599 113.032L329.121 117.287V117.377H328.212L325.774 113.21ZM322.843 112.488H325.455C326.171 112.488 326.746 112.287 327.18 111.883C327.615 111.48 327.831 110.957 327.831 110.316C327.831 109.61 327.605 109.062 327.152 108.673C326.7 108.283 326.065 108.088 325.247 108.088H322.843V112.488Z" fill="#0C0C3D"/>
<path d="M340.455 112.915C340.455 113.836 340.293 114.645 339.971 115.342C339.652 116.038 339.195 116.575 338.599 116.951C338.003 117.326 337.315 117.514 336.534 117.514C335.356 117.514 334.404 117.097 333.678 116.263C332.953 115.424 332.591 114.294 332.591 112.873V111.842C332.591 110.93 332.753 110.123 333.076 109.422C333.404 108.716 333.866 108.175 334.462 107.799C335.057 107.419 335.744 107.229 336.519 107.229C337.296 107.229 337.98 107.414 338.571 107.785C339.167 108.157 339.627 108.682 339.95 109.36C340.274 110.038 340.442 110.824 340.455 111.718V112.915ZM339.603 111.828C339.603 110.623 339.328 109.679 338.778 108.995C338.228 108.313 337.475 107.971 336.519 107.971C335.582 107.971 334.834 108.315 334.275 109.002C333.72 109.685 333.443 110.641 333.443 111.87V112.915C333.443 114.102 333.72 115.044 334.275 115.74C334.829 116.433 335.582 116.779 336.534 116.779C337.499 116.779 338.252 116.437 338.793 115.754C339.333 115.067 339.603 114.111 339.603 112.887V111.828Z" fill="#0C0C3D"/>
<path d="M346.863 112.406L345.444 113.795V117.377H344.591V107.366H345.444V112.763L350.612 107.366H351.687L347.46 111.821L352.012 117.377H350.974L346.863 112.406Z" fill="#0C0C3D"/>
<path d="M361.103 112.578H356.383V116.662H361.809V117.377H355.531V107.366H361.775V108.088H356.383V111.863H361.103V112.578Z" fill="#0C0C3D"/>
<path d="M369.368 113.21H366.436V117.377H365.577V107.366H368.854C369.931 107.366 370.772 107.625 371.378 108.143C371.982 108.661 372.285 109.385 372.285 110.316C372.285 110.957 372.096 111.524 371.716 112.014C371.338 112.505 370.829 112.844 370.192 113.032L372.715 117.287V117.377H371.807L369.368 113.21ZM366.436 112.488H369.048C369.765 112.488 370.34 112.287 370.775 111.883C371.209 111.48 371.425 110.957 371.425 110.316C371.425 109.61 371.2 109.062 370.747 108.673C370.294 108.283 369.659 108.088 368.841 108.088H366.436V112.488Z" fill="#0C0C3D"/>
<path d="M264.659 112.825L267.743 107.366H268.727L265.081 113.609V117.377H264.229V113.609L260.591 107.366H261.602L264.659 112.825Z" stroke="#0C0C3D" stroke-width="0.2"/>
<path d="M279.431 112.915C279.431 113.836 279.269 114.645 278.946 115.342C278.627 116.038 278.169 116.575 277.573 116.951C276.978 117.326 276.288 117.514 275.508 117.514C274.33 117.514 273.379 117.097 272.654 116.263C271.927 115.424 271.565 114.294 271.565 112.873V111.842C271.565 110.93 271.727 110.123 272.051 109.422C272.379 108.716 272.841 108.175 273.436 107.799C274.032 107.419 274.719 107.229 275.494 107.229C276.27 107.229 276.954 107.414 277.546 107.785C278.141 108.157 278.601 108.682 278.925 109.36C279.247 110.038 279.416 110.824 279.431 111.718V112.915ZM278.578 111.828C278.578 110.623 278.303 109.679 277.753 108.995C277.203 108.313 276.451 107.971 275.494 107.971C274.557 107.971 273.808 108.315 273.249 109.002C272.695 109.685 272.417 110.641 272.417 111.87V112.915C272.417 114.102 272.695 115.044 273.249 115.74C273.804 116.433 274.557 116.779 275.508 116.779C276.474 116.779 277.227 116.437 277.768 115.754C278.308 115.067 278.578 114.111 278.578 112.887V111.828Z" stroke="#0C0C3D" stroke-width="0.2"/>
<path d="M290.516 107.366V114.2C290.512 114.874 290.362 115.461 290.066 115.961C289.769 116.46 289.352 116.845 288.812 117.116C288.275 117.382 287.659 117.514 286.961 117.514C285.898 117.514 285.046 117.228 284.404 116.655C283.767 116.077 283.436 115.28 283.413 114.262V107.366H284.258V114.139C284.258 114.982 284.501 115.637 284.986 116.105C285.471 116.568 286.129 116.799 286.961 116.799C287.793 116.799 288.448 116.566 288.929 116.098C289.415 115.63 289.657 114.98 289.657 114.145V107.366H290.516Z" stroke="#0C0C3D" stroke-width="0.2"/>
<path d="M298.65 113.21H295.718V117.377H294.859V107.366H298.137C299.213 107.366 300.054 107.625 300.659 108.143C301.265 108.661 301.566 109.385 301.566 110.316C301.566 110.957 301.378 111.524 300.999 112.014C300.62 112.505 300.112 112.844 299.475 113.032L301.997 117.287V117.377H301.088L298.65 113.21ZM295.718 112.488H298.331C299.047 112.488 299.622 112.287 300.056 111.883C300.491 111.48 300.707 110.957 300.707 110.316C300.707 109.61 300.481 109.062 300.029 108.673C299.576 108.283 298.941 108.088 298.123 108.088H295.718V112.488Z" stroke="#0C0C3D" stroke-width="0.2"/>
<path d="M311.313 117.377V107.366H314.293C315.374 107.366 316.194 107.588 316.753 108.033C317.312 108.473 317.592 109.124 317.592 109.986C317.592 110.504 317.449 110.955 317.162 111.34C316.88 111.721 316.492 111.993 315.998 112.158C316.584 112.287 317.055 112.573 317.411 113.018C317.771 113.462 317.952 113.976 317.952 114.558C317.952 115.443 317.664 116.135 317.086 116.634C316.512 117.129 315.714 117.377 314.688 117.377H311.313ZM312.166 112.564V116.662H314.722C315.452 116.662 316.03 116.479 316.455 116.112C316.884 115.741 317.099 115.227 317.099 114.572C317.099 113.953 316.893 113.465 316.483 113.107C316.077 112.745 315.512 112.564 314.792 112.564H312.166ZM312.166 111.856H314.494C315.205 111.842 315.755 111.677 316.143 111.361C316.536 111.04 316.733 110.575 316.733 109.965C316.733 109.323 316.53 108.851 316.123 108.549C315.721 108.242 315.111 108.088 314.293 108.088H312.166V111.856Z" stroke="#0C0C3D" stroke-width="0.2"/>
<path d="M325.774 113.21H322.843V117.377H321.982V107.366H325.261C326.337 107.366 327.178 107.625 327.783 108.143C328.389 108.661 328.69 109.385 328.69 110.316C328.69 110.957 328.502 111.524 328.123 112.014C327.743 112.505 327.236 112.844 326.599 113.032L329.121 117.287V117.377H328.212L325.774 113.21ZM322.843 112.488H325.455C326.171 112.488 326.746 112.287 327.18 111.883C327.615 111.48 327.831 110.957 327.831 110.316C327.831 109.61 327.605 109.062 327.152 108.673C326.7 108.283 326.065 108.088 325.247 108.088H322.843V112.488Z" stroke="#0C0C3D" stroke-width="0.2"/>
<path d="M340.455 112.915C340.455 113.836 340.293 114.645 339.971 115.342C339.652 116.038 339.195 116.575 338.599 116.951C338.003 117.326 337.315 117.514 336.534 117.514C335.356 117.514 334.404 117.097 333.678 116.263C332.953 115.424 332.591 114.294 332.591 112.873V111.842C332.591 110.93 332.753 110.123 333.076 109.422C333.404 108.716 333.866 108.175 334.462 107.799C335.057 107.419 335.744 107.229 336.519 107.229C337.296 107.229 337.98 107.414 338.571 107.785C339.167 108.157 339.627 108.682 339.95 109.36C340.274 110.038 340.442 110.824 340.455 111.718V112.915ZM339.603 111.828C339.603 110.623 339.328 109.679 338.778 108.995C338.228 108.313 337.475 107.971 336.519 107.971C335.582 107.971 334.834 108.315 334.275 109.002C333.72 109.685 333.443 110.641 333.443 111.87V112.915C333.443 114.102 333.72 115.044 334.275 115.74C334.829 116.433 335.582 116.779 336.534 116.779C337.499 116.779 338.252 116.437 338.793 115.754C339.333 115.067 339.603 114.111 339.603 112.887V111.828Z" stroke="#0C0C3D" stroke-width="0.2"/>
<path d="M346.863 112.406L345.444 113.795V117.377H344.591V107.366H345.444V112.763L350.612 107.366H351.687L347.46 111.821L352.012 117.377H350.974L346.863 112.406Z" stroke="#0C0C3D" stroke-width="0.2"/>
<path d="M361.103 112.578H356.383V116.662H361.809V117.377H355.531V107.366H361.775V108.088H356.383V111.863H361.103V112.578Z" stroke="#0C0C3D" stroke-width="0.2"/>
<path d="M369.368 113.21H366.436V117.377H365.577V107.366H368.854C369.931 107.366 370.772 107.625 371.378 108.143C371.982 108.661 372.285 109.385 372.285 110.316C372.285 110.957 372.096 111.524 371.716 112.014C371.338 112.505 370.829 112.844 370.192 113.032L372.715 117.287V117.377H371.807L369.368 113.21ZM366.436 112.488H369.048C369.765 112.488 370.34 112.287 370.775 111.883C371.209 111.48 371.425 110.957 371.425 110.316C371.425 109.61 371.2 109.062 370.747 108.673C370.294 108.283 369.659 108.088 368.841 108.088H366.436V112.488Z" stroke="#0C0C3D" stroke-width="0.2"/>
</g>
<mask id="mask1_1102_982" style="mask-type:alpha" maskUnits="userSpaceOnUse" x="410" y="105" width="93" height="13">
<path d="M503 105.911H410.037V117.77H503V105.911Z" fill="white"/>
<path d="M417.74 114.915C417.74 114.361 417.543 113.923 417.151 113.602C416.758 113.277 416.04 112.97 414.996 112.681C413.952 112.388 413.19 112.069 412.709 111.725C412.025 111.239 411.684 110.602 411.684 109.814C411.684 109.048 412 108.427 412.632 107.95C413.271 107.469 414.083 107.229 415.072 107.229C415.742 107.229 416.34 107.357 416.867 107.614C417.398 107.87 417.809 108.228 418.099 108.686C418.392 109.145 418.536 109.656 418.536 110.219H417.677C417.677 109.536 417.442 108.989 416.971 108.576C416.499 108.159 415.867 107.95 415.072 107.95C414.3 107.95 413.686 108.122 413.228 108.466C412.771 108.805 412.543 109.25 412.543 109.8C412.543 110.309 412.747 110.724 413.159 111.044C413.571 111.365 414.228 111.649 415.134 111.897C416.04 112.14 416.726 112.394 417.192 112.66C417.659 112.921 418.011 113.235 418.246 113.602C418.481 113.969 418.599 114.402 418.599 114.902C418.599 115.69 418.28 116.323 417.643 116.799C417.01 117.276 416.174 117.514 415.134 117.514C414.422 117.514 413.769 117.388 413.172 117.136C412.581 116.884 412.131 116.531 411.822 116.077C411.516 115.624 411.365 115.103 411.365 114.517H412.216C412.216 115.222 412.482 115.779 413.013 116.187C413.546 116.595 414.252 116.799 415.134 116.799C415.92 116.799 416.55 116.627 417.026 116.284C417.502 115.94 417.74 115.484 417.74 114.915Z" fill="black"/>
<path d="M423.469 117.377H422.616V107.366H423.469V117.377Z" fill="black"/>
<path d="M435.712 117.377H434.859L429.059 108.81V117.377H428.199V107.366H429.059L434.866 115.94V107.366H435.712V117.377Z" fill="black"/>
<path d="M447.407 114.255C447.291 115.31 446.91 116.116 446.263 116.675C445.622 117.235 444.764 117.514 443.692 117.514C442.945 117.514 442.282 117.329 441.704 116.957C441.13 116.586 440.688 116.061 440.373 115.383C440.059 114.7 439.899 113.921 439.895 113.045V111.746C439.895 110.857 440.052 110.068 440.367 109.38C440.68 108.693 441.13 108.164 441.717 107.792C442.31 107.416 442.988 107.229 443.755 107.229C444.836 107.229 445.688 107.52 446.312 108.102C446.941 108.679 447.306 109.479 447.407 110.501H446.548C446.335 108.801 445.404 107.95 443.755 107.95C442.841 107.95 442.111 108.29 441.565 108.968C441.024 109.646 440.755 110.584 440.755 111.78V113.004C440.755 114.159 441.018 115.08 441.545 115.768C442.076 116.455 442.792 116.799 443.692 116.799C444.585 116.799 445.257 116.588 445.71 116.167C446.162 115.74 446.441 115.103 446.548 114.255H447.407Z" fill="black"/>
<path d="M457.038 112.578H452.318V116.662H457.744V117.377H451.465V107.366H457.71V108.088H452.318V111.863H457.038V112.578Z" fill="black"/>
<path d="M472.965 117.377H466.645V116.744L470.103 112.853C470.675 112.197 471.072 111.656 471.294 111.23C471.516 110.804 471.628 110.389 471.628 109.986C471.628 109.353 471.44 108.853 471.066 108.487C470.693 108.115 470.177 107.93 469.521 107.93C468.841 107.93 468.292 108.145 467.872 108.576C467.456 109.007 467.248 109.566 467.248 110.254H466.423C466.423 109.69 466.55 109.177 466.804 108.714C467.063 108.251 467.428 107.889 467.9 107.627C468.375 107.361 468.916 107.229 469.521 107.229C470.444 107.229 471.165 107.469 471.683 107.95C472.205 108.432 472.466 109.087 472.466 109.917C472.466 110.384 472.318 110.895 472.022 111.45C471.731 112.005 471.216 112.697 470.477 113.526L467.663 116.682H472.965V117.377Z" fill="black"/>
<path d="M482.588 113.203C482.588 114.615 482.328 115.688 481.806 116.421C481.284 117.15 480.514 117.514 479.498 117.514C478.5 117.514 477.735 117.157 477.204 116.442C476.673 115.722 476.401 114.677 476.386 113.306V111.512C476.386 110.105 476.65 109.039 477.176 108.315C477.703 107.591 478.472 107.229 479.484 107.229C480.482 107.229 481.244 107.579 481.771 108.281C482.297 108.977 482.569 110.006 482.588 111.368V113.203ZM481.757 111.409C481.757 110.263 481.568 109.397 481.188 108.81C480.815 108.223 480.247 107.93 479.484 107.93C478.735 107.93 478.172 108.216 477.792 108.789C477.414 109.362 477.22 110.208 477.211 111.326V113.293C477.211 114.434 477.405 115.307 477.792 115.912C478.185 116.517 478.754 116.82 479.498 116.82C480.237 116.82 480.796 116.524 481.175 115.933C481.559 115.342 481.753 114.475 481.757 113.334V111.409Z" fill="black"/>
<path d="M492.447 113.203C492.447 114.615 492.187 115.688 491.664 116.421C491.142 117.15 490.373 117.514 489.357 117.514C488.358 117.514 487.595 117.157 487.063 116.442C486.532 115.722 486.259 114.677 486.245 113.306V111.512C486.245 110.105 486.508 109.039 487.036 108.315C487.561 107.591 488.332 107.229 489.342 107.229C490.341 107.229 491.103 107.579 491.629 108.281C492.156 108.977 492.429 110.006 492.447 111.368V113.203ZM491.616 111.409C491.616 110.263 491.426 109.397 491.048 108.81C490.673 108.223 490.105 107.93 489.342 107.93C488.595 107.93 488.032 108.216 487.652 108.789C487.273 109.362 487.079 110.208 487.07 111.326V113.293C487.07 114.434 487.264 115.307 487.652 115.912C488.045 116.517 488.613 116.82 489.357 116.82C490.095 116.82 490.654 116.524 491.034 115.933C491.417 115.342 491.611 114.475 491.616 113.334V111.409Z" fill="black"/>
<path d="M501.114 107.291V108.013H501.017C499.811 108.013 498.863 108.366 498.17 109.072C497.477 109.773 497.093 110.749 497.02 112.001C497.296 111.62 497.649 111.327 498.08 111.121C498.509 110.91 498.989 110.804 499.52 110.804C500.408 110.804 501.113 111.109 501.635 111.719C502.161 112.324 502.425 113.117 502.425 114.098C502.425 114.749 502.301 115.335 502.057 115.858C501.813 116.38 501.461 116.788 501.004 117.082C500.546 117.37 500.024 117.515 499.438 117.515C498.473 117.515 497.686 117.169 497.081 116.477C496.477 115.78 496.174 114.881 496.174 113.781V112.956C496.174 111.164 496.586 109.778 497.408 108.797C498.23 107.811 499.396 107.309 500.907 107.291H501.114ZM499.389 111.512C498.863 111.512 498.37 111.668 497.914 111.98C497.461 112.287 497.158 112.679 497.005 113.156V113.857C497.005 114.728 497.23 115.438 497.677 115.988C498.13 116.539 498.717 116.814 499.438 116.814C500.085 116.814 500.607 116.559 501.004 116.05C501.406 115.542 501.607 114.9 501.607 114.125C501.607 113.337 501.406 112.704 501.004 112.228C500.607 111.751 500.068 111.512 499.389 111.512Z" fill="black"/>
</mask>
<g mask="url(#mask1_1102_982)">
<path d="M417.74 114.915C417.74 114.361 417.543 113.923 417.151 113.602C416.758 113.277 416.04 112.97 414.996 112.681C413.952 112.388 413.19 112.069 412.709 111.725C412.025 111.239 411.684 110.602 411.684 109.814C411.684 109.048 412 108.427 412.632 107.95C413.271 107.469 414.083 107.229 415.072 107.229C415.742 107.229 416.34 107.357 416.867 107.614C417.398 107.87 417.809 108.228 418.099 108.686C418.392 109.145 418.536 109.656 418.536 110.219H417.677C417.677 109.536 417.442 108.989 416.971 108.576C416.499 108.159 415.867 107.95 415.072 107.95C414.3 107.95 413.686 108.122 413.228 108.466C412.771 108.805 412.543 109.25 412.543 109.8C412.543 110.309 412.747 110.724 413.159 111.044C413.571 111.365 414.228 111.649 415.134 111.897C416.04 112.14 416.726 112.394 417.192 112.66C417.659 112.921 418.011 113.235 418.246 113.602C418.481 113.969 418.599 114.402 418.599 114.902C418.599 115.69 418.28 116.323 417.643 116.799C417.01 117.276 416.174 117.514 415.134 117.514C414.422 117.514 413.769 117.388 413.172 117.136C412.581 116.884 412.131 116.531 411.822 116.077C411.516 115.624 411.365 115.103 411.365 114.517H412.216C412.216 115.222 412.482 115.779 413.013 116.187C413.546 116.595 414.252 116.799 415.134 116.799C415.92 116.799 416.55 116.627 417.026 116.284C417.502 115.94 417.74 115.484 417.74 114.915Z" fill="#0C0C3D"/>
<path d="M423.469 117.377H422.616V107.366H423.469V117.377Z" fill="#0C0C3D"/>
<path d="M435.712 117.377H434.859L429.058 108.81V117.377H428.199V107.366H429.058L434.866 115.94V107.366H435.712V117.377Z" fill="#0C0C3D"/>
<path d="M447.407 114.255C447.291 115.31 446.91 116.116 446.263 116.675C445.622 117.235 444.764 117.514 443.692 117.514C442.945 117.514 442.282 117.329 441.704 116.957C441.13 116.586 440.688 116.061 440.373 115.383C440.059 114.7 439.899 113.921 439.895 113.045V111.746C439.895 110.857 440.052 110.068 440.367 109.38C440.68 108.693 441.13 108.164 441.717 107.792C442.31 107.416 442.988 107.229 443.755 107.229C444.836 107.229 445.688 107.52 446.312 108.102C446.941 108.679 447.306 109.479 447.407 110.501H446.548C446.335 108.801 445.404 107.95 443.755 107.95C442.841 107.95 442.111 108.29 441.565 108.968C441.024 109.646 440.755 110.584 440.755 111.78V113.004C440.755 114.159 441.018 115.08 441.545 115.768C442.076 116.455 442.792 116.799 443.692 116.799C444.585 116.799 445.257 116.588 445.71 116.167C446.162 115.74 446.441 115.103 446.548 114.255H447.407Z" fill="#0C0C3D"/>
<path d="M457.038 112.578H452.318V116.662H457.744V117.377H451.465V107.366H457.71V108.088H452.318V111.863H457.038V112.578Z" fill="#0C0C3D"/>
<path d="M472.965 117.377H466.645V116.744L470.103 112.853C470.675 112.197 471.072 111.656 471.294 111.23C471.516 110.804 471.628 110.389 471.628 109.986C471.628 109.353 471.44 108.853 471.066 108.487C470.693 108.115 470.177 107.93 469.521 107.93C468.841 107.93 468.292 108.145 467.872 108.576C467.456 109.007 467.248 109.566 467.248 110.254H466.423C466.423 109.69 466.55 109.177 466.804 108.714C467.063 108.251 467.428 107.889 467.9 107.627C468.375 107.361 468.916 107.229 469.521 107.229C470.444 107.229 471.165 107.469 471.683 107.95C472.205 108.432 472.466 109.087 472.466 109.917C472.466 110.384 472.318 110.895 472.022 111.45C471.731 112.005 471.216 112.697 470.477 113.526L467.663 116.682H472.965V117.377Z" fill="#0C0C3D"/>
<path d="M482.588 113.203C482.588 114.615 482.328 115.688 481.806 116.421C481.284 117.15 480.514 117.514 479.498 117.514C478.5 117.514 477.735 117.157 477.204 116.442C476.673 115.722 476.401 114.677 476.386 113.306V111.512C476.386 110.105 476.65 109.039 477.176 108.315C477.703 107.591 478.472 107.229 479.484 107.229C480.482 107.229 481.244 107.579 481.771 108.281C482.297 108.977 482.569 110.006 482.588 111.368V113.203ZM481.757 111.409C481.757 110.263 481.568 109.397 481.188 108.81C480.815 108.223 480.247 107.93 479.484 107.93C478.735 107.93 478.172 108.216 477.792 108.789C477.414 109.362 477.22 110.208 477.211 111.326V113.293C477.211 114.434 477.405 115.307 477.792 115.912C478.185 116.517 478.754 116.82 479.498 116.82C480.237 116.82 480.796 116.524 481.175 115.933C481.559 115.342 481.753 114.475 481.757 113.334V111.409Z" fill="#0C0C3D"/>
<path d="M492.447 113.203C492.447 114.615 492.187 115.688 491.664 116.421C491.142 117.15 490.373 117.514 489.357 117.514C488.358 117.514 487.595 117.157 487.063 116.442C486.532 115.722 486.259 114.677 486.245 113.306V111.512C486.245 110.105 486.508 109.039 487.036 108.315C487.561 107.591 488.332 107.229 489.342 107.229C490.341 107.229 491.103 107.579 491.629 108.281C492.156 108.977 492.429 110.006 492.447 111.368V113.203ZM491.616 111.409C491.616 110.263 491.426 109.397 491.048 108.81C490.673 108.223 490.105 107.93 489.342 107.93C488.595 107.93 488.032 108.216 487.652 108.789C487.273 109.362 487.079 110.208 487.07 111.326V113.293C487.07 114.434 487.264 115.307 487.652 115.912C488.045 116.517 488.613 116.82 489.357 116.82C490.095 116.82 490.654 116.524 491.034 115.933C491.417 115.342 491.611 114.475 491.616 113.334V111.409Z" fill="#0C0C3D"/>
<path d="M501.114 107.291V108.013H501.017C499.811 108.013 498.863 108.366 498.17 109.072C497.477 109.773 497.093 110.749 497.02 112.001C497.296 111.62 497.649 111.327 498.08 111.121C498.509 110.91 498.989 110.804 499.52 110.804C500.408 110.804 501.113 111.109 501.635 111.719C502.161 112.324 502.425 113.117 502.425 114.098C502.425 114.749 502.301 115.335 502.057 115.858C501.813 116.38 501.461 116.788 501.004 117.082C500.546 117.37 500.024 117.515 499.438 117.515C498.473 117.515 497.686 117.169 497.081 116.477C496.477 115.78 496.174 114.881 496.174 113.781V112.956C496.174 111.164 496.586 109.778 497.408 108.797C498.23 107.811 499.396 107.309 500.907 107.291H501.114ZM499.389 111.512C498.863 111.512 498.37 111.668 497.914 111.98C497.461 112.287 497.158 112.679 497.005 113.156V113.857C497.005 114.728 497.23 115.438 497.677 115.988C498.13 116.539 498.717 116.814 499.438 116.814C500.085 116.814 500.607 116.559 501.004 116.05C501.406 115.542 501.607 114.9 501.607 114.125C501.607 113.337 501.406 112.704 501.004 112.228C500.607 111.751 500.068 111.512 499.389 111.512Z" fill="#0C0C3D"/>
<path d="M417.74 114.915C417.74 114.361 417.543 113.923 417.151 113.602C416.758 113.277 416.04 112.97 414.996 112.681C413.952 112.388 413.19 112.069 412.709 111.725C412.025 111.239 411.684 110.602 411.684 109.814C411.684 109.048 412 108.427 412.632 107.95C413.271 107.469 414.083 107.229 415.072 107.229C415.742 107.229 416.34 107.357 416.867 107.614C417.398 107.87 417.809 108.228 418.099 108.686C418.392 109.145 418.536 109.656 418.536 110.219H417.677C417.677 109.536 417.442 108.989 416.971 108.576C416.499 108.159 415.867 107.95 415.072 107.95C414.3 107.95 413.686 108.122 413.228 108.466C412.771 108.805 412.543 109.25 412.543 109.8C412.543 110.309 412.747 110.724 413.159 111.044C413.571 111.365 414.228 111.649 415.134 111.897C416.04 112.14 416.726 112.394 417.192 112.66C417.659 112.921 418.011 113.235 418.246 113.602C418.481 113.969 418.599 114.402 418.599 114.902C418.599 115.69 418.28 116.323 417.643 116.799C417.01 117.276 416.174 117.514 415.134 117.514C414.422 117.514 413.769 117.388 413.172 117.136C412.581 116.884 412.131 116.531 411.822 116.077C411.516 115.624 411.365 115.103 411.365 114.517H412.216C412.216 115.222 412.482 115.779 413.013 116.187C413.546 116.595 414.252 116.799 415.134 116.799C415.92 116.799 416.55 116.627 417.026 116.284C417.502 115.94 417.74 115.484 417.74 114.915Z" stroke="#0C0C3D" stroke-width="0.2"/>
<path d="M423.469 117.377H422.616V107.366H423.469V117.377Z" stroke="#0C0C3D" stroke-width="0.2"/>
<path d="M435.712 117.377H434.859L429.058 108.81V117.377H428.199V107.366H429.058L434.866 115.94V107.366H435.712V117.377Z" stroke="#0C0C3D" stroke-width="0.2"/>
<path d="M447.407 114.255C447.291 115.31 446.91 116.116 446.263 116.675C445.622 117.235 444.764 117.514 443.692 117.514C442.945 117.514 442.282 117.329 441.704 116.957C441.13 116.586 440.688 116.061 440.373 115.383C440.059 114.7 439.899 113.921 439.895 113.045V111.746C439.895 110.857 440.052 110.068 440.367 109.38C440.68 108.693 441.13 108.164 441.717 107.792C442.31 107.416 442.988 107.229 443.755 107.229C444.836 107.229 445.688 107.52 446.312 108.102C446.941 108.679 447.306 109.479 447.407 110.501H446.548C446.335 108.801 445.404 107.95 443.755 107.95C442.841 107.95 442.111 108.29 441.565 108.968C441.024 109.646 440.755 110.584 440.755 111.78V113.004C440.755 114.159 441.018 115.08 441.545 115.768C442.076 116.455 442.792 116.799 443.692 116.799C444.585 116.799 445.257 116.588 445.71 116.167C446.162 115.74 446.441 115.103 446.548 114.255H447.407Z" stroke="#0C0C3D" stroke-width="0.2"/>
<path d="M457.038 112.578H452.318V116.662H457.744V117.377H451.465V107.366H457.71V108.088H452.318V111.863H457.038V112.578Z" stroke="#0C0C3D" stroke-width="0.2"/>
<path d="M472.965 117.377H466.645V116.744L470.103 112.853C470.675 112.197 471.072 111.656 471.294 111.23C471.516 110.804 471.628 110.389 471.628 109.986C471.628 109.353 471.44 108.853 471.066 108.487C470.693 108.115 470.177 107.93 469.521 107.93C468.841 107.93 468.292 108.145 467.872 108.576C467.456 109.007 467.248 109.566 467.248 110.254H466.423C466.423 109.69 466.55 109.177 466.804 108.714C467.063 108.251 467.428 107.889 467.9 107.627C468.375 107.361 468.916 107.229 469.521 107.229C470.444 107.229 471.165 107.469 471.683 107.95C472.205 108.432 472.466 109.087 472.466 109.917C472.466 110.384 472.318 110.895 472.022 111.45C471.731 112.005 471.216 112.697 470.477 113.526L467.663 116.682H472.965V117.377Z" stroke="#0C0C3D" stroke-width="0.2"/>
<path d="M482.588 113.203C482.588 114.615 482.328 115.688 481.806 116.421C481.284 117.15 480.514 117.514 479.498 117.514C478.5 117.514 477.735 117.157 477.204 116.442C476.673 115.722 476.401 114.677 476.386 113.306V111.512C476.386 110.105 476.65 109.039 477.176 108.315C477.703 107.591 478.472 107.229 479.484 107.229C480.482 107.229 481.244 107.579 481.771 108.281C482.297 108.977 482.569 110.006 482.588 111.368V113.203ZM481.757 111.409C481.757 110.263 481.568 109.397 481.188 108.81C480.815 108.223 480.247 107.93 479.484 107.93C478.735 107.93 478.172 108.216 477.792 108.789C477.414 109.362 477.22 110.208 477.211 111.326V113.293C477.211 114.434 477.405 115.307 477.792 115.912C478.185 116.517 478.754 116.82 479.498 116.82C480.237 116.82 480.796 116.524 481.175 115.933C481.559 115.342 481.753 114.475 481.757 113.334V111.409Z" stroke="#0C0C3D" stroke-width="0.2"/>
<path d="M492.447 113.203C492.447 114.615 492.187 115.688 491.664 116.421C491.142 117.15 490.373 117.514 489.357 117.514C488.358 117.514 487.595 117.157 487.063 116.442C486.532 115.722 486.259 114.677 486.245 113.306V111.512C486.245 110.105 486.508 109.039 487.036 108.315C487.561 107.591 488.332 107.229 489.342 107.229C490.341 107.229 491.103 107.579 491.629 108.281C492.156 108.977 492.429 110.006 492.447 111.368V113.203ZM491.616 111.409C491.616 110.263 491.426 109.397 491.048 108.81C490.673 108.223 490.105 107.93 489.342 107.93C488.595 107.93 488.032 108.216 487.652 108.789C487.273 109.362 487.079 110.208 487.07 111.326V113.293C487.07 114.434 487.264 115.307 487.652 115.912C488.045 116.517 488.613 116.82 489.357 116.82C490.095 116.82 490.654 116.524 491.034 115.933C491.417 115.342 491.611 114.475 491.616 113.334V111.409Z" stroke="#0C0C3D" stroke-width="0.2"/>
<path d="M501.114 107.291V108.013H501.017C499.811 108.013 498.863 108.366 498.17 109.072C497.477 109.773 497.093 110.749 497.02 112.001C497.296 111.62 497.649 111.327 498.08 111.121C498.509 110.91 498.989 110.804 499.52 110.804C500.408 110.804 501.113 111.109 501.635 111.719C502.161 112.324 502.425 113.117 502.425 114.098C502.425 114.749 502.301 115.335 502.057 115.858C501.813 116.38 501.461 116.788 501.004 117.082C500.546 117.37 500.024 117.515 499.438 117.515C498.473 117.515 497.686 117.169 497.081 116.477C496.477 115.78 496.174 114.881 496.174 113.781V112.956C496.174 111.164 496.586 109.778 497.408 108.797C498.23 107.811 499.396 107.309 500.907 107.291H501.114ZM499.389 111.512C498.863 111.512 498.37 111.668 497.914 111.98C497.461 112.287 497.158 112.679 497.005 113.156V113.857C497.005 114.728 497.23 115.438 497.677 115.988C498.13 116.539 498.717 116.814 499.438 116.814C500.085 116.814 500.607 116.559 501.004 116.05C501.406 115.542 501.607 114.9 501.607 114.125C501.607 113.337 501.406 112.704 501.004 112.228C500.607 111.751 500.068 111.512 499.389 111.512Z" stroke="#0C0C3D" stroke-width="0.2"/>
</g>
</g>
<defs>
<clipPath id="clip0_1102_982">
<rect width="502" height="112" fill="white" transform="translate(0.602844 8)"/>
</clipPath>
</defs>
</svg>
