<svg width="419" height="128" viewBox="0 0 419 128" fill="none" xmlns="http://www.w3.org/2000/svg">
<path d="M6.29414 63.5192C6.29414 65.6612 6.31592 67.7594 6.38125 69.7702C6.42481 71.781 6.62082 73.6825 6.92572 75.4747C7.23063 77.2669 7.73154 78.8843 8.38491 80.3487C9.06006 81.8131 9.99655 83.0808 11.2162 84.1517C12.4358 85.2227 13.9821 86.0314 15.8333 86.6215C17.6845 87.2116 19.9713 87.4958 22.6937 87.4958H23.6737C26.3961 87.4958 28.6829 87.2116 30.5558 86.6215C32.4288 86.0314 33.9751 85.2227 35.1948 84.1517C36.4144 83.0808 37.3509 81.8131 38.026 80.3487C38.7012 78.8843 39.1803 77.2451 39.4852 75.4747C39.7901 73.6825 39.9861 71.8028 40.0297 69.7702C40.0732 67.7594 40.1168 65.683 40.1168 63.5192V62.8636V62.7324V37.6194C40.1168 36.6577 40.4653 35.9801 41.184 35.5649C41.8809 35.1496 42.7085 34.931 43.6667 34.931C44.6904 34.931 45.4308 35.1277 45.8446 35.4993C46.2584 35.8709 46.4762 36.4173 46.4762 37.1385V62.7324C46.4762 65.3115 46.4109 67.8687 46.3238 70.3603C46.2149 72.8738 45.9318 75.2343 45.4744 77.4855C45.017 79.7367 44.2983 81.8131 43.3401 83.7146C42.3818 85.6161 41.0315 87.2772 39.3327 88.6541C37.634 90.053 35.4779 91.1239 32.8644 91.9108C30.2509 92.6976 27.093 93.091 23.347 93.091H23.151C19.405 93.091 16.2253 92.6976 13.6336 91.9108C11.0202 91.1239 8.86405 90.0311 7.14351 88.6541C5.42298 87.2553 4.09447 85.6161 3.13619 83.6927C2.17792 81.7694 1.481 79.693 1.00186 77.4418C0.522724 75.1906 0.239599 72.8301 0.152483 70.3166C0.0653673 67.8031 3.05176e-05 65.2678 3.05176e-05 62.6887V37.1167C3.05176e-05 36.4173 0.21782 35.8709 0.631619 35.4774C1.04542 35.1059 1.7859 34.9092 2.80951 34.9092C3.76778 34.9092 4.59538 35.1277 5.29231 35.543C5.98923 35.9583 6.35947 36.6577 6.35947 37.5975V63.5192H6.29414Z" fill="url(#paint0_linear_1102_968)"/>
<path d="M149.023 34.9092C149.885 34.9092 150.423 35.0856 150.682 35.4606C150.918 35.8355 151.048 36.5854 151.048 37.7102C151.048 38.3719 150.94 38.9012 150.746 39.2761C150.552 39.6511 150.294 39.9378 150.014 40.1142C149.734 40.2907 149.454 40.4009 149.174 40.4451C148.894 40.4892 148.679 40.5112 148.506 40.5112H130.76V91.2825C130.76 92.0323 130.437 92.5176 129.791 92.7381C129.145 92.9807 128.413 93.091 127.616 93.091C126.776 93.091 126.044 92.9587 125.419 92.7161C124.794 92.4735 124.471 91.9882 124.471 91.2825V40.5112H107.005C106.768 40.5112 106.51 40.4671 106.23 40.4009C105.95 40.3348 105.691 40.2024 105.454 39.9819C105.218 39.7834 105.002 39.4967 104.83 39.1217C104.658 38.7468 104.571 38.2836 104.571 37.7102C104.571 37.1147 104.593 36.6074 104.658 36.2546C104.701 35.8796 104.808 35.5929 104.938 35.3944C105.067 35.1959 105.282 35.0636 105.541 34.9974C105.799 34.9533 106.144 34.9092 106.553 34.9092L149.023 34.9092Z" fill="#0C0C3D"/>
<path d="M176.321 40.544H164.458V91.2183C164.458 91.5928 164.37 91.9013 164.193 92.1216C164.017 92.3419 163.774 92.5182 163.466 92.6504C163.157 92.7825 162.826 92.8707 162.429 92.9147C162.054 92.9588 161.635 92.9808 161.238 92.9808C160.379 92.9808 159.629 92.8707 158.989 92.6504C158.35 92.43 158.019 91.9453 158.019 91.2183V38.0323V37.834V37.6357C158.019 36.8866 158.35 36.2477 159.033 35.7189C159.717 35.1901 160.709 34.9257 162.01 34.9257H176.299C179.849 34.8376 183.157 35.102 186.266 35.6969C189.375 36.2917 192.065 37.2832 194.359 38.6712C196.652 40.0813 198.46 41.91 199.783 44.1793C201.106 46.4486 201.768 49.2467 201.768 52.5296V52.9922C201.768 55.1294 201.481 57.0682 200.93 58.7867C200.356 60.5052 199.563 62.0034 198.526 63.3033C197.49 64.6032 196.211 65.7049 194.733 66.6302C193.256 67.5556 191.602 68.3267 189.794 68.8995L201.856 90.3149C202.187 90.8878 202.253 91.3505 202.076 91.725C201.9 92.0775 201.591 92.3639 201.15 92.5622C200.709 92.7605 200.202 92.9147 199.651 92.9808C199.077 93.0469 198.592 93.091 198.151 93.091C197.578 93.091 197.005 92.9808 196.431 92.7605C195.858 92.5402 195.439 92.1656 195.13 91.6148L183.267 70.3316C182.231 70.4638 181.172 70.552 180.114 70.596C179.055 70.6401 177.953 70.6621 176.806 70.6621H161.437C160.731 70.6621 160.18 70.3977 159.805 69.891C159.43 69.3843 159.254 68.7013 159.254 67.82C159.254 66.9166 159.452 66.2116 159.827 65.7489C160.202 65.2642 160.753 65.0219 161.481 65.0219H176.85H176.894C179.783 65.0219 182.363 64.8015 184.634 64.3829C186.905 63.9643 188.846 63.2813 190.434 62.356C192.021 61.4306 193.234 60.2188 194.072 58.7647C194.932 57.2885 195.351 55.5039 195.351 53.3888V52.2872C195.351 50.4585 195.02 48.8061 194.337 47.374C193.653 45.9419 192.595 44.7081 191.117 43.7166C189.64 42.7252 187.743 41.954 185.384 41.4253C183.047 40.8965 180.202 40.6321 176.872 40.6321H176.343H176.321V40.544Z" fill="#0C0C3D"/>
<path fill-rule="evenodd" clip-rule="evenodd" d="M219.752 79.8768H251.892L255.748 90.1545C255.993 90.8777 256.283 91.4474 256.617 91.8638C256.952 92.2583 257.308 92.5651 257.687 92.7404C258.066 92.9157 258.467 93.0253 258.891 93.0472C259.336 93.0691 259.782 93.091 260.25 93.091C260.651 93.091 261.053 93.0253 261.409 92.8719C261.766 92.7185 262.056 92.4774 262.256 92.1487C262.457 91.82 262.568 91.3817 262.591 90.8339C262.591 90.286 262.457 89.6067 262.189 88.8178L244.247 40.5849C243.824 39.3796 243.333 38.4154 242.821 37.6704C242.308 36.9472 241.729 36.3774 241.104 35.9611C240.48 35.5666 239.789 35.2817 239.076 35.1283C238.341 34.9749 237.561 34.9092 236.736 34.9092H235.064C234.195 34.9092 233.393 34.9749 232.679 35.1283C231.944 35.2817 231.275 35.5447 230.651 35.9611C230.027 36.3555 229.448 36.9253 228.935 37.6704C228.422 38.4154 227.954 39.3796 227.509 40.5849L209.566 88.8178C209.277 89.6286 209.143 90.286 209.143 90.8339C209.143 91.3817 209.254 91.82 209.455 92.1487C209.656 92.4774 209.945 92.7185 210.324 92.8719C210.703 93.0253 211.082 93.091 211.505 93.091C211.974 93.091 212.442 93.0691 212.865 93.0472C213.289 93.0253 213.69 92.9157 214.069 92.7404C214.448 92.5651 214.804 92.2802 215.138 91.8638C215.473 91.4694 215.763 90.8996 216.008 90.1545L219.752 79.8768ZM249.998 74.7708H221.602L233.393 42.6668C233.705 41.8559 233.995 41.2862 234.307 40.9355C234.596 40.6068 234.975 40.4096 235.421 40.3877H235.577H235.666H236.246C236.669 40.4096 237.026 40.5849 237.338 40.9355C237.65 41.2643 237.94 41.8559 238.252 42.6668L249.998 74.7708Z" fill="#0C0C3D"/>
<path d="M329.239 93.0688C328.471 93.0688 327.788 92.9576 327.212 92.7352C326.678 92.6462 326.23 92.4905 325.867 92.2459C325.504 92.0012 325.333 91.6009 325.333 91.0448V90.4221V90.2887V89.9106V63.9778V63.5998V63.4663V37.845V37.6893C325.333 36.9108 325.675 36.2659 326.336 35.7098C326.998 35.1761 327.98 34.9092 329.239 34.9092C333.657 34.9092 337.541 34.9092 340.913 34.9092C344.285 34.9092 347.188 34.9092 349.664 34.9092C352.139 34.9092 354.188 34.9092 355.853 34.9092C357.496 34.9092 358.841 34.9092 359.865 34.9092C360.89 34.9092 361.637 34.9092 362.106 34.9314C362.576 34.9537 362.853 34.9537 362.917 34.9537C363.451 34.9759 363.899 35.265 364.283 35.7988C364.646 36.3326 364.838 37.0221 364.838 37.8227C364.838 38.5344 364.71 39.0904 364.454 39.4685C364.198 39.8466 363.878 40.1135 363.494 40.2692C363.109 40.4249 362.683 40.5361 362.234 40.5583C361.786 40.5806 361.359 40.6028 360.954 40.6028H331.565V60.8419C335.279 60.8419 338.502 60.8419 341.191 60.8419C343.88 60.8419 346.164 60.8419 348.02 60.8419C349.877 60.8419 351.392 60.8419 352.524 60.8419C353.676 60.8419 354.551 60.8419 355.191 60.8419C355.832 60.8419 356.28 60.8419 356.557 60.8641C356.813 60.8864 357.005 60.8864 357.07 60.8864C357.603 60.9086 358.073 61.1755 358.478 61.6871C358.884 62.1763 359.097 62.8881 359.097 63.7554C359.097 64.2892 359.012 64.7118 358.862 65.0676C358.713 65.4235 358.499 65.6904 358.265 65.9128C358.03 66.1352 357.774 66.2909 357.496 66.3799C357.219 66.4688 356.963 66.5355 356.728 66.5355H331.565V87.3974H360.954C361.359 87.3974 361.786 87.4196 362.234 87.4418C362.683 87.4641 363.109 87.5753 363.494 87.731C363.878 87.8867 364.198 88.1758 364.454 88.5317C364.71 88.9097 364.838 89.4435 364.838 90.1775C364.838 90.9781 364.646 91.6454 364.283 92.2014C363.92 92.7351 363.451 93.0243 362.917 93.0465C362.789 93.0465 362.555 93.0465 362.213 93.0688C361.872 93.091 361.487 93.091 361.061 93.091C360.634 93.091 360.164 93.091 359.673 93.091C359.182 93.091 358.713 93.091 358.265 93.091H329.239V93.0688Z" fill="#0C0C3D"/>
<path d="M392.435 40.544H380.572V91.2183C380.572 91.5928 380.484 91.9013 380.308 92.1216C380.131 92.3419 379.889 92.5182 379.58 92.6504C379.271 92.7825 378.94 92.8707 378.544 92.9147C378.169 92.9588 377.75 92.9808 377.353 92.9808C376.493 92.9808 375.743 92.8707 375.104 92.6504C374.464 92.43 374.133 91.9453 374.133 91.2183V38.0323V37.834V37.6357C374.133 36.8866 374.464 36.2477 375.148 35.7189C375.831 35.1901 376.824 34.9257 378.125 34.9257H392.413C395.964 34.8376 399.271 35.102 402.38 35.6969C405.489 36.2917 408.18 37.2832 410.473 38.6712C412.766 40.0813 414.574 41.91 415.897 44.1793C417.22 46.4486 417.882 49.2467 417.882 52.5296V52.9922C417.882 55.1294 417.595 57.0682 417.044 58.7867C416.471 60.5052 415.677 62.0034 414.64 63.3033C413.604 64.6032 412.325 65.7049 410.848 66.6302C409.37 67.5556 407.717 68.3267 405.908 68.8995L417.97 90.3149C418.301 90.8878 418.367 91.3505 418.191 91.725C418.014 92.0775 417.706 92.3639 417.264 92.5622C416.823 92.7605 416.316 92.9147 415.765 92.9808C415.192 93.0469 414.707 93.091 414.266 93.091C413.692 93.091 413.119 92.9808 412.546 92.7605C411.972 92.5402 411.553 92.1656 411.245 91.6148L399.381 70.3316C398.345 70.4638 397.287 70.552 396.228 70.596C395.17 70.6401 394.067 70.6621 392.921 70.6621H377.551C376.846 70.6621 376.294 70.3977 375.92 69.891C375.545 69.3843 375.368 68.7013 375.368 67.82C375.368 66.9166 375.567 66.2116 375.942 65.7489C376.316 65.2642 376.868 65.0219 377.595 65.0219H392.965H393.009C395.897 65.0219 398.477 64.8015 400.749 64.3829C403.02 63.9643 404.96 63.2813 406.548 62.356C408.136 61.4306 409.348 60.2188 410.186 58.7647C411.046 57.2885 411.465 55.5039 411.465 53.3888V52.2872C411.465 50.4585 411.134 48.8061 410.451 47.374C409.767 45.9419 408.709 44.7081 407.231 43.7166C405.754 42.7252 403.858 41.954 401.498 41.4253C399.161 40.8965 396.316 40.6321 392.987 40.6321H392.458H392.435V40.544Z" fill="#0C0C3D"/>
<path d="M98.1954 44.2316C97.0287 41.9786 95.4082 40.1453 93.3341 38.7537C91.2384 37.3622 88.7321 36.3682 85.8153 35.7718C82.877 35.1754 79.6361 34.8883 76.0928 34.9104H62.0491C60.7528 34.9104 59.7805 35.1754 59.1107 35.7055C58.441 36.2357 58.0953 36.8762 58.0953 37.6272V37.826V38.0248V39.1955C58.0953 39.9686 58.7002 40.565 59.4348 40.565H64.3825V40.5208H76.0496C76.0928 40.5208 76.1576 40.5208 76.2224 40.5429C76.2872 40.565 76.3737 40.5429 76.4817 40.5208H76.6113C79.917 40.5208 82.6825 40.7859 84.8647 41.316C87.0469 41.8461 88.7969 42.5971 90.1149 43.6132C91.4112 44.6071 92.3402 45.8441 92.8588 47.2798C93.3773 48.7156 93.6366 50.3722 93.6366 52.2055V53.3099C93.6366 57.4184 92.297 60.3561 89.6179 62.1674C86.9388 63.9786 82.877 64.9063 77.4539 64.9947H77.1731H76.6113H76.0928C75.6391 64.9947 74.9045 64.9947 73.8674 64.9947C72.8519 64.9947 71.75 64.9947 70.5617 65.0167C69.3734 65.0388 68.2283 65.0388 67.0832 65.0388C66.4567 65.0388 65.8949 65.0388 65.398 65.0388C65.0091 65.0388 64.6634 65.0388 64.3825 65.0388H58.0953V91.3239C58.0953 92.0749 58.4193 92.5388 59.0675 92.7597C59.7157 92.9806 60.4503 93.091 61.2929 93.091C61.7034 93.091 62.0707 93.0689 62.438 93.0247C62.8053 92.9806 63.1294 92.8922 63.4319 92.7597C63.7343 92.6271 63.972 92.4504 64.1448 92.2296C64.3177 92.0087 64.4041 91.6994 64.4041 91.3239V70.6934H76.3953H76.5465C80.1546 70.6934 83.3955 70.3842 86.2907 69.7657C89.1858 69.1473 91.6489 68.1312 93.6582 66.7396C95.6675 65.326 97.2231 63.5147 98.3034 61.2617C99.3837 59.0087 99.9238 56.2477 99.9238 53.0007V52.5368C99.9238 49.2678 99.3621 46.4846 98.1954 44.2316Z" fill="url(#paint1_linear_1102_968)"/>
<path fill-rule="evenodd" clip-rule="evenodd" d="M272.698 34.9092C270.958 34.9092 269.562 36.3488 269.562 38.1427V89.946C269.562 91.6957 270.936 93.091 272.612 93.091H287.71C304.72 93.091 316.038 82.4158 316.038 63.9669C316.038 45.5843 304.72 34.9092 287.71 34.9092H272.698ZM309.552 63.9447C309.552 79.5809 301.004 87.244 287.13 87.244H275.769V40.734H287.13C301.004 40.734 309.552 48.4635 309.552 63.9447Z" fill="#0C0C3D"/>
<defs>
<linearGradient id="paint0_linear_1102_968" x1="23.2381" y1="34.9092" x2="23.2381" y2="93.091" gradientUnits="userSpaceOnUse">
<stop stop-color="#33F1C4"/>
<stop offset="1" stop-color="#049EE0"/>
</linearGradient>
<linearGradient id="paint1_linear_1102_968" x1="79.0095" y1="34.9092" x2="79.0095" y2="93.091" gradientUnits="userSpaceOnUse">
<stop stop-color="#33F1C4"/>
<stop offset="1" stop-color="#049EE0"/>
</linearGradient>
</defs>
</svg>
